<?xml version="1.0" encoding="UTF-8"?> <svg xmlns="http://www.w3.org/2000/svg" xmlns:xlink="http://www.w3.org/1999/xlink" id="svg2" viewBox="0 0 288 288"><defs><style>.cls-1{fill:none;}.cls-2{clip-path:url(#clip-path);}.cls-3{fill:#124175;}.cls-4{fill:#019196;}.cls-5{fill:#00b8f5;}.cls-6{fill:#f7931a;}.cls-7{fill:#fff;}</style><clipPath id="clip-path"><rect class="cls-1" width="288" height="288"></rect></clipPath></defs><title>Artboard 1</title><g id="g10"><g id="g14"><g class="cls-2"><g id="g16"><g id="g22"><path id="path24" class="cls-3" d="M143.33,91.32a52,52,0,0,1,40.18,19h2.84a54.16,54.16,0,0,0-86,0h2.84a52,52,0,0,1,40.17-19"></path></g><g id="g26"><path id="path28" class="cls-3" d="M143.33,195.34a52,52,0,0,1-40.17-19h-2.84a54.16,54.16,0,0,0,86,0h-2.84a51.94,51.94,0,0,1-40.18,19"></path></g><g id="g30"><path id="path32" class="cls-3" d="M151.72,143.33a8.39,8.39,0,1,1-8.39-8.39h0a8.38,8.38,0,0,1,8.39,8.37v0"></path></g><path id="path34" class="cls-4" d="M144.36,107.36h-2.05V95.8h2.05Z"></path><g id="g36"><path id="path38" class="cls-4" d="M138.1,107.72l-2,.36-2-11.38,2-.36Z"></path></g><g id="g40"><path id="path42" class="cls-4" d="M132,109.18l-1.92.7-4-10.86,1.93-.7Z"></path></g><g id="g44"><path id="path46" class="cls-4" d="M126.23,111.66l-1.77,1-5.78-10,1.77-1Z"></path></g><g id="g48"><path id="path50" class="cls-4" d="M121,115.11l-1.57,1.32L112,107.58l1.57-1.32Z"></path></g><g id="g52"><path id="path54" class="cls-4" d="M116.43,119.42,115.11,121l-8.85-7.43,1.32-1.57Z"></path></g><g id="g56"><path id="path58" class="cls-4" d="M112.69,124.46l-1,1.77-10-5.78,1-1.77Z"></path></g><g id="g60"><path id="path62" class="cls-4" d="M109.88,130.07l-.7,1.92-10.86-4,.7-1.93Z"></path></g><g id="g64"><path id="path66" class="cls-4" d="M108.08,136.08l-.36,2-11.38-2,.36-2Z"></path></g><path id="path68" class="cls-4" d="M107.36,144.36H95.8v-2.05h11.56Z"></path><g id="g70"><path id="path72" class="cls-4" d="M107.72,148.57l.36,2-11.38,2-.36-2Z"></path></g><g id="g74"><path id="path76" class="cls-4" d="M109.18,154.67l.7,1.93L99,160.6l-.7-1.92Z"></path></g><g id="g78"><path id="path80" class="cls-4" d="M111.66,160.43l1,1.78-10,5.78-1-1.78Z"></path></g><g id="g82"><path id="path84" class="cls-4" d="M115.11,165.67l1.32,1.58-8.85,7.42-1.32-1.57Z"></path></g><g id="g86"><path id="path88" class="cls-4" d="M119.42,170.23l1.57,1.32-7.43,8.86L112,179.09Z"></path></g><g id="g90"><path id="path92" class="cls-4" d="M124.46,174l1.77,1-5.78,10-1.77-1Z"></path></g><g id="g94"><path id="path96" class="cls-4" d="M130.07,176.79l1.92.7-4,10.86-1.93-.7Z"></path></g><g id="g98"><path id="path100" class="cls-4" d="M136.08,178.59l2,.35-2,11.38-2-.35Z"></path></g><path id="path102" class="cls-4" d="M142.31,179.31h2.05v11.56h-2.05Z"></path><g id="g104"><path id="path106" class="cls-4" d="M148.57,178.94l2-.35,2,11.38-2,.35Z"></path></g><g id="g108"><path id="path110" class="cls-4" d="M154.67,177.49l1.93-.7,4,10.86-1.92.7Z"></path></g><g id="g112"><path id="path114" class="cls-4" d="M160.43,175l1.78-1L168,184l-1.78,1Z"></path></g><g id="g116"><path id="path118" class="cls-4" d="M165.67,171.55l1.58-1.32,7.42,8.86-1.57,1.32Z"></path></g><g id="g120"><path id="path122" class="cls-4" d="M170.23,167.24l1.32-1.57,8.86,7.43-1.32,1.57Z"></path></g><g id="g124"><path id="path126" class="cls-4" d="M174,162.21l1-1.78,10,5.78L184,168Z"></path></g><g id="g128"><path id="path130" class="cls-4" d="M176.79,156.6l.7-1.93,10.86,4-.7,1.92Z"></path></g><g id="g132"><path id="path134" class="cls-4" d="M178.59,150.59l.35-2,11.38,2-.35,2Z"></path></g><path id="path136" class="cls-4" d="M179.31,142.31h11.56v2.05H179.31Z"></path><g id="g138"><path id="path140" class="cls-4" d="M178.94,138.1l-.35-2,11.38-2,.35,2Z"></path></g><g id="g142"><path id="path144" class="cls-4" d="M177.49,132l-.7-1.92,10.86-4,.7,1.93Z"></path></g><g id="g146"><path id="path148" class="cls-4" d="M175,126.23l-1-1.77,10-5.78,1,1.77Z"></path></g><g id="g150"><path id="path152" class="cls-4" d="M171.55,121l-1.32-1.57,8.86-7.43,1.32,1.57Z"></path></g><g id="g154"><path id="path156" class="cls-4" d="M167.24,116.43l-1.57-1.32,7.43-8.85,1.57,1.32Z"></path></g><g id="g158"><path id="path160" class="cls-4" d="M162.21,112.69l-1.78-1,5.78-10,1.78,1Z"></path></g><g id="g162"><path id="path164" class="cls-4" d="M156.6,109.88l-1.93-.7,4-10.86,1.92.7Z"></path></g><g id="g166"><path id="path168" class="cls-4" d="M150.59,108.08l-2-.36,2-11.38,2,.36Z"></path></g><g id="g170"><path id="path172" class="cls-3" d="M143.33,117.05a26.28,26.28,0,1,0,26.28,26.28h0a26.31,26.31,0,0,0-26.28-26.28m0,53.68a27.4,27.4,0,1,1,27.4-27.4h0a27.44,27.44,0,0,1-27.4,27.4"></path></g></g></g></g><g id="g174"><g class="cls-2"><g id="g176"><g id="g182"><path id="path184" class="cls-3" d="M80.14,143.33a63.2,63.2,0,0,1,30.2-53.87V84.29a67.61,67.61,0,0,0,0,118.09V197.2a63.2,63.2,0,0,1-30.2-53.87"></path></g><g id="g186"><path id="path188" class="cls-3" d="M206.53,143.33a63.2,63.2,0,0,1-30.2,53.87v5.18a67.61,67.61,0,0,0,0-118.09v5.17a63.2,63.2,0,0,1,30.2,53.87"></path></g></g></g></g><g id="g190"><g class="cls-2"><g id="g192"><g id="g198"><path id="path200" class="cls-4" d="M138.67,72.27a.56.56,0,0,1,0-1.11c1.5-.1,3-.15,4.54-.15h0a.56.56,0,1,1,.15,1.11h-.15c-1.49,0-3,.06-4.47.15h0m13.49.39h-.07c-1.46-.18-3-.32-4.45-.41a.55.55,0,0,1-.52-.58h0a.52.52,0,0,1,.54-.52h.05c1.51.09,3,.22,4.52.41a.55.55,0,0,1,.49.62.57.57,0,0,1-.56.49m-22.43.75a.56.56,0,0,1-.55-.45.57.57,0,0,1,.44-.66c1.48-.28,3-.52,4.49-.71a.56.56,0,0,1,.14,1.11c-1.48.19-3,.42-4.42.7h-.1m31.29.91H161c-1.44-.36-2.91-.69-4.37-1a.56.56,0,0,1,.21-1.1c1.48.28,3,.61,4.43,1a.56.56,0,0,1,.41.68h0a.56.56,0,0,1-.54.42m-40,1.34a.54.54,0,0,1-.53-.38.56.56,0,0,1,.35-.71c1.43-.46,2.9-.89,4.36-1.27a.56.56,0,1,1,.37,1.06l-.09,0c-1.44.38-2.89.8-4.29,1.26a.49.49,0,0,1-.17,0m48.59,1.42a.74.74,0,0,1-.21,0c-1.38-.54-2.8-1-4.21-1.5a.57.57,0,0,1-.37-.71.58.58,0,0,1,.71-.36c1.44.47,2.88,1,4.28,1.53a.56.56,0,0,1-.2,1.08m-57,1.91a.56.56,0,0,1-.51-.32.57.57,0,0,1,.27-.75c1.36-.64,2.75-1.25,4.15-1.81a.57.57,0,0,1,.73.31.55.55,0,0,1-.29.72h0c-1.38.55-2.76,1.15-4.09,1.78a.5.5,0,0,1-.24.06m65.12,1.91a.52.52,0,0,1-.27-.07c-1.31-.71-2.65-1.39-4-2a.57.57,0,0,1-.27-.75.56.56,0,0,1,.74-.27c1.37.64,2.73,1.34,4.06,2.06a.56.56,0,0,1,.22.76.54.54,0,0,1-.49.29m-73,2.45a.6.6,0,0,1-.47-.26.57.57,0,0,1,.17-.78c1.27-.81,2.58-1.59,3.9-2.32a.57.57,0,0,1,.76.22.56.56,0,0,1-.22.76c-1.3.72-2.59,1.49-3.84,2.29a.53.53,0,0,1-.3.09m80.62,2.37a.57.57,0,0,1-.33-.11c-1.21-.87-2.46-1.72-3.71-2.51a.56.56,0,0,1-.17-.77.55.55,0,0,1,.76-.18h0c1.27.8,2.54,1.66,3.76,2.55a.55.55,0,0,1,.14.76v0a.56.56,0,0,1-.45.23M97.5,88.67a.55.55,0,0,1-.57-.55.54.54,0,0,1,.21-.45c1.17-1,2.37-1.91,3.58-2.79a.56.56,0,0,1,.66.9c-1.19.87-2.38,1.79-3.53,2.75a.56.56,0,0,1-.35.13m94.84,2.79a.54.54,0,0,1-.38-.15c-1.09-1-2.22-2-3.36-3a.56.56,0,0,1-.15-.78.57.57,0,0,1,.78-.15l.08.07c1.16,1,2.31,2,3.41,3a.56.56,0,0,1,0,.79.58.58,0,0,1-.41.17M90.94,94.84a.5.5,0,0,1-.38-.15.56.56,0,0,1,0-.79c1-1.1,2.12-2.18,3.21-3.21a.56.56,0,0,1,.79.79c-1.08,1-2.14,2.08-3.16,3.17a.58.58,0,0,1-.41.17M198.53,98a.57.57,0,0,1-.44-.2c-1-1.14-1.94-2.27-3-3.34a.56.56,0,0,1,.78-.8h0c1,1.09,2.05,2.24,3,3.4a.55.55,0,0,1-.06.78h0a.56.56,0,0,1-.35.13M85.2,101.79a.55.55,0,0,1-.45-.88c.89-1.23,1.82-2.44,2.78-3.6a.58.58,0,0,1,.79-.07.56.56,0,0,1,.07.79h0c-.94,1.14-1.86,2.33-2.74,3.53a.53.53,0,0,1-.45.23m118.64,3.49a.56.56,0,0,1-.47-.26c-.8-1.25-1.65-2.49-2.52-3.68a.56.56,0,0,1,.84-.74.42.42,0,0,1,.06.08c.89,1.21,1.75,2.47,2.56,3.74a.54.54,0,0,1-.16.76h0a.53.53,0,0,1-.3.09M80.38,109.41a.52.52,0,0,1-.27-.07.56.56,0,0,1-.22-.76c.72-1.32,1.5-2.64,2.31-3.91a.56.56,0,0,1,1,.51l-.06.09c-.79,1.25-1.56,2.55-2.27,3.85a.56.56,0,0,1-.49.29m127.82,3.75a.55.55,0,0,1-.5-.32c-.63-1.34-1.32-2.68-2-4a.57.57,0,1,1,1-.54h0c.73,1.32,1.43,2.68,2.07,4a.56.56,0,0,1-.27.74.5.5,0,0,1-.24.06M76.54,117.58a.67.67,0,0,1-.2,0,.57.57,0,0,1-.32-.73c.56-1.4,1.16-2.81,1.81-4.17a.56.56,0,0,1,.74-.28.57.57,0,0,1,.27.75c-.64,1.35-1.23,2.73-1.78,4.11a.55.55,0,0,1-.52.36m135,3.94a.56.56,0,0,1-.53-.39c-.46-1.41-1-2.82-1.52-4.2a.55.55,0,0,1,.11-.78.56.56,0,0,1,.78.1.54.54,0,0,1,.11.26c.56,1.4,1.09,2.84,1.55,4.27a.56.56,0,0,1-.35.71.54.54,0,0,1-.18,0M73.77,126.16h-.13a.57.57,0,0,1-.41-.68c.37-1.45.8-2.92,1.26-4.36a.56.56,0,0,1,.74-.28.55.55,0,0,1,.32.62c-.45,1.42-.87,2.86-1.23,4.3a.57.57,0,0,1-.55.42m140,4.08a.57.57,0,0,1-.55-.46c-.28-1.46-.61-2.92-1-4.36a.56.56,0,0,1,1.08-.28c.38,1.46.72,3,1,4.43a.57.57,0,0,1-.44.66h-.11M72.11,135H72a.56.56,0,0,1-.49-.63c.19-1.5.42-3,.7-4.48a.56.56,0,0,1,.65-.45h0a.54.54,0,0,1,.44.64h0c-.27,1.46-.5,3-.68,4.42a.57.57,0,0,1-.56.49M215,139.17a.57.57,0,0,1-.56-.52c-.1-1.48-.24-3-.43-4.45a.56.56,0,1,1,1.11-.15c.19,1.5.34,3,.44,4.53a.57.57,0,0,1-.53.59h0M71.57,144a.52.52,0,0,1-.56-.48v-.14c0-1.47,0-3,.13-4.43a.58.58,0,0,1,.59-.52.56.56,0,0,1,.53.59h0c-.09,1.45-.13,2.91-.13,4.36a.62.62,0,0,1-.56.62M215,148.4h0a.58.58,0,0,1-.53-.6c.09-1.48.14-3,.14-4.47v-.22a.56.56,0,1,1,1.12,0v.22c0,1.51,0,3-.14,4.54a.56.56,0,0,1-.56.53M72.14,153a.57.57,0,0,1-.56-.49c-.19-1.5-.33-3-.43-4.52a.57.57,0,0,1,.52-.6.58.58,0,0,1,.6.53h0c.09,1.48.24,3,.42,4.45a.56.56,0,0,1-.48.63h-.07m141.7,4.35h-.1a.59.59,0,0,1-.45-.66c.28-1.46.51-2.95.7-4.42a.55.55,0,0,1,.61-.48h0a.55.55,0,0,1,.49.62c-.19,1.49-.43,3-.71,4.49a.56.56,0,0,1-.55.46m-140,4.5a.56.56,0,0,1-.54-.42c-.38-1.46-.71-2.95-1-4.43a.56.56,0,0,1,.43-.66.57.57,0,0,1,.67.43v0c.28,1.46.61,2.92,1,4.36a.56.56,0,0,1-.38.68h-.16m137.78,4.22h-.17a.57.57,0,0,1-.36-.71c.46-1.42.88-2.86,1.24-4.29a.56.56,0,0,1,1.09.27h0c-.38,1.46-.8,2.92-1.27,4.37a.55.55,0,0,1-.53.38m-135,4.35a.57.57,0,0,1-.52-.36c-.55-1.4-1.07-2.83-1.54-4.27a.56.56,0,0,1,1.06-.35c.46,1.42,1,2.83,1.52,4.21a.57.57,0,0,1-.31.73.74.74,0,0,1-.21,0m131.67,4a1,1,0,0,1-.24,0,.57.57,0,0,1-.27-.75c.64-1.34,1.24-2.73,1.78-4.11a.57.57,0,0,1,.73-.31.55.55,0,0,1,.32.71v0c-.55,1.4-1.16,2.8-1.81,4.17a.55.55,0,0,1-.5.32m-127.84,4.1a.54.54,0,0,1-.49-.29c-.73-1.32-1.43-2.68-2.07-4a.56.56,0,0,1,.36-.7.56.56,0,0,1,.64.22c.63,1.34,1.32,2.68,2,4a.56.56,0,0,1-.22.76.52.52,0,0,1-.27.07m123.47,3.81a.56.56,0,0,1-.56-.56.53.53,0,0,1,.09-.3c.79-1.25,1.56-2.55,2.28-3.85a.57.57,0,0,1,1,.54c-.73,1.32-1.51,2.64-2.32,3.91a.56.56,0,0,1-.47.26m-118.6,3.72a.56.56,0,0,1-.46-.23c-.88-1.21-1.74-2.47-2.55-3.75a.54.54,0,0,1,.16-.76h0a.56.56,0,0,1,.77.17c.8,1.25,1.65,2.5,2.52,3.69a.56.56,0,0,1-.12.78.55.55,0,0,1-.33.11m113.32,3.51a.56.56,0,0,1-.35-.13.57.57,0,0,1-.08-.79c1-1.14,1.87-2.33,2.75-3.53a.55.55,0,0,1,.77-.13h0a.56.56,0,0,1,.12.78c-.88,1.22-1.82,2.42-2.78,3.59a.57.57,0,0,1-.44.2M91.06,193.06a.58.58,0,0,1-.41-.17c-1-1.09-2-2.24-3-3.4a.56.56,0,0,1,.08-.79h0a.55.55,0,0,1,.78.06h0c1,1.15,2,2.28,3,3.35a.55.55,0,0,1,0,.78h0a.54.54,0,0,1-.38.15m101.41,3.15a.52.52,0,0,1-.41-.18.56.56,0,0,1,0-.79c1.08-1,2.15-2.08,3.17-3.16a.54.54,0,0,1,.76,0l0,0a.56.56,0,0,1,0,.79c-1,1.1-2.12,2.19-3.21,3.21a.55.55,0,0,1-.38.16m-94.84,3a.53.53,0,0,1-.36-.13c-1.16-1-2.31-2-3.41-3a.56.56,0,0,1,.79-.79c1.08,1,2.21,2,3.36,3a.56.56,0,0,1,.07.78.55.55,0,0,1-.43.21m87.9,2.72a.56.56,0,0,1-.45-.23.55.55,0,0,1,.11-.77h0c1.19-.87,2.38-1.79,3.53-2.74a.56.56,0,0,1,.79.79.27.27,0,0,1-.08.07c-1.16,1-2.37,1.9-3.58,2.79a.56.56,0,0,1-.33.1M105,204.61a.53.53,0,0,1-.3-.09c-1.27-.81-2.54-1.67-3.76-2.56a.56.56,0,1,1,.58-1l.08.06c1.2.87,2.45,1.72,3.7,2.52a.55.55,0,0,1,.18.76h0a.56.56,0,0,1-.47.26m73,2.25a.58.58,0,0,1-.49-.28.55.55,0,0,1,.2-.75h0c1.3-.72,2.6-1.49,3.85-2.28a.54.54,0,0,1,.76.16h0a.56.56,0,0,1-.17.77c-1.27.81-2.59,1.59-3.91,2.31a.52.52,0,0,1-.27.07M112.85,209a.59.59,0,0,1-.23,0c-1.36-.64-2.73-1.34-4.06-2.07a.57.57,0,1,1,.54-1h0c1.31.72,2.65,1.41,4,2a.56.56,0,0,1,.27.74.56.56,0,0,1-.51.32m57,1.75a.55.55,0,0,1-.58-.51.54.54,0,0,1,.37-.56c1.38-.55,2.76-1.15,4.1-1.78a.56.56,0,0,1,.69.39.55.55,0,0,1-.22.61c-1.36.64-2.76,1.25-4.16,1.8h-.2m-48.58,1.57h-.18c-1.43-.46-2.88-1-4.28-1.54a.54.54,0,0,1-.32-.69v0a.55.55,0,0,1,.72-.32c1.38.55,2.8,1.06,4.22,1.52a.56.56,0,0,1-.17,1.09m40,1.22a.56.56,0,0,1-.14-1.1c1.44-.37,2.89-.79,4.29-1.25a.56.56,0,0,1,.35,1.07c-1.43.46-2.9.89-4.36,1.26a.33.33,0,0,1-.14,0m-31.29,1h-.1c-1.48-.28-3-.61-4.43-1a.57.57,0,0,1-.41-.68.53.53,0,0,1,.66-.4h0c1.44.36,2.91.69,4.37,1a.56.56,0,0,1-.11,1.1m22.44.69a.57.57,0,0,1-.6-.52.58.58,0,0,1,.53-.6c1.47-.18,3-.42,4.42-.7a.57.57,0,0,1,.65.45.56.56,0,0,1-.44.65c-1.49.28-3,.52-4.49.71h-.07m-13.49.42h0c-1.51-.09-3-.23-4.52-.41a.55.55,0,0,1-.51-.6.56.56,0,0,1,.6-.52h.05c1.46.18,3,.32,4.45.41a.56.56,0,0,1,0,1.11m4.5.14a.56.56,0,0,1,0-1.12c1.49,0,3,0,4.47-.14a.58.58,0,0,1,.59.52.56.56,0,0,1-.52.6h0c-1.62.1-3.15.15-4.66.15Z"></path></g></g></g></g><g id="g202"><g class="cls-2"><g id="g204"><g id="g210"><path id="path212" class="cls-5" d="M65.51,122.33h6.8a75.73,75.73,0,0,1,144.72,0h6.79a81.69,81.69,0,0,1,0,44.67H217a75.73,75.73,0,0,1-144.72,0h-6.8a81.69,81.69,0,0,1,0-44.67m79.16-62.11a84.45,84.45,0,1,0,84.44,84.46h0a84.54,84.54,0,0,0-84.44-84.45"></path></g><g id="g214"><path id="path216" class="cls-3" d="M63.41,121.74h7a77.73,77.73,0,0,1,148.55,0h7a84.07,84.07,0,0,1,0,45.86h-7a77.74,77.74,0,0,1-148.55,0h-7a84.07,84.07,0,0,1,0-45.86M144.67,58a86.68,86.68,0,1,0,86.68,86.68A86.68,86.68,0,0,0,144.67,58"></path></g></g></g></g><g id="g218"><g class="cls-2"><g id="g220"><g id="g226"><path id="path228" class="cls-4" d="M144.67,50.72a94,94,0,1,0,94,94v-.05a94,94,0,0,0-94-93.95m0,189a95.07,95.07,0,1,1,95.07-95.07,95.06,95.06,0,0,1-95.07,95.07"></path></g><g id="g230"><path id="path232" class="cls-3" d="M144.67,52.39a92.28,92.28,0,1,0,92.27,92.29h0a92.39,92.39,0,0,0-92.27-92.28m0,186.79a94.51,94.51,0,1,1,94.51-94.51,94.51,94.51,0,0,1-94.51,94.51"></path></g><g id="g234"><path id="path236" class="cls-5" d="M144.67,42.7a102,102,0,1,0,102,102h0a102.08,102.08,0,0,0-102-102m0,210.64A108.68,108.68,0,1,1,253.34,144.65v0A108.79,108.79,0,0,1,144.67,253.34"></path></g><g id="g238"><path id="path240" class="cls-3" d="M144.67,244.4a99.73,99.73,0,0,1,0-199.46V33.75A110.92,110.92,0,1,0,255.58,144.68H244.4a99.84,99.84,0,0,1-99.73,99.73"></path></g></g></g></g><g id="g242"><g class="cls-2"><g id="g244"><g id="g250"><path id="path252" class="cls-3" d="M265.18,163.12c.11-.72.21-1.44.31-2.16l6.09.81c-.1.76-.2,1.52-.31,2.27Zm-4.18,18c.22-.7.43-1.39.63-2.09l5.91,1.73q-.33,1.11-.66,2.19Zm-6.88,17.18c.32-.66.63-1.31.94-2l5.57,2.61c-.32.67-.65,1.36-1,2.07Zm-9.41,15.93c.42-.6.83-1.19,1.23-1.8l5.11,3.43c-.42.63-.86,1.26-1.29,1.89ZM233,228.59c.5-.53,1-1.06,1.48-1.6l4.53,4.16c-.51.56-1,1.12-1.55,1.67ZM219.3,241c.58-.44,1.14-.9,1.71-1.35l3.85,4.79c-.59.48-1.19.95-1.79,1.42Zm-15.41,10.2,1.89-1.07,3.09,5.32-2,1.13ZM187.11,259c.67-.25,1.33-.51,2-.78l2.25,5.73-2.14.82Zm-17.77,5.12,2.13-.47,1.35,6c-.75.16-1.49.33-2.24.48ZM151,266.42l2.18-.14.42,6.13-2.28.15ZM132.5,266l2.17.2-.5,6.13c-.76-.07-1.52-.13-2.28-.21Zm-18.22-3.23,2.12.52-1.42,6-2.22-.55Zm-17.51-6c.66.29,1.34.57,2,.84l-2.32,5.7-2.12-.88Zm-16.4-8.57,1.86,1.14-3.16,5.28-2-1.2ZM65.44,237.25c.55.47,1.1.94,1.66,1.4l-3.91,4.74c-.59-.48-1.17-1-1.75-1.47Zm-13.1-13.06c.47.55.95,1.09,1.44,1.63l-4.59,4.1-1.51-1.71Zm-11-14.87q.57.92,1.17,1.83l-5.15,3.36q-.63-1-1.23-1.92ZM32.74,193c.29.67.58,1.33.88,2L28,197.5c-.32-.69-.62-1.39-.92-2.09Zm-6-17.48.57,2.1-5.93,1.66-.6-2.21Zm-3.3-18.2c.07.72.16,1.44.24,2.16l-6.1.74c-.09-.75-.19-1.51-.26-2.27Zm-.51-18.5c0,.72-.06,1.45-.08,2.18l-6.15-.18a21.81,21.81,0,0,1,.08-2.29Zm2.28-18.36c-.15.71-.28,1.42-.41,2.14l-6.05-1.11c.13-.75.28-1.5.43-2.24Zm5.05-17.81c-.25.68-.49,1.37-.73,2.06l-5.81-2c.25-.72.5-1.45.77-2.17ZM38,85.82c-.35.64-.7,1.28-1,1.92l-5.43-2.88c.36-.67.72-1.34,1.09-2ZM48.11,70.33q-.68.87-1.32,1.74L41.85,68.4c.46-.61.92-1.22,1.39-1.82ZM60.47,56.58,58.92,58.1l-4.33-4.37,1.63-1.6ZM74.76,44.84,73,46.11l-3.62-5c.61-.45,1.23-.89,1.85-1.33ZM90.65,35.4l-1.94,1-2.83-5.46,2-1Zm17.14-6.94-2.07.67-2-5.83,2.17-.7Zm18-4.24-2.15.35-1-6.06,2.26-.37Zm18.44-1.46h-2.17l-.13-6.15h2.3Zm18.47,1.33q-1.08-.16-2.16-.3l.79-6.1c.76.1,1.51.2,2.27.32Zm18,4.11-2.09-.62,1.71-5.91,2.2.65ZM197.94,35l-2-.94,2.59-5.58,2.08,1Zm16,9.35-1.8-1.23L215.5,38l1.9,1.29ZM228.27,56l-1.59-1.49L230.82,50l1.67,1.56Zm12.46,13.66L239.37,68l4.78-3.87c.48.59,1,1.19,1.43,1.79ZM251,85.07c-.36-.63-.72-1.26-1.09-1.88l5.31-3.11c.39.66.76,1.32,1.14,2Zm7.81,16.75c-.26-.68-.51-1.36-.78-2l5.72-2.27c.28.71.55,1.42.82,2.14ZM264,119.58c-.15-.71-.31-1.43-.47-2.13l6-1.37c.17.74.33,1.49.49,2.24Zm2.41,18.34c0-.73-.09-1.45-.14-2.18l6.13-.44q.09,1.14.15,2.28ZM144.67,264.34A119.68,119.68,0,1,1,264.34,144.65v0A119.81,119.81,0,0,1,144.67,264.34m0-250a130.44,130.44,0,0,0-130.3,130.3c0,71.84,58.45,130.3,130.3,130.3S275,216.51,275,144.67,216.54,14.37,144.7,14.37"></path></g><g id="g254"><path id="path256" class="cls-4" d="M144.67,10.45c-74,0-134.22,60.21-134.22,134.22S70.66,278.88,144.67,278.88s134.21-60.21,134.21-134.21S218.67,10.45,144.67,10.45m0,269.55A135.46,135.46,0,0,1,9.33,144.67C9.33,70.05,70,9.33,144.67,9.33a135.34,135.34,0,0,1,0,270.67"></path></g></g></g></g></g><g id="layer1"><g id="g4738"><path id="path4734" class="cls-6" d="M175.81,143.78A32,32,0,1,1,144,111.61h0A32,32,0,0,1,175.81,143.78Z"></path><path id="path4736" class="cls-7" d="M156.44,135.79c-.39-4.29-4.07-5.75-8.71-6.18l0-6-3.62,0,0,5.8c-1,0-1.93,0-2.89,0l0-5.82-3.62,0,0,6h-7.32l0,3.86s2.68,0,2.63,0A1.86,1.86,0,0,1,135,135l0,6.77a2.56,2.56,0,0,1,.39,0h-.38l-.06,9.54a1.27,1.27,0,0,1-1.34,1.19h0s-2.63,0-2.63,0l-.75,4.3,4.71,0,2.58,0,0,6,3.61,0,0-5.95c1,0,1.95,0,2.89,0l0,5.92,3.62,0,0-6c6.1-.32,10.35-1.82,10.91-7.53.45-4.6-1.69-6.66-5.14-7.51,2.1-1.06,3.41-2.89,3.13-6.07Zm-5.11,12.82c0,4.5-7.72,3.94-10.17,3.93v-7.89c2.48,0,10.13-.67,10.15,4Zm-1.62-11.18c0,4.12-6.43,3.62-8.48,3.57l0-7.22C143.3,133.76,149.69,133.15,149.71,137.43Z"></path></g></g></svg> 