<?xml version="1.0" encoding="UTF-8"?> <svg xmlns="http://www.w3.org/2000/svg" id="Layer_1" data-name="Layer 1" viewBox="0 0 226.85 36.26"><defs><style>.cls-1{fill:#fff;}</style></defs><title>Artboard 1</title><path class="cls-1" d="M0,18.29a16.8,16.8,0,0,1,1.73-7.78A17.8,17.8,0,0,1,6.17,4.89a18.77,18.77,0,0,1,6.07-3.38A20.65,20.65,0,0,1,18.82.38a21.28,21.28,0,0,1,9.21,2A18.72,18.72,0,0,1,34.9,7.77L28.9,13A12.79,12.79,0,0,0,27,11.11,14.46,14.46,0,0,0,24.6,9.57a14.79,14.79,0,0,0-2.66-1,10.71,10.71,0,0,0-2.79-.38,11.77,11.77,0,0,0-4.7.86,10,10,0,0,0-3.36,2.28,9.45,9.45,0,0,0-2,3.24,10.75,10.75,0,0,0-.67,3.75A10.55,10.55,0,0,0,9.07,22a9.27,9.27,0,0,0,2,3.24,9.83,9.83,0,0,0,3.36,2.28,11.77,11.77,0,0,0,4.7.86A11.55,11.55,0,0,0,25,26.88a11.46,11.46,0,0,0,2.16-1.56,15.46,15.46,0,0,0,1.73-1.9l6,5.23A20.2,20.2,0,0,1,28,34.15a20.85,20.85,0,0,1-15.77.91,18.58,18.58,0,0,1-6-3.38,18,18,0,0,1-4.41-5.62A16.78,16.78,0,0,1,0,18.29Zm15.41,0a3.68,3.68,0,0,1,1-2.71,3.63,3.63,0,0,1,2.73-1,3.58,3.58,0,0,1,2.69,1,3.72,3.72,0,0,1,1,2.71,3.48,3.48,0,0,1-3.7,3.7,3.69,3.69,0,0,1-2.73-1A3.6,3.6,0,0,1,15.41,18.33Z"></path><path class="cls-1" d="M40.51,22.46V15.74H59.38a4.65,4.65,0,0,0,3.45-1.17A3.61,3.61,0,0,0,64,12a3.59,3.59,0,0,0-1.15-2.57,4.65,4.65,0,0,0-3.45-1.18H40.51V1.49H60.77a12.28,12.28,0,0,1,4.85.88,9.83,9.83,0,0,1,5.49,5.76,10.84,10.84,0,0,1-1,9.7A9.76,9.76,0,0,1,68,20.18,9.66,9.66,0,0,1,65,21.79l10.32,13.3H65.23L56.35,22.46Z"></path><path class="cls-1" d="M85.92,1.49,99.17,21.31V35.09H91.06V21.6L76.46,1.49Zm18.38,0h9.46l-10.51,14L98.54,9.88Z"></path><path class="cls-1" d="M119,23.37V16.61h17.33a3.6,3.6,0,0,0,3-1.3,4.6,4.6,0,0,0,1-2.88,4.87,4.87,0,0,0-.24-1.51,4,4,0,0,0-.74-1.35,3.75,3.75,0,0,0-1.28-1,4.11,4.11,0,0,0-1.77-.36H119V1.49h18.19a11.79,11.79,0,0,1,4.83.93,10.16,10.16,0,0,1,3.45,2.47,10.72,10.72,0,0,1,2.07,3.51,12.11,12.11,0,0,1,0,8.06,10.57,10.57,0,0,1-2.07,3.5,10.05,10.05,0,0,1-3.45,2.48,11.79,11.79,0,0,1-4.83.93Z"></path><path class="cls-1" d="M187.63,1.49V8.21H150.14V1.49Zm-22.8,12h8.11v21.6h-8.11Z"></path><path class="cls-1" d="M226.85,18.29a16.91,16.91,0,0,1-1.75,7.87,17.46,17.46,0,0,1-4.54,5.59,19.46,19.46,0,0,1-6.17,3.34,21.65,21.65,0,0,1-6.7,1.1,21.86,21.86,0,0,1-6.71-1.1,19,19,0,0,1-6.17-3.34,17.38,17.38,0,0,1-4.51-5.59,16.79,16.79,0,0,1-1.76-7.87,16.8,16.8,0,0,1,1.76-7.88,17.38,17.38,0,0,1,4.51-5.59A18.83,18.83,0,0,1,201,1.49a20.81,20.81,0,0,1,13.41,0,19.24,19.24,0,0,1,6.17,3.33,17.46,17.46,0,0,1,4.54,5.59A16.92,16.92,0,0,1,226.85,18.29Zm-8.31,0a9.87,9.87,0,0,0-1-4.52A9.73,9.73,0,0,0,215,10.58a10.72,10.72,0,0,0-3.5-1.89,12.15,12.15,0,0,0-3.8-.63,12.36,12.36,0,0,0-3.81.63,10.76,10.76,0,0,0-3.53,1.89,9.47,9.47,0,0,0-3.55,7.71,9.67,9.67,0,0,0,1,4.48,9.89,9.89,0,0,0,2.57,3.17,11,11,0,0,0,3.53,1.9,12.64,12.64,0,0,0,3.81.62,12.43,12.43,0,0,0,3.8-.62,10.93,10.93,0,0,0,3.5-1.9,9.39,9.39,0,0,0,3.55-7.65Zm-14.59,0a3.72,3.72,0,0,1,1-2.71,3.63,3.63,0,0,1,2.73-1,3.58,3.58,0,0,1,2.69,1,3.68,3.68,0,0,1,1,2.71,3.6,3.6,0,0,1-1,2.69,3.64,3.64,0,0,1-2.69,1A3.69,3.69,0,0,1,205,21,3.64,3.64,0,0,1,204,18.33Z"></path></svg> 