<?xml version="1.0" encoding="UTF-8"?> <svg xmlns="http://www.w3.org/2000/svg" id="Layer_1" data-name="Layer 1" viewBox="0 0 34.9 35.81"><defs><style>.cls-1{fill:#fff;}</style></defs><title>Artboard 1</title><path class="cls-1" d="M0,17.9a16.85,16.85,0,0,1,1.73-7.77A17.7,17.7,0,0,1,6.17,4.51a18.88,18.88,0,0,1,6.07-3.38A20.77,20.77,0,0,1,18.82,0,21.36,21.36,0,0,1,28,1.94a18.82,18.82,0,0,1,6.9,5.45l-6,5.23A13.06,13.06,0,0,0,27,10.73a14,14,0,0,0-2.4-1.54,14.68,14.68,0,0,0-2.66-1,10.54,10.54,0,0,0-2.79-.38,11.64,11.64,0,0,0-4.7.86A10,10,0,0,0,11.09,11a9.36,9.36,0,0,0-2,3.24,10.7,10.7,0,0,0,0,7.44,9.36,9.36,0,0,0,2,3.24,10,10,0,0,0,3.36,2.28,11.81,11.81,0,0,0,4.7.86,12,12,0,0,0,3.22-.4A12.65,12.65,0,0,0,25,26.5a11.41,11.41,0,0,0,2.16-1.56A16.85,16.85,0,0,0,28.9,23l6,5.23A20.19,20.19,0,0,1,28,33.77a20.83,20.83,0,0,1-15.77.91,18.55,18.55,0,0,1-6-3.38,18,18,0,0,1-4.41-5.62A16.82,16.82,0,0,1,0,17.9Zm15.41.1a3.68,3.68,0,0,1,1-2.71,3.63,3.63,0,0,1,2.73-1,3.58,3.58,0,0,1,2.69,1,3.72,3.72,0,0,1,1,2.71,3.48,3.48,0,0,1-3.25,3.7,3.38,3.38,0,0,1-.45,0,3.71,3.71,0,0,1-2.73-1A3.59,3.59,0,0,1,15.41,18Z"></path></svg> 