<?xml version="1.0" encoding="UTF-8"?> <svg xmlns="http://www.w3.org/2000/svg" xmlns:xlink="http://www.w3.org/1999/xlink" viewBox="0 0 375.28 370.73"><defs><linearGradient id="linear-gradient" x1="188.3" y1="367.88" x2="199.78" y2="320.31" gradientUnits="userSpaceOnUse"><stop offset=".03" stop-color="#7c1dc9"></stop><stop offset=".21" stop-color="#6e41d2"></stop><stop offset=".62" stop-color="#4c9be8"></stop><stop offset="1" stop-color="#2af6ff"></stop></linearGradient><linearGradient id="linear-gradient-2" x1="205.3" y1="370.99" x2="215.8" y2="327.49" xlink:href="#linear-gradient"></linearGradient><linearGradient id="linear-gradient-3" x1="288.9" y1="254.22" x2="215.9" y2="266.22" xlink:href="#linear-gradient"></linearGradient><linearGradient id="linear-gradient-4" x1="305.95" y1="223.24" x2="232.95" y2="235.24" xlink:href="#linear-gradient"></linearGradient><linearGradient id="linear-gradient-5" x1="351.22" y1="180.67" x2="231.72" y2="263.67" xlink:href="#linear-gradient"></linearGradient><linearGradient id="linear-gradient-6" x1="365.03" y1="142.45" x2="245.53" y2="225.45" xlink:href="#linear-gradient"></linearGradient><linearGradient id="linear-gradient-7" x1="343.34" y1="133.23" x2="223.84" y2="216.23" xlink:href="#linear-gradient"></linearGradient><linearGradient id="linear-gradient-8" x1="55.51" y1="348.18" x2="131.01" y2="292.18" xlink:href="#linear-gradient"></linearGradient><linearGradient id="linear-gradient-9" x1="55.78" y1="348.56" x2="131.28" y2="292.55" xlink:href="#linear-gradient"></linearGradient><linearGradient id="linear-gradient-10" x1="4.15" y1="293.74" x2="82.15" y2="251.24" xlink:href="#linear-gradient"></linearGradient><linearGradient id="linear-gradient-11" x1="1.2" y1="288.32" x2="79.2" y2="245.82" xlink:href="#linear-gradient"></linearGradient><linearGradient id="linear-gradient-12" x1="241.21" y1="366.23" x2="198.13" y2="322.55" xlink:href="#linear-gradient"></linearGradient><linearGradient id="linear-gradient-13" x1="246.02" y1="362.49" x2="210.52" y2="326.49" xlink:href="#linear-gradient"></linearGradient><linearGradient id="linear-gradient-14" x1="245.28" y1="345.18" x2="209.78" y2="309.18" xlink:href="#linear-gradient"></linearGradient><linearGradient id="linear-gradient-15" x1="242.96" y1="347.47" x2="207.46" y2="311.47" xlink:href="#linear-gradient"></linearGradient><linearGradient id="linear-gradient-16" x1="294.37" y1="287.77" x2="221.37" y2="299.77" xlink:href="#linear-gradient"></linearGradient><linearGradient id="linear-gradient-17" x1="293.18" y1="280.52" x2="220.18" y2="292.52" xlink:href="#linear-gradient"></linearGradient><linearGradient id="linear-gradient-18" x1="248.97" y1="310.5" x2="152.47" y2="249.5" xlink:href="#linear-gradient"></linearGradient><linearGradient id="linear-gradient-19" x1="245.33" y1="306.04" x2="224.83" y2="293.08" xlink:href="#linear-gradient"></linearGradient><linearGradient id="linear-gradient-20" x1="321.12" y1="377.69" x2="224.62" y2="316.69" xlink:href="#linear-gradient"></linearGradient><linearGradient id="linear-gradient-21" x1="325.54" y1="377.38" x2="215.44" y2="307.78" xlink:href="#linear-gradient"></linearGradient><linearGradient id="linear-gradient-22" x1="62.18" y1="357.17" x2="137.68" y2="301.17" xlink:href="#linear-gradient"></linearGradient><linearGradient id="linear-gradient-23" x1="63.42" y1="358.86" x2="138.92" y2="302.86" xlink:href="#linear-gradient"></linearGradient><linearGradient id="linear-gradient-24" x1="362.09" y1="142.88" x2="197.95" y2="256.88" xlink:href="#linear-gradient"></linearGradient><linearGradient id="linear-gradient-25" x1="229.68" y1="115.31" x2="110.18" y2="198.31" xlink:href="#linear-gradient"></linearGradient><linearGradient id="linear-gradient-26" x1="228.18" y1="115.7" x2="84.14" y2="215.75" xlink:href="#linear-gradient"></linearGradient><linearGradient id="linear-gradient-27" x1="45.56" y1="334.77" x2="121.06" y2="278.77" xlink:href="#linear-gradient"></linearGradient><linearGradient id="linear-gradient-28" x1="306.52" y1="238.5" x2="214.52" y2="253.62" xlink:href="#linear-gradient"></linearGradient><linearGradient id="linear-gradient-29" x1="39.48" y1="326.58" x2="114.98" y2="270.58" xlink:href="#linear-gradient"></linearGradient><linearGradient id="linear-gradient-30" x1="18.46" y1="320" x2="96.46" y2="277.5" xlink:href="#linear-gradient"></linearGradient><linearGradient id="linear-gradient-31" x1="8.91" y1="302.48" x2="86.91" y2="259.98" xlink:href="#linear-gradient"></linearGradient><linearGradient id="linear-gradient-32" x1="22.08" y1="326.64" x2="100.08" y2="284.14" xlink:href="#linear-gradient"></linearGradient><linearGradient id="linear-gradient-33" x1="348.37" y1="168.61" x2="202.16" y2="270.16" xlink:href="#linear-gradient"></linearGradient><linearGradient id="linear-gradient-34" x1="280.44" y1="150.8" x2="214.44" y2="194.13" xlink:href="#linear-gradient"></linearGradient><linearGradient id="linear-gradient-35" x1="278.34" y1="146.43" x2="178.44" y2="212.02" xlink:href="#linear-gradient"></linearGradient><linearGradient id="linear-gradient-36" x1="265.32" y1="174.14" x2="200.32" y2="215.8" xlink:href="#linear-gradient"></linearGradient><linearGradient id="linear-gradient-37" x1="262.88" y1="171.33" x2="197.88" y2="213" xlink:href="#linear-gradient"></linearGradient><linearGradient id="linear-gradient-38" x1="94.14" y1="355.43" x2="153.64" y2="303.93" xlink:href="#linear-gradient"></linearGradient><linearGradient id="linear-gradient-39" x1="96.02" y1="357.6" x2="155.52" y2="306.1" xlink:href="#linear-gradient"></linearGradient><linearGradient id="linear-gradient-40" x1="6.96" y1="298.89" x2="84.96" y2="256.39" xlink:href="#linear-gradient"></linearGradient><linearGradient id="linear-gradient-41" x1="11.05" y1="306.4" x2="89.05" y2="263.9" xlink:href="#linear-gradient"></linearGradient><linearGradient id="linear-gradient-42" x1="290.11" y1="261.55" x2="217.11" y2="273.55" xlink:href="#linear-gradient"></linearGradient><linearGradient id="linear-gradient-43" x1="10.03" y1="151.19" x2="79.03" y2="202.94" xlink:href="#linear-gradient"></linearGradient><linearGradient id="linear-gradient-44" x1="-5.36" y1="204.48" x2="46.39" y2="233.73" xlink:href="#linear-gradient"></linearGradient><linearGradient id="linear-gradient-45" x1="11.77" y1="174.18" x2="63.52" y2="203.43" xlink:href="#linear-gradient"></linearGradient><linearGradient id="linear-gradient-46" x1="4.01" y1="187.92" x2="55.76" y2="217.17" xlink:href="#linear-gradient"></linearGradient><linearGradient id="linear-gradient-47" x1="20.33" y1="243.67" x2="46.58" y2="238.92" xlink:href="#linear-gradient"></linearGradient><linearGradient id="linear-gradient-48" x1="14.89" y1="313.45" x2="92.89" y2="270.95" xlink:href="#linear-gradient"></linearGradient><linearGradient id="linear-gradient-49" x1="13.91" y1="263.43" x2="57.91" y2="264.43" xlink:href="#linear-gradient"></linearGradient><linearGradient id="linear-gradient-50" x1="14.05" y1="257.21" x2="58.05" y2="258.21" xlink:href="#linear-gradient"></linearGradient><linearGradient id="linear-gradient-51" x1="91.07" y1="372.83" x2="150.57" y2="321.33" xlink:href="#linear-gradient"></linearGradient><linearGradient id="linear-gradient-52" x1="91.37" y1="375.25" x2="161.53" y2="314.52" xlink:href="#linear-gradient"></linearGradient><linearGradient id="linear-gradient-53" x1="350.38" y1="130.41" x2="187.15" y2="243.78" xlink:href="#linear-gradient"></linearGradient><linearGradient id="linear-gradient-54" x1="308.69" y1="92.31" x2="189.19" y2="175.31" xlink:href="#linear-gradient"></linearGradient><linearGradient id="linear-gradient-55" x1="313.02" y1="93.31" x2="175.88" y2="188.56" xlink:href="#linear-gradient"></linearGradient><linearGradient id="linear-gradient-56" x1="142.68" y1="352.62" x2="153.19" y2="309.12" xlink:href="#linear-gradient"></linearGradient><linearGradient id="linear-gradient-57" x1="156.27" y1="355.9" x2="166.77" y2="312.4" xlink:href="#linear-gradient"></linearGradient><linearGradient id="linear-gradient-58" x1="202.37" y1="228.02" x2="108.35" y2="278.88" gradientUnits="userSpaceOnUse"><stop offset="0" stop-color="#fff"></stop><stop offset="1"></stop></linearGradient><linearGradient id="linear-gradient-59" x1="216.75" y1="211.05" x2="57.85" y2="211.05" gradientUnits="userSpaceOnUse"><stop offset="0" stop-color="#ffbb96"></stop><stop offset=".23" stop-color="#fffbc9"></stop><stop offset=".54" stop-color="#f9b673"></stop><stop offset=".65" stop-color="#fab978"></stop><stop offset=".79" stop-color="#fbc288"></stop><stop offset=".94" stop-color="#fed1a1"></stop><stop offset=".95" stop-color="#fed2a3"></stop></linearGradient><linearGradient id="linear-gradient-60" x1="58.82" y1="144.74" x2="215.21" y2="144.74" gradientUnits="userSpaceOnUse"><stop offset=".04" stop-color="#ffba78"></stop><stop offset=".4" stop-color="#ffc987"></stop><stop offset="1" stop-color="#feeca8"></stop></linearGradient><linearGradient id="linear-gradient-61" x1="231.99" y1="153.98" x2="23.34" y2="26.86" gradientUnits="userSpaceOnUse"><stop offset=".04" stop-color="#9d9eb3"></stop><stop offset=".58" stop-color="#d4d1d8"></stop><stop offset="1" stop-color="#eeebf2"></stop></linearGradient><linearGradient id="linear-gradient-62" x1="108.87" y1="93.29" x2="49.67" y2="57.22" xlink:href="#linear-gradient-61"></linearGradient><linearGradient id="linear-gradient-63" x1="181.61" y1="117.93" x2="32.04" y2="70.05" xlink:href="#linear-gradient-61"></linearGradient><linearGradient id="linear-gradient-64" x1="129.62" y1="106.1" x2="82.76" y2="77.55" gradientUnits="userSpaceOnUse"><stop offset="0" stop-color="#ffe4a7"></stop><stop offset="1"></stop></linearGradient><linearGradient id="linear-gradient-65" x1="228.76" y1="147.45" x2="68.92" y2="50.06" xlink:href="#linear-gradient-64"></linearGradient><linearGradient id="linear-gradient-66" x1="108.39" y1="109.21" x2="84.39" y2="130.54" xlink:href="#linear-gradient-58"></linearGradient><linearGradient id="linear-gradient-67" x1="190.24" y1="152.86" x2="158.1" y2="185.21" xlink:href="#linear-gradient-58"></linearGradient><linearGradient id="linear-gradient-68" x1="228.97" y1="146.73" x2="27.64" y2="24.06" xlink:href="#linear-gradient-61"></linearGradient><linearGradient id="linear-gradient-69" x1="108.18" y1="87.45" x2="56.29" y2="55.84" xlink:href="#linear-gradient-61"></linearGradient><linearGradient id="linear-gradient-70" x1="180.68" y1="112.22" x2="35.43" y2="65.72" xlink:href="#linear-gradient-61"></linearGradient><linearGradient id="linear-gradient-71" x1="126.59" y1="98.84" x2="87.05" y2="74.74" xlink:href="#linear-gradient-64"></linearGradient><linearGradient id="linear-gradient-72" x1="225.74" y1="140.19" x2="73.21" y2="47.26" xlink:href="#linear-gradient-64"></linearGradient><linearGradient id="linear-gradient-73" x1="108.5" y1="37.72" x2="118.5" y2="54.22" xlink:href="#linear-gradient-64"></linearGradient><linearGradient id="linear-gradient-74" x1="169.43" y1="67.34" x2="62.76" y2="104.34" xlink:href="#linear-gradient-64"></linearGradient><linearGradient id="linear-gradient-75" x1="107.1" y1="191.4" x2="134.81" y2="243.03" gradientUnits="userSpaceOnUse"><stop offset="0" stop-color="#bcbcd6"></stop><stop offset=".23" stop-color="#d4d1d8"></stop><stop offset=".54" stop-color="#9d9eb3"></stop><stop offset=".67" stop-color="#a2a3b8"></stop><stop offset=".84" stop-color="#afb0c8"></stop><stop offset=".95" stop-color="#bcbcd6"></stop></linearGradient><linearGradient id="linear-gradient-76" x1="-43" y1="237.46" x2="-15.32" y2="189.74" gradientTransform="rotate(30.31 40.458 494.017)" xlink:href="#linear-gradient-61"></linearGradient><linearGradient id="linear-gradient-77" x1="101.72" y1="206.27" x2="120.49" y2="240.18" xlink:href="#linear-gradient-75"></linearGradient><linearGradient id="linear-gradient-78" x1="-48.02" y1="235.26" x2="-33.8" y2="210.76" gradientTransform="rotate(32.63 30.815 479.415)" xlink:href="#linear-gradient-61"></linearGradient><radialGradient id="radial-gradient" cx="-5394.37" cy="346.31" r="48.75" gradientTransform="matrix(.29 0 0 1.16 1771.93 -158.7)" gradientUnits="userSpaceOnUse"><stop offset="0" stop-color="#f49587"></stop><stop offset=".12" stop-color="#bd7368"></stop><stop offset=".24" stop-color="#8b554d"></stop><stop offset=".36" stop-color="#603b35"></stop><stop offset=".48" stop-color="#3e2622"></stop><stop offset=".61" stop-color="#231513"></stop><stop offset=".74" stop-color="#0f0908"></stop><stop offset=".86" stop-color="#040202"></stop><stop offset="1"></stop></radialGradient><radialGradient id="radial-gradient-2" cx="136.8" cy="152.64" r="61.65" xlink:href="#radial-gradient"></radialGradient><radialGradient id="radial-gradient-3" cx="69.76" cy="141.46" r="89.74" xlink:href="#radial-gradient"></radialGradient><radialGradient id="radial-gradient-4" cx="140.76" cy="193.9" r="106.8" xlink:href="#radial-gradient"></radialGradient><radialGradient id="radial-gradient-5" cx="69.76" cy="130.18" r="89.71" xlink:href="#radial-gradient"></radialGradient><radialGradient id="radial-gradient-6" cx="140.76" cy="182.18" r="105.63" xlink:href="#radial-gradient"></radialGradient><radialGradient id="radial-gradient-7" cx="118.66" cy="220.35" r="22.43" xlink:href="#linear-gradient-58"></radialGradient><radialGradient id="radial-gradient-8" cx="-323.1" cy="29.36" r="13.45" gradientTransform="matrix(.9 0 0 .86 401.09 197.45)" xlink:href="#linear-gradient-58"></radialGradient><radialGradient id="radial-gradient-9" cx="972.7" cy="-3982.88" r="45.27" gradientTransform="matrix(.64 0 0 .47 -493.9 2092.48)" gradientUnits="userSpaceOnUse"><stop offset="0" stop-color="#972a74"></stop><stop offset=".04" stop-color="#8a266a"></stop><stop offset=".19" stop-color="#601b4a"></stop><stop offset=".35" stop-color="#3d112f"></stop><stop offset=".51" stop-color="#230a1b"></stop><stop offset=".67" stop-color="#0f040c"></stop><stop offset=".83" stop-color="#040103"></stop><stop offset="1"></stop></radialGradient><style>.cls-88{opacity:.3}.cls-72,.cls-89{opacity:.5}.cls-72{mix-blend-mode:screen}.cls-86,.cls-87,.cls-88,.cls-89{fill:#eca30a}.cls-86{opacity:.6}.cls-95{fill:#9d9eb3}</style></defs><g style="isolation:isolate"><g id="Layer_1" data-name="Layer 1"><path d="M186.25 317.3c-8 0-15.24-1.73-20.92-5L59.58 251C52.23 246.8 48 240.12 48 232.73c0-8.18 5.16-15.85 14.15-21a51.86 51.86 0 0125.62-6.5c8 0 15.24 1.73 20.93 5l105.74 61.23c7.36 4.25 11.58 10.93 11.58 18.32 0 8.18-5.16 15.85-14.16 21a52 52 0 01-25.61 6.52zM87.78 206.82A50.27 50.27 0 0063 213.1c-8.5 4.9-13.36 12.05-13.36 19.63 0 6.79 3.92 13 10.76 16.9l105.74 61.24c5.44 3.14 12.4 4.8 20.11 4.8a50.33 50.33 0 0024.81-6.28c8.48-4.9 13.34-12.05 13.34-19.63 0-6.79-3.93-12.95-10.77-16.9l-105.74-61.24c-5.43-3.14-12.39-4.8-20.11-4.8z" fill="#2af6ff"></path><path d="M206 360.56l-27.8-15.91a.52.52 0 01-.25-.44.5.5 0 01.25-.43l13.57-7.87-7.32-4.52a.49.49 0 01-.24-.42v-13.55h1v13.27l7.79 4.81a.51.51 0 01.24.43.48.48 0 01-.25.43l-13.54 7.85 27 15.48z" fill="url(#linear-gradient)"></path><path d="M207.73 362.9a4 4 0 01-2-.49 1.54 1.54 0 010-2.86 4.46 4.46 0 013.95 0 1.7 1.7 0 011 1.43 1.68 1.68 0 01-1 1.43 4 4 0 01-1.95.49zm0-2.83a3 3 0 00-1.46.35c-.3.17-.46.37-.46.56s.17.39.47.56a3.43 3.43 0 002.95 0c.29-.17.46-.37.46-.56s-.17-.39-.47-.57a3.1 3.1 0 00-1.52-.34z" fill="url(#linear-gradient-2)"></path><path d="M280.81 257.46a4 4 0 01-2-.49 1.54 1.54 0 010-2.86 4.46 4.46 0 013.95 0 1.7 1.7 0 011 1.43 1.68 1.68 0 01-1 1.43 4 4 0 01-1.95.49zm0-2.82a3 3 0 00-1.46.34c-.3.17-.46.37-.46.56s.17.39.47.56a3.43 3.43 0 002.95 0c.29-.17.46-.37.46-.56s-.17-.39-.47-.57a3.1 3.1 0 00-1.52-.33z" fill="url(#linear-gradient-3)"></path><path d="M314.44 223.75a4 4 0 01-2-.48 1.73 1.73 0 01-1-1.44 1.7 1.7 0 011-1.42 4.45 4.45 0 014 0 1.73 1.73 0 011 1.44 1.66 1.66 0 01-1 1.42 4 4 0 01-2 .48zm0-2.82a3 3 0 00-1.47.34c-.29.17-.45.37-.46.56s.18.4.48.57a3.5 3.5 0 003 0c.29-.17.46-.38.46-.56s-.17-.4-.47-.57a3.12 3.12 0 00-1.57-.34z" fill="url(#linear-gradient-4)"></path><path d="M333.71 194.76a4.07 4.07 0 01-2-.49 1.54 1.54 0 010-2.86 4.46 4.46 0 014 0 1.71 1.71 0 011 1.43 1.68 1.68 0 01-1 1.43 4 4 0 01-2 .49zm0-2.82a3 3 0 00-1.47.34c-.29.17-.46.37-.46.56s.17.39.47.57a3.46 3.46 0 002.95 0c.3-.17.46-.37.46-.56s-.17-.39-.47-.57a3.05 3.05 0 00-1.51-.34z" fill="url(#linear-gradient-5)"></path><path d="M372.35 139.29a4 4 0 01-2-.49 1.54 1.54 0 010-2.86 4.46 4.46 0 013.95 0 1.71 1.71 0 011 1.44 1.69 1.69 0 01-1 1.42 4 4 0 01-1.95.49zm0-2.82a3 3 0 00-1.46.34c-.29.17-.46.37-.46.56s.17.4.47.57a3.46 3.46 0 002.95 0c.29-.17.46-.37.46-.55s-.17-.4-.47-.57a3 3 0 00-1.52-.35z" fill="url(#linear-gradient-6)"></path><path d="M328 145.84a4 4 0 01-2-.48 1.71 1.71 0 01-1-1.43 1.68 1.68 0 011-1.43 4.43 4.43 0 013.95 0 1.54 1.54 0 010 2.86 4 4 0 01-1.95.48zm0-2.82a3 3 0 00-1.47.35c-.29.17-.46.37-.46.56s.17.39.47.57a3.46 3.46 0 003 0c.3-.17.46-.37.46-.56s-.17-.39-.47-.57a3.05 3.05 0 00-1.61-.37z" fill="url(#linear-gradient-7)"></path><path d="M77.21 333.53l-.49-.87 23.56-13.27 5-13.7a.51.51 0 01.22-.26l24.74-14.2.5.87-24.58 14.1-5 13.7a.53.53 0 01-.22.27z" fill="url(#linear-gradient-8)"></path><path d="M75.73 335.68a4 4 0 01-2-.48 1.54 1.54 0 010-2.86 4.42 4.42 0 014 0 1.53 1.53 0 010 2.85 4 4 0 01-2 .49zm0-2.82a3.16 3.16 0 00-1.47.34.81.81 0 00-.46.56c0 .19.18.4.48.57a3.46 3.46 0 003 0c.29-.17.46-.37.46-.56s-.17-.4-.47-.57a3.12 3.12 0 00-1.57-.34z" fill="url(#linear-gradient-9)"></path><path d="M14.71 281.53l-.49-.87 23.72-13.37a.48.48 0 01.26-.06l25.18 1.13 13.85-8.12.51.86-14 8.19a.41.41 0 01-.28.07l-25.16-1.12z" fill="url(#linear-gradient-10)"></path><path d="M13.23 283.68a4 4 0 01-2-.48 1.54 1.54 0 010-2.86 4.42 4.42 0 014 0 1.53 1.53 0 010 2.85 4 4 0 01-2 .49zm0-2.82a3.16 3.16 0 00-1.47.34.81.81 0 00-.46.56c0 .19.18.4.48.57a3.46 3.46 0 002.95 0c.29-.17.46-.37.46-.56s-.17-.4-.47-.57a3.12 3.12 0 00-1.52-.34z" fill="url(#linear-gradient-11)"></path><path d="M247.71 365.49l-35.4-19.88a.51.51 0 01-.22-.26l-8.31-22.52-10.41-5.89.5-.87 10.56 6a.44.44 0 01.22.26l8.35 22.5 35.24 19.79z" fill="url(#linear-gradient-12)"></path><path d="M249.19 367.64a4 4 0 01-2-.48 1.67 1.67 0 01-1-1.42 1.71 1.71 0 011-1.44 4.43 4.43 0 013.95 0 1.69 1.69 0 011 1.42 1.71 1.71 0 01-1 1.44 4.07 4.07 0 01-1.95.48zm0-2.82a3.05 3.05 0 00-1.48.35c-.3.17-.47.38-.47.57s.16.39.46.56a3.09 3.09 0 001.46.34 3.1 3.1 0 001.49-.35c.3-.17.47-.38.47-.57s-.17-.39-.46-.56a3 3 0 00-1.44-.34z" fill="url(#linear-gradient-13)"></path><path d="M238.61 340.31a3.93 3.93 0 01-2-.49 1.69 1.69 0 01-1-1.43 1.72 1.72 0 011-1.43 4.46 4.46 0 013.95 0 1.71 1.71 0 011 1.44 1.69 1.69 0 01-1 1.42 4 4 0 01-1.95.49zm0-2.82a3 3 0 00-1.46.34c-.3.17-.46.37-.46.56s.17.4.47.57a3.46 3.46 0 003 0c.29-.16.46-.37.46-.55s-.17-.4-.47-.57a3.1 3.1 0 00-1.57-.35z" fill="url(#linear-gradient-14)"></path><path fill="url(#linear-gradient-15)" d="M236.56 338.49l-12.22-7.23-3.63-8.86-15.48-9.18.51-.86 15.77 9.35 3.63 8.86 11.93 7.06-.51.86z"></path><path d="M280.63 291.93a4 4 0 01-2-.48 1.71 1.71 0 01-1-1.44 1.67 1.67 0 011-1.42 4.43 4.43 0 013.95 0 1.7 1.7 0 011 1.43 1.72 1.72 0 01-1 1.43 4.06 4.06 0 01-1.95.48zm0-2.82a3 3 0 00-1.46.35c-.29.16-.46.37-.46.55s.17.4.47.57a3.46 3.46 0 002.95 0c.3-.17.46-.37.46-.56s-.17-.39-.47-.57a3.07 3.07 0 00-1.53-.34z" fill="url(#linear-gradient-16)"></path><path fill="url(#linear-gradient-17)" d="M278.49 290.35h-20.51l-8.77-5.07h-23.97v-1h24.24l8.77 5.07h20.24v1z"></path><path d="M244.54 309.6a4.07 4.07 0 01-2-.49 1.54 1.54 0 010-2.86 4.46 4.46 0 014 0 1.71 1.71 0 011 1.44 1.67 1.67 0 01-1 1.42 4 4 0 01-2 .49zm0-2.82a3 3 0 00-1.47.34c-.29.17-.46.37-.46.56s.17.39.47.57a3.46 3.46 0 002.95 0c.3-.17.46-.37.46-.55s-.17-.4-.47-.58a3.05 3.05 0 00-1.51-.34z" fill="url(#linear-gradient-18)"></path><path fill="url(#linear-gradient-19)" d="M242.48 307.78l-6.79-4.3.29-5.7-10.75-6.57.51-.86 10.97 6.7-.29 5.7 6.57 4.17-.51.86z"></path><path d="M301.15 367a4 4 0 01-2-.48 1.73 1.73 0 01-1-1.44 1.69 1.69 0 011-1.43 4.46 4.46 0 014 0 1.71 1.71 0 011 1.44 1.69 1.69 0 01-1 1.42 4 4 0 01-2 .49zm0-2.82a3 3 0 00-1.46.34c-.29.17-.46.37-.46.56s.17.4.47.57a3.46 3.46 0 002.95 0c.3-.16.46-.37.46-.55s-.17-.4-.47-.57a3.07 3.07 0 00-1.53-.38z" fill="url(#linear-gradient-20)"></path><path fill="url(#linear-gradient-21)" d="M299.09 365.15l-47.34-27.64-8.89-17.99-24.79-14.31.5-.86 25.05 14.46 8.89 17.99 47.09 27.49-.51.86z"></path><path d="M62.57 358.78a4 4 0 01-2-.48 1.66 1.66 0 01-1-1.42 1.71 1.71 0 011-1.44 4.43 4.43 0 013.95 0 1.69 1.69 0 011 1.42 1.71 1.71 0 01-1 1.44 4.07 4.07 0 01-1.95.48zm0-2.82a3.05 3.05 0 00-1.48.35c-.3.17-.47.38-.47.57s.16.39.46.56a3.09 3.09 0 001.46.34 3.1 3.1 0 001.49-.35c.3-.17.47-.38.47-.57s-.17-.39-.46-.56a3 3 0 00-1.44-.3z" fill="url(#linear-gradient-22)"></path><path fill="url(#linear-gradient-23)" d="M64.63 356.96l-.51-.86 36.33-21.24 6.02-12.69.14-.07 38.63-22.61.5.86-38.5 22.53-6.02 12.69-36.59 21.39z"></path><path fill="url(#linear-gradient-24)" d="M212.63 240.41l-.51-.86 126.31-74 6.02-12.7 26.14-14.91.5.87-25.87 14.76-6.02 12.69-.13.07-126.44 74.08z"></path><path d="M237 112.14a4 4 0 01-2-.48 1.71 1.71 0 01-1-1.44 1.67 1.67 0 011-1.42 4.4 4.4 0 014 0 1.53 1.53 0 010 2.85 4 4 0 01-2 .49zm0-2.82a3.09 3.09 0 00-1.46.34c-.29.17-.46.38-.46.56s.17.4.47.57a3.46 3.46 0 002.95 0c.29-.17.46-.37.46-.56s-.17-.4-.47-.57a3.1 3.1 0 00-1.49-.34z" fill="url(#linear-gradient-25)"></path><path fill="url(#linear-gradient-26)" d="M97.11 201.44l-.5-.87 106.47-62.17 6.02-12.69 26.14-14.91.5.87-25.87 14.75-6.02 12.69-.13.08-106.61 62.25z"></path><path d="M43.8 324.44l-.5-.87 13.88-8a.92.92 0 01.26-.07l18.73.37 48.34-28 .5.87-48.46 28.1a.46.46 0 01-.26.07l-18.73-.37z" fill="url(#linear-gradient-27)"></path><path d="M214.1 269l-.51-.87 46.11-26.5a.66.66 0 01.27-.06l18.73.37 34.16-19.83.51.87-34.29 19.89a.59.59 0 01-.26.07l-18.73-.37z" fill="url(#linear-gradient-28)"></path><path d="M42 326.61a4 4 0 01-2-.48 1.69 1.69 0 01-1-1.42 1.71 1.71 0 011-1.44 4.43 4.43 0 014 0 1.53 1.53 0 010 2.85 4 4 0 01-2 .49zm0-2.82a3.05 3.05 0 00-1.48.35c-.3.17-.47.38-.47.57s.16.39.46.56a3.09 3.09 0 001.46.34 3.12 3.12 0 001.49-.35c.3-.17.47-.38.47-.57s-.17-.39-.46-.56a3 3 0 00-1.47-.34z" fill="url(#linear-gradient-29)"></path><path d="M9.77 326.64a4 4 0 01-2-.48 1.66 1.66 0 01-1-1.42 1.71 1.71 0 011-1.44 4.43 4.43 0 013.95 0 1.69 1.69 0 011 1.42 1.71 1.71 0 01-1 1.44 4.07 4.07 0 01-1.95.48zm0-2.82a3.05 3.05 0 00-1.48.35c-.3.17-.47.38-.47.57s.16.39.46.56a3 3 0 001.46.34 3.1 3.1 0 001.49-.35c.3-.17.47-.38.47-.57s-.17-.39-.46-.56a3.13 3.13 0 00-1.44-.34z" fill="url(#linear-gradient-30)"></path><path d="M11 303.24a4 4 0 01-2-.48 1.68 1.68 0 01-1-1.43 1.7 1.7 0 011-1.43 4.43 4.43 0 013.95 0 1.68 1.68 0 011 1.43 1.7 1.7 0 01-1 1.43 4.07 4.07 0 01-1.95.48zm0-2.83a3.05 3.05 0 00-1.48.35c-.3.18-.47.38-.47.57s.16.39.46.56a3.46 3.46 0 002.95 0c.3-.18.47-.38.47-.57s-.17-.39-.46-.56a3 3 0 00-1.47-.35z" fill="url(#linear-gradient-31)"></path><path fill="url(#linear-gradient-32)" d="M11.83 324.82l-.51-.86 28.15-16.8 36.12-.81 40.81-23.77.5.86-41.03 23.9-36.12.82-27.92 16.66z"></path><path fill="url(#linear-gradient-33)" d="M197.84 259.67l-.51-.86 72.17-42.66 20.67 1.17 41.95-23.93.5.87-42.22 24.07-.14-.01-20.52-1.15-71.9 42.5z"></path><path d="M279.21 153.52a4 4 0 01-2-.48 1.71 1.71 0 01-1-1.43 1.68 1.68 0 011-1.43 4.43 4.43 0 013.95 0 1.54 1.54 0 010 2.86 4.07 4.07 0 01-1.95.48zm0-2.82a3 3 0 00-1.46.35c-.3.17-.46.37-.46.56s.17.39.47.57a3.46 3.46 0 002.95 0c.29-.17.46-.37.46-.56s-.17-.39-.47-.57a3.1 3.1 0 00-1.52-.35z" fill="url(#linear-gradient-34)"></path><path fill="url(#linear-gradient-35)" d="M205.22 189.25l-.51-.86 36.53-21.49 9.06.51 27.12-15.19.49.87-27.37 15.34-9.05-.51-36.27 21.33z"></path><path d="M242.77 190.51a4.07 4.07 0 01-2-.48 1.73 1.73 0 01-1-1.44 1.66 1.66 0 011-1.42 4.45 4.45 0 014 0 1.73 1.73 0 011 1.44 1.69 1.69 0 01-1 1.42 4 4 0 01-2 .48zm0-2.82a3 3 0 00-1.47.34c-.29.17-.46.37-.46.56s.17.4.47.57a3.52 3.52 0 003 0c.29-.17.46-.38.46-.56s-.17-.4-.47-.57a3.12 3.12 0 00-1.56-.34z" fill="url(#linear-gradient-36)"></path><path fill="url(#linear-gradient-37)" d="M192.74 212.56l-.5-.86 29.05-17.1 9.06.52 10.72-6.07.49.87-10.97 6.21-9.06-.51-28.79 16.94z"></path><path d="M100.5 351.83a4 4 0 01-2-.48 1.67 1.67 0 01-1-1.42 1.71 1.71 0 011-1.44 4.46 4.46 0 013.95 0 1.54 1.54 0 010 2.86 4 4 0 01-1.95.48zm0-2.82a3 3 0 00-1.49.35c-.3.17-.47.38-.47.57s.17.39.46.55a3.46 3.46 0 003 0c.3-.17.47-.38.47-.57s-.16-.39-.46-.56a3 3 0 00-1.48-.35z" fill="url(#linear-gradient-38)"></path><path fill="url(#linear-gradient-39)" d="M102.55 350.01l-.51-.86 6.11-3.61 10.8-14.03 40.47-23.85.5.86-40.38 23.8-10.8 14.03-6.19 3.66z"></path><path d="M26 290.43a4 4 0 01-2-.48 1.69 1.69 0 01-1-1.42 1.71 1.71 0 011-1.44 4.46 4.46 0 013.95 0 1.54 1.54 0 010 2.86 4 4 0 01-1.95.48zm0-2.82a3.05 3.05 0 00-1.48.35c-.3.17-.47.38-.47.57s.16.39.46.55a3.46 3.46 0 002.95 0c.3-.17.47-.38.47-.57s-.17-.39-.46-.56a3 3 0 00-1.47-.34z" fill="url(#linear-gradient-40)"></path><path fill="url(#linear-gradient-41)" d="M28.02 288.61l-.5-.86 12.93-7.41.15.02 29.36 2.82 23.24-14.29.52.85-23.52 14.47-.17-.01-29.36-2.83-12.65 7.24z"></path><path fill="url(#linear-gradient-42)" d="M222.22 279.72l-.5-.86 24.96-14.48 10.05 5.71 23-13.85.52.86-23.51 14.15-10.05-5.72-24.47 14.19z"></path><path d="M55.27 187.29L49.92 176l-38.73-22.39a1.32 1.32 0 00.36-.88 1.55 1.55 0 00-.88-1.31 4 4 0 00-3.56 0 1.57 1.57 0 00-.89 1.33 1.55 1.55 0 00.88 1.31 3.57 3.57 0 001.77.43 4 4 0 001.41-.25l38.87 22.49L54.5 188 87 207l.5-.87zM7.6 153.19c-.24-.14-.38-.3-.38-.44s.14-.32.39-.46A2.67 2.67 0 018.9 152a2.59 2.59 0 011.27.29c.24.14.38.31.38.45s-.14.32-.39.46a3 3 0 01-2.56-.01z" fill="url(#linear-gradient-43)"></path><path d="M35.85 221.68l-13.52 1.76-11.33-6.5a1.47 1.47 0 00.44-1 1.67 1.67 0 00-1-1.42 4.43 4.43 0 00-3.95 0 1.7 1.7 0 00-1 1.43 1.66 1.66 0 001 1.42 4 4 0 002 .48 4.23 4.23 0 001.58-.29l12 6.84a.54.54 0 00.31.06l13.52-1.76 12.43 7.23.5-.86-12.57-7.32a.52.52 0 00-.41-.07zm-25.8-5.26v.07H10a3.46 3.46 0 01-2.95 0c-.29-.17-.46-.37-.46-.56s.17-.4.47-.57a3.1 3.1 0 011.42-.36 3.12 3.12 0 011.46.34c.29.17.46.38.46.56a.68.68 0 01-.35.52z" fill="url(#linear-gradient-44)"></path><path d="M54 201.74l-4.61-9.05a.48.48 0 00-.19-.21l-11.48-6.58a1.49 1.49 0 00.44-1 1.69 1.69 0 00-1-1.43 4.46 4.46 0 00-4 0 1.73 1.73 0 00-1 1.44 1.69 1.69 0 001 1.42 4 4 0 002 .48 4.4 4.4 0 001.58-.29l11.82 6.76 4.61 9a.48.48 0 00.19.21l13.32 7.82.51-.86zm-20.3-16.28c-.29-.16-.46-.37-.46-.55s.17-.4.47-.57a3.12 3.12 0 011.49-.35 3 3 0 011.46.34c.3.17.46.37.46.56a.68.68 0 01-.34.49v.07h-.05a3.46 3.46 0 01-2.99.01z" fill="url(#linear-gradient-45)"></path><path d="M44.8 203.52L21.49 203 5.2 193.47a1.56 1.56 0 00.68-1.22 1.69 1.69 0 00-1-1.43 4.43 4.43 0 00-3.95 0 1.54 1.54 0 000 2.86 4 4 0 002 .48 4.17 4.17 0 001.19-.16l17 9.92.12.06 23.32.53 21 11.82.49-.88-21.14-11.87zm-43.34-10.7c-.29-.17-.46-.37-.46-.56s.17-.39.47-.56a3 3 0 011.53-.35 3 3 0 011.46.34c.3.17.46.37.46.56s-.17.39-.47.57a3.46 3.46 0 01-2.99 0z" fill="url(#linear-gradient-46)"></path><path d="M50.33 236.83l-.5-.87-16.3 9.41-7.45-4.31a1.63 1.63 0 00.8-1.31 1.72 1.72 0 00-1-1.43 4.43 4.43 0 00-4 0 1.71 1.71 0 00-1 1.43 1.69 1.69 0 001 1.43 4 4 0 002 .48 4.15 4.15 0 001-.12l8.6 5zm-27.87 3.49c-.29-.17-.46-.37-.46-.56s.17-.39.47-.56a3.33 3.33 0 013 0c.3.17.46.37.46.56s-.17.39-.47.57a2.29 2.29 0 01-.35.16h-.06v.05a3.19 3.19 0 01-1 .17 3 3 0 01-1.59-.39z" fill="url(#linear-gradient-47)"></path><path fill="url(#linear-gradient-48)" d="M12.42 301.82v-1l26.63-.09 10.36-5.67.12-.01 24.23-.87 29.97-18.44.52.85-30.19 18.59-24.37.87-10.38 5.68h-.13l-26.76.09z"></path><path d="M5.26 265.14a4 4 0 01-2-.48 1.67 1.67 0 01-1-1.42 1.71 1.71 0 011-1.44 4.46 4.46 0 014 0 1.54 1.54 0 010 2.86 3.93 3.93 0 01-2 .48zm0-2.82a3.07 3.07 0 00-1.49.35c-.3.17-.47.38-.47.57s.17.39.46.55a3.46 3.46 0 003 0c.3-.17.47-.38.47-.57s-.16-.39-.46-.56a3 3 0 00-1.48-.34z" fill="url(#linear-gradient-49)"></path><path fill="url(#linear-gradient-50)" d="M6.67 263.73l-.01-1 20.25-.08 7.89-4.31.12-.01 18.42-.66 9.62-6.02.53.84-9.85 6.17-18.56.67-7.91 4.32h-.13l-20.37.08z"></path><path d="M95.69 370.73a4 4 0 01-2-.48 1.53 1.53 0 010-2.85 4.42 4.42 0 014 0 1.68 1.68 0 011 1.42 1.73 1.73 0 01-1 1.44 4.07 4.07 0 01-2 .47zm0-2.82a3.12 3.12 0 00-1.49.35c-.3.17-.47.38-.47.57s.17.39.46.56a3.48 3.48 0 003 0c.29-.17.47-.38.47-.57s-.17-.39-.46-.56a3.16 3.16 0 00-1.48-.35z" fill="url(#linear-gradient-51)"></path><path fill="url(#linear-gradient-52)" d="M97.74 368.92l-.5-.87 29.04-16.68 1.04-15 40.69-23.99.51.86-40.24 23.72-1.04 15.01-.24.13-29.26 16.82z"></path><path fill="url(#linear-gradient-53)" d="M209.6 228.78l-.51-.85 69.44-41.11 1.04-15 .23-.13 46.58-27.46.5.86-46.35 27.33-1.04 15-69.89 41.36z"></path><path d="M293.3 104.92a4 4 0 01-2-.48 1.73 1.73 0 01-1-1.44 1.7 1.7 0 011-1.42 4.45 4.45 0 014 0 1.71 1.71 0 011 1.44 1.69 1.69 0 01-1 1.42 4 4 0 01-2 .48zm0-2.82a3 3 0 00-1.47.34c-.29.17-.45.37-.46.56s.18.4.48.57a3.5 3.5 0 002.95 0c.29-.17.46-.38.46-.56s-.17-.4-.47-.57a3.12 3.12 0 00-1.52-.34z" fill="url(#linear-gradient-54)"></path><path fill="url(#linear-gradient-55)" d="M194.79 176.03l-.51-.86 69.43-41.1 1.04-15.01.23-.13 26.75-15.63.51.87-26.52 15.49-1.04 15-69.89 41.37z"></path><path d="M143.19 352.39a4 4 0 01-2-.48 1.53 1.53 0 010-2.85 4.4 4.4 0 014 0 1.66 1.66 0 011 1.42 1.71 1.71 0 01-1 1.44 4 4 0 01-2 .47zm0-2.82a3.1 3.1 0 00-1.49.35c-.3.17-.47.38-.47.57s.17.39.46.56a3.46 3.46 0 002.95 0c.3-.17.47-.38.47-.57s-.17-.39-.46-.56a3.09 3.09 0 00-1.43-.35z" fill="url(#linear-gradient-56)"></path><path fill="url(#linear-gradient-57)" d="M145.24 350.57l-.51-.85 25.38-15.28-13.16-7.01 21.48-12.23.49.87-19.9 11.33 13.12 6.98-26.9 16.19z"></path><path d="M173.36 306.34L62.74 242.67C51.23 236 52.67 224.41 66 216.74c13.29-7.68 57.27-7.72 68.78-1.07l110.62 63.67c11.51 6.65-13.79 17.47-27.09 25.14-13.31 7.67-33.44 8.52-44.95 1.86z" style="mix-blend-mode:multiply" fill="url(#linear-gradient-58)"></path><path d="M215.26 173.93L58.9 115.63v116c-.51 3.77 1.49 7.44 6.11 10.1l105.72 61.24c9.16 5.28 25.16 4.62 35.74-1.49 5.59-3.23 8.54-7.33 8.73-11.27h.06z" fill="url(#linear-gradient-59)"></path><ellipse cx="181.13" cy="243.85" rx="14.37" ry="56.67" style="mix-blend-mode:color-dodge" fill="url(#radial-gradient)"></ellipse><path d="M170.73 186.41L65 125.18c-9.16-5.28-8-14.52 2.56-20.63 10.58-6.1 26.57-6.77 35.73-1.48L209 164.3c9.16 5.29 8 14.53-2.56 20.63-10.55 6.07-26.55 6.77-35.71 1.48z" fill="url(#linear-gradient-60)"></path><path d="M207 183.93c-10.58 6.11-26.58 6.77-35.74 1.48L65.51 124.18c-4.67-2.69-6.66-6.41-6.09-10.22-1.93 4.59-.2 9.31 5.42 12.56l105.73 61.23c9.16 5.29 25.15 4.62 35.73-1.48 5.19-3 8.1-6.75 8.65-10.41-1.22 2.88-3.9 5.71-7.95 8.07z" style="mix-blend-mode:color-dodge" fill="url(#radial-gradient-2)"></path><g opacity=".3"><path d="M147.5 32.08c-29.53-17-66.41 4.3-66.41 38.38v58.64c0 4.68 6.51 8.47 14.54 8.47s14.54-3.79 14.54-8.47v-.17h.15V76.66a18.77 18.77 0 0128.12-16.27A46.79 46.79 0 01161.92 101v74.55h.15c.16 4.6 6.6 8.3 14.53 8.3s14.45-3.75 14.53-8.39v-67.87a87.15 87.15 0 00-43.63-75.51z" fill="url(#linear-gradient-61)"></path><path d="M90.1 133V77.46a41.41 41.41 0 0141.35-41.36A40.74 40.74 0 01152 41.68a82.46 82.46 0 0111.71 8.17A83.43 83.43 0 00146 36.18a40.74 40.74 0 00-20.55-5.58A41.41 41.41 0 0084.09 72v58.7c.08 1.76 2.42 3.64 6 4.64z" style="mix-blend-mode:color-dodge" fill="url(#radial-gradient-3)"></path><path d="M171 180.5h-.05V109a50 50 0 00-19.43-39.46 49.9 49.9 0 0113.43 34V175h.05l.1 2.92c.06 1.75 2.41 3.64 6 4.65z" style="mix-blend-mode:color-dodge" fill="url(#radial-gradient-4)"></path><path d="M117.11 46.55a23.83 23.83 0 00-23.8 23.8V131l-.15 5.21c-.11.43 8.14-.24 8.34-1l.15-5.21V69.35a23.84 23.84 0 0116.82-22.75c-.47-.03-.91-.05-1.36-.05z" fill="url(#linear-gradient-62)"></path><path d="M142.5 39.16a38.79 38.79 0 00-19.5-5.31 37.75 37.75 0 00-8.55 1h.22a38.79 38.79 0 0119.55 5.31 82.36 82.36 0 0141.13 71.18v71.76c0 .4 8.32-.31 8.33-1v-71.76a82.37 82.37 0 00-41.18-71.18z" fill="url(#linear-gradient-63)"></path><path d="M102.81 79v56c3.29-1 5.43-2.8 5.53-4.47l.15-3.22V78a21.82 21.82 0 0115.2-20.77A21.83 21.83 0 00102.81 79z" style="mix-blend-mode:screen" fill="url(#linear-gradient-64)" opacity=".5"></path><path d="M147.87 36.34a41.8 41.8 0 00-9.42-4 92.32 92.32 0 0144.81 79v70.24c4-1 6.61-3 6.64-4.85v-67.66a84.17 84.17 0 00-42.03-72.73z" fill="url(#linear-gradient-65)"></path></g><ellipse cx="98.01" cy="118.43" rx="16.91" ry="9.85" style="mix-blend-mode:multiply" fill="url(#linear-gradient-66)"></ellipse><ellipse cx="178.49" cy="164.68" rx="16.43" ry="9.57" style="mix-blend-mode:multiply" fill="url(#linear-gradient-67)"></ellipse><path d="M147.5 31.92C118 14.9 81.09 36.22 81.09 70.29v48.1c0 4.68 6.51 8.47 14.54 8.47s14.54-3.79 14.54-8.47v-.16h.15V76.49a18.77 18.77 0 0128.12-16.27 46.81 46.81 0 0123.49 40.58v64.06h.15c.16 4.6 6.6 8.3 14.53 8.3s14.45-3.75 14.53-8.38v-57.36a87.13 87.13 0 00-43.64-75.5z" fill="url(#linear-gradient-68)"></path><path d="M90.1 122.33v-45a41.41 41.41 0 0141.36-41.35A40.73 40.73 0 01152 41.51a83.28 83.28 0 0111.71 8.17A83.43 83.43 0 00146 36a40.73 40.73 0 00-20.55-5.57 41.41 41.41 0 00-41.36 41.36V120c.08 1.76 2.42 3.64 6 4.64z" style="mix-blend-mode:color-dodge" fill="url(#radial-gradient-5)"></path><path d="M171 169.84h-.05v-61a50 50 0 00-19.43-39.46 49.92 49.92 0 0113.43 34v61h.05l.1 2.91c.06 1.75 2.41 3.64 6 4.65z" style="mix-blend-mode:color-dodge" fill="url(#radial-gradient-6)"></path><path d="M117.11 46.39a23.82 23.82 0 00-23.8 23.79v50.17l-.15 5.21c-.11.44 8.14-.23 8.34-1l.15-5.21V69.18a23.84 23.84 0 0116.82-22.75c-.47-.02-.91-.04-1.36-.04z" fill="url(#linear-gradient-69)"></path><path d="M142.5 39a38.69 38.69 0 00-19.5-5.31 37.74 37.74 0 00-8.55 1h.22a38.69 38.69 0 0119.5 5.31 82.36 82.36 0 0141.13 71.17v61.26c0 .4 8.32-.31 8.33-1v-61.26A82.37 82.37 0 00142.5 39z" fill="url(#linear-gradient-70)"></path><path d="M102.81 78.83v45.53c3.29-1 5.43-2.81 5.53-4.48l.15-3.22V77.83a21.84 21.84 0 0115.2-20.78 21.83 21.83 0 00-20.88 21.78z" style="mix-blend-mode:screen" fill="url(#linear-gradient-71)" opacity=".5"></path><path d="M147.87 36.17a42.26 42.26 0 00-9.42-4 92.32 92.32 0 0144.81 79v59.74c4-.95 6.61-3 6.64-4.85v-57.15a84.17 84.17 0 00-42.03-72.74z" fill="url(#linear-gradient-72)"></path><path d="M131.39 36.1A45.92 45.92 0 01153 41.53a82.05 82.05 0 00-8-5.28 38.69 38.69 0 00-19.55-5.31c-18.93 0-39.36 15-39.36 39.35v.11c5.91-21.47 26.22-34.3 45.3-34.3z" style="mix-blend-mode:screen" fill="url(#linear-gradient-73)"></path><path d="M166.92 102c1.32-11.5-.1-27.84-13.66-42.16-12.67-13.36-27.93-16.83-35.95-4a23.6 23.6 0 0123.61 0 51.91 51.91 0 0126 44.91z" style="mix-blend-mode:screen" fill="url(#linear-gradient-74)"></path><g style="mix-blend-mode:screen"><path class="cls-86" d="M121.26 244.77c-13.26-7.67-24.05-26.24-24.05-41.48a28.12 28.12 0 01.31-4.23L96 197.85a30.72 30.72 0 00-.33 4.53c0 16.21 11.49 36 25.62 44.19a26.19 26.19 0 008.42 3.22l-.53-2a24.42 24.42 0 01-7.92-3.02zM136.44 204.53l1-.79c-4.33-6.57-9.85-12.22-15.85-15.77v1.8a47.79 47.79 0 0114.85 14.76z"></path><path class="cls-87" d="M120.9 189.37v-1.8c-12.33-6.92-22.58-2.6-24.8 9.57l1.54 1.2c2.09-11.42 11.68-15.45 23.26-8.97zM138 204.55l-1 .8c5.1 8 8.34 17.36 8.34 25.71 0 4.89-1.11 8.83-3.05 11.69l1.35 1.67c2.08-3 3.27-7.25 3.27-12.46-.03-8.89-3.49-18.86-8.91-27.41z"></path><path class="cls-88" d="M129.8 247.91l.53 2c5.43.77 10-1 12.93-5l-1.35-1.67c-2.76 3.7-7.02 5.38-12.11 4.67z"></path><path class="cls-87" d="M155.71 232.49c-.78-9.75-3.93-19.34-9.64-29.29l-1.69 1a67.06 67.06 0 019 27.19z"></path><path class="cls-89" d="M149.74 255.5c4.52-4.79 6.65-12.66 6-22.19l-2.38-1.13c.68 10.69-2.39 19.47-9.24 23.37-4 2.29-8.85 2.62-14 1.3l.62 3c7.77 1.97 14.49.44 19-4.35zM99 229.49c-12.43-21.49-12.43-44.7 0-51.79a15.75 15.75 0 014-1.58l-1.38-3.05c-5 1.2-8.53 4.06-11.13 9-6.07 11.44-3.33 30.9 6.83 48.42a80.94 80.94 0 009.45 13.12l1-1.89A75 75 0 0199 229.49z"></path><path class="cls-87" d="M108.4 242.37l-1 1.88c7.4 8.15 14.84 13.19 22.72 15.4l-.62-3c-6.98-1.98-14.45-7-21.1-14.28zM143.89 203.32l1.69-1c-5.72-9.74-13.17-18-21-23.32s-15.77-7.47-22.38-6.09l1.37 3.05c12.32-2.53 29.29 8.61 40.32 27.36z"></path><path class="cls-88" d="M107.76 177.51a25.16 25.16 0 0110.41 2.49l.18 2.54a23.22 23.22 0 00-9.3-2.15 14.8 14.8 0 00-6.78 1.55l-1.64-2.82a15.61 15.61 0 017.13-1.63zm-8.3 2.3l1.64 2.82c-4.42 2.83-7.14 8.24-7.66 15.28S94.54 213 98 221l-1.58.36c-7.91-18.07-6.64-35.43 3-41.58zm20.22.95c8.69 4.46 17.16 13 23.31 23.64a69.4 69.4 0 017.67 19.23l-1.93-.52a63 63 0 00-7.1-17.94c-5.72-9.87-13.64-17.84-21.76-21.9l-.19-2.51zm-20.94 41.9c.86 1.84 1.8 3.64 2.8 5.37 8.59 14.82 21.69 24.77 32.59 24.77a14.12 14.12 0 0012.63-7.15l2.05 2.28a14.81 14.81 0 01-13.39 7.77c-5.56 0-12-2.58-18.27-7.25a66 66 0 01-17-19.65c-1.08-1.86-2.1-3.81-3-5.78l1.57-.36zm50.35 2.19l1.93.52c1.59 8.3 1 15.81-1.53 21.26l-2-2.27c2.45-5 3-11.9 1.64-19.51zm-41.33-47.73a15.76 15.76 0 00-7.66 1.88l2 3.49a14.35 14.35 0 016.93-1.68 23.38 23.38 0 019.74 2.38l-.25-3.42a26 26 0 00-10.78-2.64zm-8.17 2.16c-10.36 6.2-11.49 24.27-3.38 42.56l2.34-.53c-7.33-16.56-6.3-32.91 3.07-38.55l-2-3.48zm19.66.83l.25 3.41c7.81 3.85 15.83 11.55 21.8 21.84a62.84 62.84 0 017.11 18.06l2.76.74a68.93 68.93 0 00-7.85-19.95c-6.59-11.36-15.44-19.86-24.07-24.1zM99 222.22l-2.34.53c1 2.08 2 4.17 3.23 6.24 9.61 16.57 24.05 27.1 35.57 27.1a15.21 15.21 0 0013.86-8.21l-2.63-2.88a13.77 13.77 0 01-12.56 7.42c-10.45 0-23.54-9.54-32.26-24.57a65.298 65.298 0 01-2.91-5.62zm49.63 2.1c1.53 7.85 1 15-1.6 20.11l2.59 2.88c2.88-5.67 3.48-13.56 1.77-22.25l-2.76-.74zM106.17 170.23l-4-11.25c-.62 0-1.27-.07-1.88 0l3.94 11.26c.62-.07 1.28-.04 1.94-.01zm-20.08 18.16l-8.65-6.51c-.13.71-.23 1.45-.32 2.19l8.64 6.61c.09-.78.24-1.55.33-2.29zm23.58-17.79l-3.18-11.19c-.66-.11-1.32-.24-2-.31l3.08 11.18c.71.06 1.43.2 2.1.32zm16.48 7.53a53.4 53.4 0 012.17 1.63l1.32-9.17c-.69-.53-1.38-1-2.07-1.55zm-3.77-2.5c.74.44 1.47.91 2.19 1.39l.41-9.79c-.69-.46-1.39-.9-2.09-1.33zm-4.18-12.32l.4 10.27c.73.35 1.46.73 2.19 1.13l-.51-10.31c-.7-.4-1.39-.75-2.08-1.09zm-28.31 15.05l-7.84-9c-.33.51-.6 1.1-.9 1.64l7.77 9.1c.32-.62.62-1.21.97-1.74zm44.32-3.9c-.67-.6-1.35-1.18-2-1.76l-2.32 8.35c.72.6 1.43 1.21 2.12 1.85zm-46 6.86l-8.19-8.27c-.26.58-.48 1.22-.71 1.84l8.15 8.36c.27-.66.54-1.32.78-1.93zm14.61-10.95L98 159.19c-.59.08-1.19.13-1.77.25l4.77 11.21a18.3 18.3 0 011.85-.28zM87 184.68l-8.46-7.43c-.2.65-.36 1.34-.52 2l8.44 7.53c.14-.7.31-1.42.54-2.1zM99.72 171l-5.55-11c-.55.17-1.1.33-1.63.54l5.47 11c.56-.18 1.13-.36 1.71-.54zm-5.5 2.76l-6.85-10.24c-.45.35-.87.74-1.3 1.12l6.78 10.28a15 15 0 011.37-1.16zm-2.33 2.08l-7.38-9.7c-.39.43-.74.93-1.11 1.4l7.32 9.74c.38-.5.76-1 1.17-1.44zm21.65-14.54l1.31 10.7c.72.25 1.44.55 2.17.87l-1.42-10.73a38.8 38.8 0 00-2.06-.84zm34.35 42.09l6.11-3.59q-.72-1.29-1.47-2.55l-6.23 3.47c.57.88 1.08 1.77 1.59 2.67zm7.79 19.23l8.16 1c-.24-.89-.46-1.77-.72-2.66l-8.19-1.19c.28.99.51 1.92.75 2.85zm1.06 4.78l8.44 2.21c-.16-.87-.32-1.74-.52-2.62l-8.46-2.34c.21.92.38 1.83.54 2.75zm.68 4.65l8.63 3.36c-.09-.85-.19-1.7-.32-2.55l-8.64-3.48c.13.89.23 1.79.33 2.67zm-11.08 29l6.23 10.67q.75-.39 1.47-.84l-6.15-10.71a17.08 17.08 0 01-1.55.9zm-51-31.25l-6.16 3.6c.48.85 1 1.7 1.48 2.55l6.23-3.47c-.59-.87-1.1-1.76-1.6-2.66zm1.55-57.68l-6.23-10.67c-.51.27-1 .55-1.48.85l6.11 10.7a16.76 16.76 0 011.55-.86zm45.34 22.28l4.73-5.74c-.57-.78-1.18-1.53-1.77-2.29l-4.86 5.63c.67.8 1.25 1.6 1.85 2.42zm3 4.39l5.48-4.69c-.54-.83-1.09-1.63-1.64-2.44l-5.55 4.57c.48.87 1.08 1.71 1.64 2.58zm-9.6-12.4l3.09-7.61c-.64-.67-1.31-1.31-2-2l-3.19 7.52c.66.7 1.36 1.4 2.03 2.11zm3.41 3.86l3.93-6.72c-.61-.73-1.25-1.42-1.88-2.13L137 188c.66.77 1.33 1.5 2 2.27zm13.49 22.65l7.31-1.29c-.37-.89-.71-1.79-1.11-2.68l-7.38 1.17c.35.95.72 1.9 1.11 2.82zm-2.13-4.81l6.77-2.46c-.43-.88-.85-1.76-1.3-2.62l-6.87 2.35c.43.91.88 1.83 1.33 2.75zm3.92 9.67l7.78-.12c-.31-.9-.58-1.8-.91-2.69h-7.84c.28.95.59 1.89.9 2.83zM109 159.89l2.22 11c.69.16 1.41.38 2.12.6l-2.31-11c-.72-.23-1.4-.44-2.03-.6zm13.42 98.61l.51 10.32c.7.38 1.4.74 2.09 1.08l-.41-10.26a39 39 0 01-2.23-1.14zm26.58 1l6.84 10.23c.45-.34.87-.73 1.3-1.12l-6.77-10.28c-.49.37-.94.77-1.37 1.13zm-12 3.5l4 11.25c.63 0 1.27.07 1.88 0L139 263h-2zm6.45-.77l5.55 11c.55-.17 1.11-.34 1.64-.55l-5.48-11a17.26 17.26 0 01-1.71.53zm-17.3-1.85l1.42 10.72c.69.3 1.39.58 2.07.84l-1.32-10.69c-.72-.25-1.44-.58-2.17-.89zm3.72 1.37l2.32 11c.67.21 1.35.42 2 .58l-2.22-11c-.67-.16-1.38-.33-2.1-.6zm3.63.88l3.19 11.2c.65.11 1.32.24 2 .31l-3.09-11.18c-.71-.09-1.41-.23-2.1-.35zm6.83.24l4.81 11.13c.59-.08 1.2-.13 1.77-.25l-4.73-11.2c-.6.15-1.18.22-1.85.3zm17.25-22l8.74 5.52c.06-.77.09-1.55.11-2.34l-8.73-5.62c-.02.77-.06 1.57-.12 2.38zm-.49 4l8.64 6.5c.13-.71.23-1.44.32-2.18l-8.63-6.62c-.1.74-.2 1.51-.33 2.26zm-5.81 12.54l7.38 9.7c.4-.43.74-.92 1.11-1.39l-7.31-9.75c-.39.46-.76.96-1.18 1.4zm6.41-20.83l8.74 4.46c0-.81-.05-1.63-.11-2.46l-8.74-4.58c.06.83.1 1.69.11 2.54zm-1.49 12l8.46 7.43c.2-.65.36-1.34.52-2l-8.44-7.53c-.16.65-.33 1.37-.54 2.05zm-2.92 6.32l7.84 9c.33-.51.6-1.09.91-1.64l-7.78-9.1c-.31.57-.62 1.16-.97 1.69zm1.65-3l8.19 8.27c.26-.58.48-1.22.72-1.83l-8.16-8.34c-.24.62-.47 1.28-.75 1.89zM101 238.79l-4.74 5.74c.58.79 1.18 1.53 1.77 2.3l4.82-5.62c-.63-.8-1.25-1.59-1.85-2.42zm-12.08-23.36l-7.77.13c.3.89.57 1.79.9 2.68h7.84c-.35-.93-.65-1.87-.97-2.81zm1.8 4.86l-7.32 1.3c.37.89.72 1.78 1.11 2.67l7.38-1.17c-.41-.93-.79-1.86-1.17-2.8zm-3.23-9.7l-8.15-1.05c.23.89.45 1.78.71 2.67l8.19 1.18c-.24-.93-.51-1.86-.75-2.8zm-1.73-9.43l-8.64-3.36c.09.85.19 1.7.32 2.55l8.65 3.49c-.09-.9-.24-1.79-.33-2.68zm.67 4.66L78 203.6c.16.87.32 1.75.52 2.62l8.48 2.35c-.23-.92-.4-1.84-.57-2.75zM118.2 266c.69.46 1.38.9 2.08 1.33l.51-9.73c-.73-.44-1.46-.9-2.19-1.39zm-25.35-40.9l-6.78 2.46c.43.88.85 1.76 1.3 2.63l6.85-2.33c-.48-.92-.93-1.86-1.37-2.76zm-7.37-28.43l-8.74-4.46c0 .82.06 1.64.11 2.46l8.74 4.58c-.06-.87-.1-1.73-.11-2.58zM98 234.4l-5.47 4.69c.53.83 1.08 1.63 1.63 2.44l5.56-4.53c-.58-.88-1.15-1.73-1.72-2.6zm11 24.35c.67.61 1.35 1.18 2 1.76l2.31-8.34c-.71-.61-1.43-1.22-2.12-1.86zm4.58 3.87c.68.54 1.37 1.05 2.06 1.55l1.42-9.09a53.4 53.4 0 01-2.17-1.63zm-5.93-15.82l-3.08 7.62c.64.67 1.3 1.3 2 2l3.18-7.52c-.75-.72-1.47-1.39-2.14-2.1zm-3.4-3.86l-3.94 6.72c.61.74 1.26 1.42 1.88 2.13l4-6.6c-.68-.74-1.34-1.48-1.98-2.25zM85.59 192.4l-8.74-5.51c0 .76-.09 1.54-.11 2.33l8.74 5.63c.01-.85.05-1.65.11-2.45z"></path><path class="cls-89" d="M126.15 178.13a53.4 53.4 0 012.17 1.63l1.32-9.17c-.69-.53-1.38-1-2.07-1.55zm-23.3-7.76L98 159.19c-.59.08-1.19.13-1.77.25l4.77 11.21a18.3 18.3 0 011.85-.28zM87 184.68l-8.46-7.43c-.2.65-.36 1.34-.52 2l8.44 7.53c.14-.7.31-1.42.54-2.1zm4.92-8.84l-7.38-9.7c-.39.43-.74.93-1.11 1.4l7.32 9.74c.35-.5.73-1 1.14-1.44zm21.65-14.54l1.28 10.7c.72.25 1.44.55 2.17.87l-1.42-10.73a38.8 38.8 0 00-2.06-.84zm43.2 66.1l8.44 2.21c-.16-.87-.32-1.74-.52-2.62l-8.46-2.34c.18.92.35 1.83.51 2.75zm-11.58-28.59l5.48-4.69c-.54-.83-1.09-1.63-1.64-2.44l-5.55 4.57c.52.85 1.12 1.69 1.68 2.56zm-9.6-12.4l3.09-7.61c-.64-.67-1.31-1.31-2-2l-3.19 7.52c.7.68 1.4 1.38 2.07 2.09zm14.77 21.7l6.77-2.46c-.43-.88-.85-1.76-1.3-2.62l-6.83 2.33c.43.91.88 1.83 1.33 2.75zm-20.46 53.62l2.32 11c.67.21 1.35.42 2 .58l-2.22-11c-.7-.14-1.41-.31-2.13-.58zm10.46 1.12l4.78 11.15c.59-.08 1.2-.13 1.77-.25l-4.73-11.2c-.6.15-1.18.22-1.85.3zm17.25-22l8.74 5.52c.06-.77.09-1.55.11-2.34l-8.73-5.62c-.05.79-.09 1.59-.15 2.4zm-6.3 16.56l7.38 9.7c.4-.43.74-.92 1.11-1.39l-7.31-9.75c-.42.46-.79.96-1.21 1.4zm3.65-5.48l8.19 8.27c.26-.58.48-1.22.72-1.83l-8.19-8.37c-.24.62-.47 1.28-.75 1.89zm-67.44-41.3l-8.15-1.05c.23.89.45 1.78.71 2.67l8.19 1.18c-.27-.97-.54-1.9-.78-2.84zM118.2 266c.69.46 1.38.9 2.08 1.33l.51-9.73c-.73-.44-1.46-.9-2.19-1.39zm-25.35-40.9l-6.78 2.46c.43.88.85 1.76 1.3 2.63l6.85-2.33c-.48-.92-.93-1.86-1.37-2.76zm14.76 21.7l-3.08 7.62c.64.67 1.3 1.3 2 2l3.18-7.52c-.71-.72-1.43-1.39-2.1-2.1zm-22-54.4l-8.74-5.51c0 .76-.09 1.54-.11 2.33l8.74 5.63c-.01-.85.03-1.65.09-2.45z"></path></g><ellipse cx="120.55" cy="217.7" rx="17.61" ry="30.51" transform="rotate(-30.31 120.556 217.701)" style="mix-blend-mode:screen" fill="#eca30a"></ellipse><path d="M139.93 230.25c0 6.43-2.22 11-5.83 13.19l-4.25 2.61c-3.75 2.1-1.35-2.66-7-6-11.52-6.57-20.85-22.6-20.85-35.76 0-6.51-6-6.56-2.33-8.73l5-2.72c3.74-2 8.86-1.65 14.5 1.6 11.46 6.62 20.76 22.66 20.76 35.81z" fill="url(#linear-gradient-75)"></path><ellipse cx="114.39" cy="221.05" rx="16.9" ry="29.27" transform="rotate(-30.31 114.399 221.047)" fill="url(#linear-gradient-76)"></ellipse><path d="M115.38 196.73c-5.49-3.18-10.49-3.61-14.2-1.75 3.46-1 7.76-.24 12.41 2.44 11.47 6.62 20.76 22.66 20.76 35.81 0 6.85-2.52 11.57-6.55 13.58 5.06-1.41 8.35-6.46 8.35-14.27 0-13.16-9.3-29.19-20.77-35.81z" style="mix-blend-mode:color-dodge" fill="url(#radial-gradient-7)"></path><g style="mix-blend-mode:multiply"><path class="cls-95" d="M124.12 208.33l-1.9 2.21c.21.26.41.52.61.79l1.86-2.27-.47-.61zM122.93 206.82c-.15-.18-.31-.35-.46-.52l-.14-.15-1.59 2.61.08.08.55.63zM122.59 246.73h.31l-1.62-4.64h-.5l1.65 4.62zM121.06 204.74c-.18-.19-.37-.37-.55-.54l-.06-.07-1.26 3 .11.11.53.53zM126.32 246.09l-2.27-4.56-.42.15 2.29 4.54zM124.33 246.6h.34l-2-4.62-.46.07 2 4.61zM125.8 210.65l-2.19 1.8c.19.28.38.55.56.84l2.16-1.85-.52-.78zM120.66 246.57l.36.06-1.26-4.58-.54-.08 1.31 4.58zM129.84 231.34v.69l3.53 2.22v-.64zM114.46 244.39l.57.3-.16-4.14-.62-.32zM114.45 199.3l-.21 3.91c.22.12.43.26.64.39l.16-3.92zM119.07 246.25l-.9-4.48-.56-.16.94 4.49zM118.5 202.31l-.93 3.32.65.56.88-3.35zM124.9 214.45l.51.88 2.42-1.41-.48-.83zM117.07 245.6l-.54-4.34c-.18-.06-.38-.14-.59-.23l.58 4.35zM116.49 200.69l-.57 3.64c.22.15.43.31.64.48l.53-3.66zM129.25 225.21c.05.28.11.56.16.84l3.36.88c-.05-.26-.1-.52-.16-.79zM127.83 245.36l-2.55-4.44-.38.22 2.58 4.42zM132.67 238.5c0-.17.08-.35.13-.52l-3.44-3.07c-.05.2-.09.38-.15.56zM132.19 239.9l-3.33-3.42c-.07.16-.13.33-.2.5l3.36 3.39c0-.12.09-.24.13-.37zM129.85 230.12l3.51 1.79v-.69l-3.51-1.84zM133.08 228.72l-3.46-1.39c0 .24.06.49.09.79l3.46 1.34zM129.6 233.82l3.51 2.64c0-.19 0-.39.08-.58l-3.5-2.68c-.03.23-.06.43-.09.62zM131.94 223.51l-3.24-.51.21.81v.07l3.23.41v-.05c-.06-.24-.14-.47-.2-.73zM129.19 244.36l-2.8-4.26-.34.29 2.83 4.24zM128.76 215.62l-2.7.92.45.9 2.67-1zM130.32 243.18l.06-.07-3-4-.29.37 3 4a2.47 2.47 0 00.23-.3zM130 218.22l-2.91.46c.13.31.26.61.38.91l2.89-.51-.06-.13c-.1-.25-.19-.49-.3-.73zM131.07 220.86H128c.1.27.19.54.28.81v.09h3.07l-.06-.19c-.07-.27-.14-.49-.22-.71zM131.17 242l.14-.25.07-.16-3.19-3.74c-.08.15-.16.29-.25.43zM98.19 217.62c-.06-.28-.12-.56-.17-.84l-3.36-.88c0 .26.1.52.16.78zM96.36 222h3.1l-.27-.78v-.12l-3.07.05.06.2c.03.19.1.4.18.65zM96.05 201.21l3.19 3.79c.08-.15.16-.3.25-.44l-3.23-3.72-.13.26a1.09 1.09 0 00-.08.11zM97.12 199.63l-.07.09 3 4c.1-.12.19-.24.3-.36l-3.05-4zM98.24 198.47l2.8 4.25.34-.29-2.83-4.23zM101.37 226.29l-.45-.9-2.67 1 .43.86zM95.49 219.31l3.24.47-.21-.8v-.07l-3.23-.42c.06.31.12.57.2.82zM97.43 224.61l2.91-.46c-.13-.31-.26-.61-.38-.92l-2.89.52.08.17c.09.23.18.46.28.69zM113 243.53l.21-3.91-.63-.4-.17 3.93zM97.59 211.48v-.68l-3.53-2.22v.63zM94.1 211.61l3.51 1.84v-.74l-3.51-1.79zM94.36 214.11l3.45 1.39c0-.27-.07-.53-.09-.79l-3.46-1.35c.03.25.06.5.1.75zM97.83 209l-3.51-2.64c0 .19 0 .39-.08.58l3.5 2.68c.03-.18.06-.39.09-.62zM95.24 202.93l3.33 3.42c.07-.17.13-.34.2-.5l-3.36-3.39-.13.36zM99.6 197.47l2.55 4.44.38-.22-2.53-4.42zM94.76 204.33c0 .17-.08.34-.13.52l3.44 3.07c.05-.19.09-.38.15-.56zM106.78 196.26l-.37-.06 1.26 4.57.54.09-1.31-4.58zM108.94 240.52l.92-3.33-.65-.56-.88 3.36zM106.38 238.09q.25.27.54.54l.06.06 1.26-3-.09-.09-.55-.55zM108.36 196.58l.9 4.48a5.15 5.15 0 01.56.16l-.94-4.49zM110.36 197.23l.54 4.33.59.24-.58-4.35zM102.54 228.37c-.18-.29-.35-.58-.51-.88l-2.43 1.42.48.83zM110.94 242.14l.57-3.64c-.22-.16-.43-.31-.64-.48l-.53 3.66zM112.4 198.14l.17 4.14.61.32-.21-4.16zM101.63 232.18l2.19-1.8c-.19-.28-.38-.56-.56-.84l-2.16 1.85.52.78zM101.11 196.74l2.27 4.56.42-.15-2.29-4.54zM103.09 196.23h-.33l2 4.63.46-.07-2-4.61zM104.5 236l.47.53.13.14 1.59-2.61V234c-.2-.22-.39-.43-.58-.66zM104.84 196.1h-.31l1.62 4.63h.51l-1.66-4.62zM103.31 234.5l1.9-2.22c-.2-.25-.41-.51-.6-.78l-1.87 2.26c.15.21.31.4.46.6z"></path></g><path d="M124.38 229.74c0 3.84-1.32 6.55-3.47 7.87-.06 0-7.81 2-7.87 2.06-2 1.07-.73-1.37-3.79-3.06-6.15-3.4-11.14-11.63-11.14-18.38 0-3.34-3.23-3.37-1.25-4.48l6.43-6.29c2.3-1.24 5.35-1 8.71.92 6.84 3.95 12.38 13.52 12.38 21.36z" fill="url(#linear-gradient-77)"></path><ellipse cx="104.74" cy="226.83" rx="8.96" ry="15.21" transform="rotate(-32.63 104.726 226.83)" fill="url(#linear-gradient-78)"></ellipse><path d="M105.24 214.31c-3-1.63-5.67-1.86-7.67-.9a9.19 9.19 0 016.7 1.26c6.19 3.42 11.2 11.69 11.2 18.48 0 3.54-1.36 6-3.54 7 2.74-.73 4.51-3.34 4.51-7.37 0-6.78-5.02-15.05-11.2-18.47z" style="mix-blend-mode:color-dodge" fill="url(#radial-gradient-8)"></path><path fill="#25054d" d="M115.44 211.25l7.72-5.14-4.02 9.07-3.7-3.93z"></path><ellipse cx="128.24" cy="209.63" rx="28.95" ry="21.4" transform="rotate(-40.98 128.237 209.632)" style="mix-blend-mode:color-dodge" fill="url(#radial-gradient-9)"></ellipse></g></g></svg> 