<?xml version="1.0" encoding="UTF-8"?> <svg xmlns="http://www.w3.org/2000/svg" xmlns:xlink="http://www.w3.org/1999/xlink" viewBox="0 0 246.38 244.23"><defs><radialGradient id="Áåçûìÿííûé_ãðàäèåíò_346" cx="94.67" cy="92.27" r="100.03" gradientUnits="userSpaceOnUse"><stop offset="0" stop-color="#01c8ef"></stop><stop offset=".14" stop-color="#03bae4"></stop><stop offset=".4" stop-color="#0895c8"></stop><stop offset=".76" stop-color="#115a9a"></stop><stop offset="1" stop-color="#172f78"></stop></radialGradient><radialGradient id="Áåçûìÿííûé_ãðàäèåíò_346-2" cx="94.67" cy="68.48" r="100.03" xlink:href="#Áåçûìÿííûé_ãðàäèåíò_346"></radialGradient><radialGradient id="Áåçûìÿííûé_ãðàäèåíò_346-3" cx="94.67" cy="44.7" r="100.03" xlink:href="#Áåçûìÿííûé_ãðàäèåíò_346"></radialGradient><radialGradient id="Áåçûìÿííûé_ãðàäèåíò_346-4" cx="103.5" cy="50.73" r="68.78" xlink:href="#Áåçûìÿííûé_ãðàäèåíò_346"></radialGradient><radialGradient id="Áåçûìÿííûé_ãðàäèåíò_346-5" cx="94.67" cy="21.36" r="100.03" xlink:href="#Áåçûìÿííûé_ãðàäèåíò_346"></radialGradient><radialGradient id="Áåçûìÿííûé_ãðàäèåíò_346-6" cx="94.67" cy="-2.42" r="100.03" xlink:href="#Áåçûìÿííûé_ãðàäèåíò_346"></radialGradient><radialGradient id="Áåçûìÿííûé_ãðàäèåíò_346-7" cx="103.5" cy="3.6" r="68.78" xlink:href="#Áåçûìÿííûé_ãðàäèåíò_346"></radialGradient><radialGradient id="Áåçûìÿííûé_ãðàäèåíò_346-8" cx="171.1" cy="137.05" r="100.03" xlink:href="#Áåçûìÿííûé_ãðàäèåíò_346"></radialGradient><radialGradient id="Áåçûìÿííûé_ãðàäèåíò_346-9" cx="171.1" cy="113.27" r="100.03" xlink:href="#Áåçûìÿííûé_ãðàäèåíò_346"></radialGradient><radialGradient id="Áåçûìÿííûé_ãðàäèåíò_346-10" cx="171.1" cy="89.48" r="100.03" xlink:href="#Áåçûìÿííûé_ãðàäèåíò_346"></radialGradient><radialGradient id="Áåçûìÿííûé_ãðàäèåíò_346-11" cx="179.93" cy="95.51" r="68.78" xlink:href="#Áåçûìÿííûé_ãðàäèåíò_346"></radialGradient><radialGradient id="Áåçûìÿííûé_ãðàäèåíò_346-12" cx="171.1" cy="66.15" r="100.03" xlink:href="#Áåçûìÿííûé_ãðàäèåíò_346"></radialGradient><radialGradient id="Áåçûìÿííûé_ãðàäèåíò_346-13" cx="171.1" cy="42.36" r="100.03" xlink:href="#Áåçûìÿííûé_ãðàäèåíò_346"></radialGradient><radialGradient id="Áåçûìÿííûé_ãðàäèåíò_346-14" cx="179.93" cy="48.39" r="68.78" xlink:href="#Áåçûìÿííûé_ãðàäèåíò_346"></radialGradient><radialGradient id="Áåçûìÿííûé_ãðàäèåíò_346-15" cx="94.74" cy="183.66" r="100.03" xlink:href="#Áåçûìÿííûé_ãðàäèåíò_346"></radialGradient><radialGradient id="Áåçûìÿííûé_ãðàäèåíò_346-16" cx="94.74" cy="159.88" r="100.03" xlink:href="#Áåçûìÿííûé_ãðàäèåíò_346"></radialGradient><radialGradient id="Áåçûìÿííûé_ãðàäèåíò_346-17" cx="94.74" cy="136.09" r="100.03" xlink:href="#Áåçûìÿííûé_ãðàäèåíò_346"></radialGradient><radialGradient id="Áåçûìÿííûé_ãðàäèåíò_346-18" cx="103.57" cy="142.12" r="68.78" xlink:href="#Áåçûìÿííûé_ãðàäèåíò_346"></radialGradient><radialGradient id="Áåçûìÿííûé_ãðàäèåíò_346-19" cx="94.74" cy="112.76" r="100.03" xlink:href="#Áåçûìÿííûé_ãðàäèåíò_346"></radialGradient><radialGradient id="Áåçûìÿííûé_ãðàäèåíò_346-20" cx="94.74" cy="88.97" r="100.03" xlink:href="#Áåçûìÿííûé_ãðàäèåíò_346"></radialGradient><radialGradient id="Áåçûìÿííûé_ãðàäèåíò_346-21" cx="103.57" cy="95" r="68.78" xlink:href="#Áåçûìÿííûé_ãðàäèåíò_346"></radialGradient><radialGradient id="Áåçûìÿííûé_ãðàäèåíò_346-22" cx="18.25" cy="137.05" r="100.03" xlink:href="#Áåçûìÿííûé_ãðàäèåíò_346"></radialGradient><radialGradient id="Áåçûìÿííûé_ãðàäèåíò_346-23" cx="18.25" cy="113.27" r="100.03" xlink:href="#Áåçûìÿííûé_ãðàäèåíò_346"></radialGradient><radialGradient id="Áåçûìÿííûé_ãðàäèåíò_346-24" cx="18.25" cy="89.48" r="100.03" xlink:href="#Áåçûìÿííûé_ãðàäèåíò_346"></radialGradient><radialGradient id="Áåçûìÿííûé_ãðàäèåíò_346-25" cx="27.08" cy="95.51" r="68.78" xlink:href="#Áåçûìÿííûé_ãðàäèåíò_346"></radialGradient><radialGradient id="Áåçûìÿííûé_ãðàäèåíò_346-26" cx="18.25" cy="66.15" r="100.03" xlink:href="#Áåçûìÿííûé_ãðàäèåíò_346"></radialGradient><radialGradient id="Áåçûìÿííûé_ãðàäèåíò_346-27" cx="18.25" cy="42.36" r="100.03" xlink:href="#Áåçûìÿííûé_ãðàäèåíò_346"></radialGradient><radialGradient id="Áåçûìÿííûé_ãðàäèåíò_346-28" cx="27.08" cy="48.39" r="68.78" xlink:href="#Áåçûìÿííûé_ãðàäèåíò_346"></radialGradient><radialGradient id="Áåçûìÿííûé_ãðàäèåíò_346-29" cx="38.75" cy="11.72" r="45.63" xlink:href="#Áåçûìÿííûé_ãðàäèåíò_346"></radialGradient><linearGradient id="Áåçûìÿííûé_ãðàäèåíò_17" x1="111.86" y1="192.58" x2="111.86" y2="129.17" gradientUnits="userSpaceOnUse"><stop offset="0" stop-color="#020230"></stop><stop offset=".19" stop-color="#020533"></stop><stop offset=".33" stop-color="#020f3c"></stop><stop offset=".47" stop-color="#021f4c"></stop><stop offset=".59" stop-color="#023663"></stop><stop offset=".7" stop-color="#02547f"></stop><stop offset=".82" stop-color="#0179a3"></stop><stop offset=".92" stop-color="#01a4cc"></stop><stop offset="1" stop-color="#01c8ef"></stop></linearGradient><linearGradient id="Áåçûìÿííûé_ãðàäèåíò_17-2" x1="164.54" y1="192.58" x2="164.54" y2="129.17" xlink:href="#Áåçûìÿííûé_ãðàäèåíò_17"></linearGradient><linearGradient id="Áåçûìÿííûé_ãðàäèåíò_17-3" x1="138.2" y1="192.79" x2="138.2" y2="129.37" xlink:href="#Áåçûìÿííûé_ãðàäèåíò_17"></linearGradient><linearGradient id="Áåçûìÿííûé_ãðàäèåíò_354" x1="102.62" y1="125.86" x2="147.41" y2="125.86" gradientUnits="userSpaceOnUse"><stop offset="0" stop-color="#01c8ef"></stop><stop offset=".13" stop-color="#04b1dd"></stop><stop offset=".55" stop-color="#0e6ba7"></stop><stop offset=".85" stop-color="#154085"></stop><stop offset="1" stop-color="#172f78"></stop></linearGradient><linearGradient id="Áåçûìÿííûé_ãðàäèåíò_354-2" x1="102.62" y1="102.07" x2="147.41" y2="102.07" xlink:href="#Áåçûìÿííûé_ãðàäèåíò_354"></linearGradient><linearGradient id="Áåçûìÿííûé_ãðàäèåíò_354-3" x1="102.62" y1="78.29" x2="147.41" y2="78.29" xlink:href="#Áåçûìÿííûé_ãðàäèåíò_354"></linearGradient><linearGradient id="Áåçûìÿííûé_ãðàäèåíò_354-4" x1="102.62" y1="54.95" x2="147.41" y2="54.95" xlink:href="#Áåçûìÿííûé_ãðàäèåíò_354"></linearGradient><linearGradient id="Áåçûìÿííûé_ãðàäèåíò_354-5" x1="102.62" y1="31.16" x2="147.41" y2="31.16" xlink:href="#Áåçûìÿííûé_ãðàäèåíò_354"></linearGradient><linearGradient id="Áåçûìÿííûé_ãðàäèåíò_354-6" x1="179.04" y1="170.64" x2="223.84" y2="170.64" xlink:href="#Áåçûìÿííûé_ãðàäèåíò_354"></linearGradient><linearGradient id="Áåçûìÿííûé_ãðàäèåíò_354-7" x1="179.04" y1="146.86" x2="223.84" y2="146.86" xlink:href="#Áåçûìÿííûé_ãðàäèåíò_354"></linearGradient><linearGradient id="Áåçûìÿííûé_ãðàäèåíò_354-8" x1="179.04" y1="123.07" x2="223.84" y2="123.07" xlink:href="#Áåçûìÿííûé_ãðàäèåíò_354"></linearGradient><linearGradient id="Áåçûìÿííûé_ãðàäèåíò_354-9" x1="179.04" y1="99.74" x2="223.84" y2="99.74" xlink:href="#Áåçûìÿííûé_ãðàäèåíò_354"></linearGradient><linearGradient id="Áåçûìÿííûé_ãðàäèåíò_354-10" x1="179.04" y1="75.95" x2="223.84" y2="75.95" xlink:href="#Áåçûìÿííûé_ãðàäèåíò_354"></linearGradient><linearGradient id="Áåçûìÿííûé_ãðàäèåíò_354-11" x1="102.68" y1="217.25" x2="147.48" y2="217.25" xlink:href="#Áåçûìÿííûé_ãðàäèåíò_354"></linearGradient><linearGradient id="Áåçûìÿííûé_ãðàäèåíò_354-12" x1="102.68" y1="193.47" x2="147.48" y2="193.47" xlink:href="#Áåçûìÿííûé_ãðàäèåíò_354"></linearGradient><linearGradient id="Áåçûìÿííûé_ãðàäèåíò_354-13" x1="102.68" y1="169.68" x2="147.48" y2="169.68" xlink:href="#Áåçûìÿííûé_ãðàäèåíò_354"></linearGradient><linearGradient id="Áåçûìÿííûé_ãðàäèåíò_354-14" x1="102.68" y1="146.35" x2="147.48" y2="146.35" xlink:href="#Áåçûìÿííûé_ãðàäèåíò_354"></linearGradient><linearGradient id="Áåçûìÿííûé_ãðàäèåíò_354-15" x1="102.68" y1="122.56" x2="147.48" y2="122.56" xlink:href="#Áåçûìÿííûé_ãðàäèåíò_354"></linearGradient><linearGradient id="Áåçûìÿííûé_ãðàäèåíò_354-16" x1="26.19" y1="170.64" x2="70.99" y2="170.64" xlink:href="#Áåçûìÿííûé_ãðàäèåíò_354"></linearGradient><linearGradient id="Áåçûìÿííûé_ãðàäèåíò_354-17" x1="26.19" y1="146.86" x2="70.99" y2="146.86" xlink:href="#Áåçûìÿííûé_ãðàäèåíò_354"></linearGradient><linearGradient id="Áåçûìÿííûé_ãðàäèåíò_354-18" x1="26.19" y1="123.07" x2="70.99" y2="123.07" xlink:href="#Áåçûìÿííûé_ãðàäèåíò_354"></linearGradient><linearGradient id="Áåçûìÿííûé_ãðàäèåíò_354-19" x1="26.19" y1="99.74" x2="70.99" y2="99.74" xlink:href="#Áåçûìÿííûé_ãðàäèåíò_354"></linearGradient><linearGradient id="Áåçûìÿííûé_ãðàäèåíò_354-20" x1="26.19" y1="75.95" x2="70.99" y2="75.95" xlink:href="#Áåçûìÿííûé_ãðàäèåíò_354"></linearGradient><linearGradient id="Áåçûìÿííûé_ãðàäèåíò_57" x1="1689.99" y1="-142.56" x2="1689.99" y2="-205.14" gradientTransform="matrix(1.34 -2.31 1.23 .71 -1840.35 4194.99)" gradientUnits="userSpaceOnUse"><stop offset="0" stop-color="#020230"></stop><stop offset=".17" stop-color="#050533"></stop><stop offset=".3" stop-color="#0f0f3a"></stop><stop offset=".42" stop-color="#1f1f48"></stop><stop offset=".53" stop-color="#36365b"></stop><stop offset=".64" stop-color="#545473"></stop><stop offset=".74" stop-color="#797991"></stop><stop offset=".84" stop-color="#a5a5b5"></stop><stop offset=".93" stop-color="#d6d6de"></stop><stop offset="1" stop-color="#fff"></stop></linearGradient><linearGradient id="Áåçûìÿííûé_ãðàäèåíò_354-21" x1="38.17" y1="27" x2="67.89" y2="27" xlink:href="#Áåçûìÿííûé_ãðàäèåíò_354"></linearGradient><style>.cls-5{fill:#03a7d3}.cls-8{fill:#fff}.cls-9{fill:#06033e;opacity:.4}</style></defs><g style="isolation:isolate"><g id="Ñëîé_1" data-name="Ñëîé 1"><path style="mix-blend-mode:lighten" fill="url(#Áåçûìÿííûé_ãðàäèåíò_17)" opacity=".6" d="M111.58 129.17v63.42h.56v-62.34l-.56-1.08z"></path><path style="mix-blend-mode:lighten" fill="url(#Áåçûìÿííûé_ãðàäèåíò_17-2)" opacity=".6" d="M164.26 129.17v63.42h.56v-62.34l-.56-1.08z"></path><path style="mix-blend-mode:lighten" fill="url(#Áåçûìÿííûé_ãðàäèåíò_17-3)" opacity=".3" d="M111.58 129.37v63.42h53.24v-62.34l-53.24-1.08z"></path><path class="cls-5" d="M138.14 152.83a8 8 0 01-3.94-.94l-26.44-15.26a2.57 2.57 0 010-4.83l26.3-15.29a8.7 8.7 0 017.87 0l26.44 15.26a2.57 2.57 0 010 4.83l-26.3 15.29a8 8 0 01-3.93.94zm-.14-36.78a7.62 7.62 0 00-3.69.88L108 132.23a2.08 2.08 0 000 4l26.44 15.27a8.18 8.18 0 007.37 0l26.31-15.3a2.08 2.08 0 000-4l-26.44-15.27a7.65 7.65 0 00-3.68-.88z"></path><path d="M170 125.84v-12.68l-16 2.14-12-6.92a8.39 8.39 0 00-7.62 0l-1.87 1.18-26 3.47v12.91a2.7 2.7 0 001.56 2.13l26.45 15.27a8.45 8.45 0 007.62 0l26.3-15.3a2.73 2.73 0 001.57-2.12z" fill="url(#Áåçûìÿííûé_ãðàäèåíò_354)"></path><path d="M168.38 110.87L141.94 95.6a8.45 8.45 0 00-7.62 0L108 110.9c-2.1 1.21-2.1 3.18 0 4.4l26.45 15.26a8.39 8.39 0 007.62 0l26.3-15.29c2.11-1.22 2.11-3.19.01-4.4z" fill="url(#Áåçûìÿííûé_ãðàäèåíò_346)"></path><path class="cls-8" d="M168.38 114.5l-26.3 15.29a8.39 8.39 0 01-7.62 0L108 114.53a2.91 2.91 0 01-1.53-1.82 2.5 2.5 0 001.53 2.59l26.45 15.26a8.39 8.39 0 007.62 0l26.3-15.29c1.22-.71 1.73-1.67 1.53-2.59a2.91 2.91 0 01-1.52 1.82zm-22.75 19.45l-1.25.72v-1.45l1.25-.72v1.45zm2.62-1.51l-1.25.72v-1.45l1.25-.72v1.45zm2.62-1.52l-1.25.73v-1.45l1.25-.72v1.44zm-2.14 4.17l-1.25.72v-1.44l1.25-.73v1.45zm2.3-1.33l-1.25.72v-1.45l1.25-.72v1.45zm8.24-7.69l-1.25.73v-1.45l1.25-.72v1.44zm7.22-4.16l-1.26.72v-1.44l1.26-.73v1.45zm-13 7.5l-1.25.72v-1.44l1.25-.72v1.44z"></path><path class="cls-9" d="M136.7 124.11l-17.79-10.27c-.72-.41-.63-1.14.2-1.63l17.39-10a3.1 3.1 0 012.82-.12l17.79 10.27c.72.42.63 1.15-.2 1.63l-17.39 10a3.13 3.13 0 01-2.82.12z"></path><path class="cls-8" d="M129.7 135.23l-14.7-8.47a1.54 1.54 0 01-.63-1.22v-1.09c0-.46.28-.68.63-.48l14.68 8.48a1.51 1.51 0 01.64 1.21v1.09c.02.47-.27.68-.62.48z"></path><path d="M170 102.06V89.38l-16 2.14-12-6.93a8.45 8.45 0 00-7.62 0l-1.87 1.19-26 3.47v12.91a2.69 2.69 0 001.56 2.13l26.45 15.27a8.39 8.39 0 007.62 0l26.3-15.29a2.74 2.74 0 001.57-2.13z" fill="url(#Áåçûìÿííûé_ãðàäèåíò_354-2)"></path><path d="M168.38 87.08l-26.44-15.26a8.39 8.39 0 00-7.62 0L108 87.11c-2.1 1.22-2.1 3.19 0 4.4l26.45 15.27a8.45 8.45 0 007.62 0l26.3-15.3c2.11-1.21 2.11-3.18.01-4.4z" fill="url(#Áåçûìÿííûé_ãðàäèåíò_346-2)"></path><path class="cls-9" d="M155.78 88l-15.4-8.9a4.89 4.89 0 00-4.44 0L120.61 88a1.36 1.36 0 000 2.57L136 99.48a4.89 4.89 0 004.44 0l15.32-8.91a1.35 1.35 0 00.02-2.57z"></path><path class="cls-8" d="M168.38 90.72L142.08 106a8.39 8.39 0 01-7.62 0L108 90.74a2.92 2.92 0 01-1.53-1.81 2.48 2.48 0 001.53 2.58l26.45 15.27a8.45 8.45 0 007.62 0l26.3-15.3c1.22-.7 1.73-1.66 1.53-2.58a2.93 2.93 0 01-1.52 1.82zm-22.75 19.44l-1.25.73v-1.45l1.25-.72v1.44zm2.62-1.51l-1.25.72v-1.44l1.25-.73v1.45zm2.62-1.51l-1.25.72v-1.44l1.25-.73v1.45zm-2.14 4.16l-1.25.73v-1.45l1.25-.72v1.44zm2.3-1.33l-1.25.72v-1.44l1.25-.72v1.44zm8.24-7.68l-1.25.72v-1.44l1.25-.73v1.45zm7.22-4.17l-1.26.73V97.4l1.26-.72v1.44zm-13 7.51l-1.25.72v-1.45l1.25-.72v1.45z"></path><path d="M170 78.27V65.59l-16 2.14-12-6.92a8.39 8.39 0 00-7.62 0L132.45 62l-26 3.47v12.9A2.7 2.7 0 00108 80.5l26.45 15.27a8.45 8.45 0 007.62 0l26.3-15.3a2.73 2.73 0 001.63-2.12z" fill="url(#Áåçûìÿííûé_ãðàäèåíò_354-3)"></path><path d="M168.38 63.3L141.94 48a8.45 8.45 0 00-7.62 0L108 63.33c-2.1 1.21-2.1 3.18 0 4.4L134.46 83a8.39 8.39 0 007.62 0l26.3-15.29c2.1-1.23 2.1-3.2 0-4.41z" fill="url(#Áåçûìÿííûé_ãðàäèåíò_346-3)"></path><path d="M168.38 63.3L141.94 48a8.45 8.45 0 00-7.62 0L108 63.33c-2.1 1.21-2.1 3.18 0 4.4L134.46 83a8.39 8.39 0 007.62 0l26.3-15.29c2.1-1.23 2.1-3.2 0-4.41z" fill="url(#Áåçûìÿííûé_ãðàäèåíò_346-4)"></path><path class="cls-9" d="M158.2 64.05l-17.52-10.12a5.61 5.61 0 00-5.05 0L118.2 64.07c-1.4.8-1.4 2.11 0 2.91l17.52 10.12a5.61 5.61 0 005.05 0L158.2 67c1.39-.84 1.39-2.15 0-2.95z"></path><path class="cls-8" d="M168.38 66.93l-26.3 15.3a8.45 8.45 0 01-7.62 0L108 67a2.91 2.91 0 01-1.53-1.82 2.5 2.5 0 001.53 2.55L134.46 83a8.39 8.39 0 007.62 0l26.3-15.29c1.22-.71 1.73-1.67 1.53-2.59a2.91 2.91 0 01-1.53 1.81zm-22.75 19.45l-1.25.72v-1.44l1.25-.73v1.45zm2.62-1.51l-1.25.72v-1.45l1.25-.72v1.45zm2.62-1.52l-1.25.73v-1.45l1.25-.72v1.44zm-2.14 4.17l-1.25.72V86.8l1.25-.73v1.45zm2.3-1.33l-1.25.72v-1.44l1.25-.73v1.45zm8.24-7.69l-1.25.73v-1.45l1.25-.72v1.44zm7.22-4.16l-1.26.72v-1.44l1.26-.73v1.45zm-13 7.5l-1.25.72v-1.44l1.25-.72v1.44z"></path><path d="M170 54.94V42.26l-16 2.13-12-6.92a8.39 8.39 0 00-7.62 0l-1.87 1.19-26 3.47V55a2.69 2.69 0 001.49 2.16l26.45 15.27a8.45 8.45 0 007.62 0l26.3-15.3A2.71 2.71 0 00170 55z" fill="url(#Áåçûìÿííûé_ãðàäèåíò_354-4)"></path><path d="M168.38 40l-26.44-15.3a8.39 8.39 0 00-7.62 0L108 40c-2.1 1.22-2.1 3.19 0 4.4l26.45 15.27a8.45 8.45 0 007.62 0l26.3-15.3c2.11-1.22 2.11-3.19.01-4.37z" fill="url(#Áåçûìÿííûé_ãðàäèåíò_346-5)"></path><path class="cls-9" d="M155.78 40.89L140.38 32a4.89 4.89 0 00-4.44 0l-15.33 8.9a1.36 1.36 0 000 2.57L136 52.36a4.89 4.89 0 004.44 0l15.32-8.91c1.24-.71 1.24-1.86.02-2.56z"></path><path class="cls-8" d="M168.38 43.59l-26.3 15.3a8.45 8.45 0 01-7.62 0L108 43.62a2.92 2.92 0 01-1.53-1.81 2.49 2.49 0 001.53 2.58l26.45 15.27a8.45 8.45 0 007.62 0l26.3-15.3c1.22-.7 1.73-1.66 1.53-2.58a2.92 2.92 0 01-1.52 1.81zm-22.75 19.45l-1.25.72v-1.44l1.25-.72v1.44zm2.62-1.51l-1.25.72v-1.44l1.25-.73v1.45zm2.62-1.51l-1.25.72v-1.45l1.25-.72v1.45zm-2.14 4.16l-1.25.73v-1.45l1.25-.72v1.44zm2.3-1.33l-1.25.72v-1.44l1.25-.72v1.44zm8.24-7.68l-1.25.72v-1.45l1.25-.72v1.45zm7.22-4.17l-1.26.72v-1.44l1.26-.72V51zm-13 7.51l-1.25.72v-1.45l1.25-.72v1.45z"></path><path d="M170 31.15V18.47l-16 2.14-12-6.93a8.45 8.45 0 00-7.62 0l-1.87 1.19-26 3.47v12.91a2.7 2.7 0 001.49 2.13l26.45 15.27a8.45 8.45 0 007.62 0l26.3-15.3a2.73 2.73 0 001.63-2.12z" fill="url(#Áåçûìÿííûé_ãðàäèåíò_354-5)"></path><path d="M168.38 16.18L141.94.91a8.45 8.45 0 00-7.62 0L108 16.21c-2.1 1.21-2.1 3.18 0 4.4l26.45 15.26a8.39 8.39 0 007.62 0l26.3-15.29c2.11-1.22 2.11-3.19.01-4.4z" fill="url(#Áåçûìÿííûé_ãðàäèåíò_346-6)"></path><path d="M168.38 16.18L141.94.91a8.45 8.45 0 00-7.62 0L108 16.21c-2.1 1.21-2.1 3.18 0 4.4l26.45 15.26a8.39 8.39 0 007.62 0l26.3-15.29c2.11-1.22 2.11-3.19.01-4.4z" fill="url(#Áåçûìÿííûé_ãðàäèåíò_346-7)"></path><path class="cls-9" d="M138.24 30.86a5.37 5.37 0 01-2.66-.64l-17.52-10.11a2 2 0 01-1.19-1.71 2 2 0 011.19-1.71l17.42-10.13a5.91 5.91 0 015.34 0l17.52 10.12a2 2 0 011.19 1.7 2 2 0 01-1.19 1.71l-17.43 10.13a5.38 5.38 0 01-2.67.64zm-.09-24.37a4.87 4.87 0 00-2.38.57l-17.43 10.13a1.52 1.52 0 00-.9 1.21 1.52 1.52 0 00.9 1.21l17.52 10.12a5.32 5.32 0 004.76 0l17.43-10.14a1.49 1.49 0 00.9-1.21 1.52 1.52 0 00-.9-1.21L140.53 7.06a4.84 4.84 0 00-2.38-.57z"></path><path class="cls-8" d="M168.38 19.81l-26.3 15.29a8.39 8.39 0 01-7.62 0L108 19.84a2.91 2.91 0 01-1.52-1.84 2.5 2.5 0 001.52 2.61l26.45 15.26a8.39 8.39 0 007.62 0l26.3-15.29c1.22-.71 1.73-1.67 1.53-2.59a2.91 2.91 0 01-1.52 1.82zm-22.75 19.45l-1.25.72v-1.45l1.25-.72v1.45zm2.62-1.52l-1.25.73v-1.45l1.25-.72v1.44zm2.62-1.51l-1.25.72v-1.44l1.25-.72v1.44zm-2.14 4.17l-1.25.72v-1.45l1.25-.72v1.45zm2.3-1.33l-1.25.72v-1.45l1.25-.72v1.45zm8.24-7.69l-1.25.72v-1.44l1.25-.72v1.44zm7.22-4.16l-1.26.72v-1.45l1.26-.72v1.45zm-13 7.5l-1.25.72V34l1.25-.73v1.45z"></path><path class="cls-5" d="M214.56 197.62a8 8 0 01-3.93-.94l-26.44-15.27a2.56 2.56 0 010-4.82l26.3-15.3a8.73 8.73 0 017.87 0l26.44 15.27a2.56 2.56 0 010 4.82l-26.3 15.3a8 8 0 01-3.94.94zm-.14-36.78a7.47 7.47 0 00-3.68.88L184.43 177a2.09 2.09 0 000 4l26.45 15.26a8.11 8.11 0 007.37 0l26.3-15.26a2.08 2.08 0 000-4l-26.44-15.27a7.51 7.51 0 00-3.69-.89z"></path><path d="M246.38 170.63V158l-16 2.14-12-6.93a8.45 8.45 0 00-7.62 0l-1.87 1.19-26 3.47v12.91a2.72 2.72 0 001.57 2.13l26.44 15.26a8.39 8.39 0 007.62 0l26.31-15.29a2.72 2.72 0 001.56-2.13z" fill="url(#Áåçûìÿííûé_ãðàäèåíò_354-6)"></path><path d="M244.81 155.66l-26.45-15.27a8.39 8.39 0 00-7.62 0l-26.3 15.29c-2.1 1.22-2.1 3.19 0 4.4l26.44 15.27a8.45 8.45 0 007.62 0l26.31-15.3c2.1-1.21 2.1-3.18 0-4.39z" fill="url(#Áåçûìÿííûé_ãðàäèåíò_346-8)"></path><path class="cls-8" d="M244.81 159.29l-26.31 15.29a8.39 8.39 0 01-7.62 0l-26.44-15.27a2.92 2.92 0 01-1.53-1.81c-.2.92.31 1.88 1.53 2.58l26.44 15.27a8.45 8.45 0 007.62 0l26.31-15.3a2.48 2.48 0 001.53-2.58 2.93 2.93 0 01-1.53 1.82zm-22.75 19.44l-1.25.73v-1.45l1.25-.72v1.44zm2.62-1.51l-1.26.72v-1.44l1.26-.72v1.44zm2.61-1.51l-1.25.72v-1.44l1.25-.73v1.45zm-2.14 4.17l-1.25.72v-1.45l1.25-.72v1.45zm2.31-1.34l-1.25.73v-1.45l1.25-.72v1.44zm8.23-7.68l-1.25.72v-1.44l1.25-.73v1.45zm7.22-4.17l-1.25.73v-1.45l1.25-.72v1.44zm-13 7.51l-1.25.72v-1.45l1.25-.72v1.45z"></path><path class="cls-9" d="M213.13 168.9l-17.79-10.27c-.73-.42-.64-1.15.2-1.63l17.38-10a3.13 3.13 0 012.82-.11l17.79 10.27c.73.41.64 1.14-.2 1.63l-17.38 10a3.1 3.1 0 01-2.82.11z"></path><path class="cls-8" d="M206.13 180l-14.68-8.48a1.51 1.51 0 01-.64-1.21v-1.09c0-.47.29-.68.64-.48l14.68 8.48a1.5 1.5 0 01.63 1.21v1.09c0 .48-.28.7-.63.48z"></path><path d="M246.38 146.84v-12.67l-16 2.13-12-6.92a8.39 8.39 0 00-7.62 0l-1.87 1.18-26 3.47v12.91a2.72 2.72 0 001.57 2.13l26.44 15.27a8.45 8.45 0 007.62 0L244.81 149a2.71 2.71 0 001.56-2.12z" fill="url(#Áåçûìÿííûé_ãðàäèåíò_354-7)"></path><path d="M244.81 131.87l-26.45-15.27a8.45 8.45 0 00-7.62 0l-26.3 15.3c-2.1 1.21-2.1 3.18 0 4.4l26.44 15.26a8.39 8.39 0 007.62 0l26.31-15.29c2.1-1.22 2.1-3.18 0-4.4z" fill="url(#Áåçûìÿííûé_ãðàäèåíò_346-9)"></path><path class="cls-9" d="M232.21 132.79l-15.41-8.89a4.89 4.89 0 00-4.44 0L197 132.81c-1.23.71-1.23 1.86 0 2.56l15.4 8.9a4.89 4.89 0 004.44 0l15.33-8.91a1.36 1.36 0 00.04-2.57z"></path><path class="cls-8" d="M244.81 135.5l-26.31 15.3a8.45 8.45 0 01-7.62 0l-26.44-15.27a2.91 2.91 0 01-1.53-1.82c-.2.92.31 1.88 1.53 2.59l26.44 15.26a8.39 8.39 0 007.62 0l26.31-15.29a2.49 2.49 0 001.53-2.58 2.92 2.92 0 01-1.53 1.81zm-22.75 19.45l-1.25.72v-1.44l1.25-.73v1.45zm2.62-1.51l-1.26.72v-1.45l1.26-.72v1.45zm2.61-1.51l-1.25.72v-1.45l1.25-.72v1.45zm-2.14 4.16l-1.25.72v-1.44l1.25-.73v1.45zm2.31-1.33l-1.25.72v-1.44l1.25-.73v1.45zm8.23-7.69l-1.25.73v-1.45l1.25-.72v1.44zm7.22-4.16l-1.25.72v-1.44l1.25-.73v1.45zm-13 7.5l-1.25.72v-1.44l1.25-.72v1.44z"></path><path d="M246.38 123.06v-12.68l-16 2.14-12-6.93a8.45 8.45 0 00-7.62 0l-1.87 1.19-26 3.47v12.91a2.72 2.72 0 001.57 2.13l26.44 15.26a8.39 8.39 0 007.62 0l26.31-15.29a2.72 2.72 0 001.56-2.13z" fill="url(#Áåçûìÿííûé_ãðàäèåíò_354-8)"></path><path d="M244.81 108.09l-26.45-15.27a8.39 8.39 0 00-7.62 0l-26.3 15.29c-2.1 1.22-2.1 3.19 0 4.4l26.44 15.27a8.45 8.45 0 007.62 0l26.31-15.3c2.1-1.21 2.1-3.18 0-4.39z" fill="url(#Áåçûìÿííûé_ãðàäèåíò_346-10)"></path><path d="M244.81 108.09l-26.45-15.27a8.39 8.39 0 00-7.62 0l-26.3 15.29c-2.1 1.22-2.1 3.19 0 4.4l26.44 15.27a8.45 8.45 0 007.62 0l26.31-15.3c2.1-1.21 2.1-3.18 0-4.39z" fill="url(#Áåçûìÿííûé_ãðàäèåíò_346-11)"></path><path class="cls-9" d="M234.62 108.83L217.1 98.72a5.55 5.55 0 00-5 0l-17.43 10.13c-1.39.81-1.39 2.11 0 2.92l17.52 10.11a5.55 5.55 0 005.05 0l17.43-10.13c1.33-.81 1.33-2.11-.05-2.92z"></path><path class="cls-8" d="M244.81 111.72L218.5 127a8.39 8.39 0 01-7.62 0l-26.44-15.27a2.89 2.89 0 01-1.53-1.81c-.2.92.31 1.88 1.53 2.58l26.44 15.27a8.45 8.45 0 007.62 0l26.31-15.3a2.48 2.48 0 001.53-2.58 2.93 2.93 0 01-1.53 1.83zm-22.75 19.44l-1.25.73v-1.45l1.25-.72v1.44zm2.62-1.51l-1.26.73v-1.45l1.26-.72v1.44zm2.61-1.51l-1.25.72v-1.44l1.25-.73v1.45zm-2.14 4.17l-1.25.72v-1.45l1.25-.72v1.45zm2.31-1.34l-1.25.73v-1.45l1.25-.72v1.44zm8.23-7.68l-1.25.72v-1.44l1.25-.73v1.45zm7.22-4.16l-1.25.72v-1.45l1.25-.72v1.45zm-13 7.5l-1.25.72v-1.44l1.25-.73v1.45z"></path><path d="M246.38 99.72V87l-16 2.14-12-6.93a8.45 8.45 0 00-7.62 0l-1.87 1.19-26 3.47v12.95a2.72 2.72 0 001.57 2.13l26.44 15.27a8.45 8.45 0 007.62 0l26.31-15.3a2.71 2.71 0 001.56-2.12z" fill="url(#Áåçûìÿííûé_ãðàäèåíò_354-9)"></path><path d="M244.81 84.75l-26.45-15.27a8.45 8.45 0 00-7.62 0l-26.3 15.3c-2.1 1.21-2.1 3.18 0 4.4l26.44 15.26a8.39 8.39 0 007.62 0l26.31-15.29c2.1-1.22 2.1-3.15 0-4.4z" fill="url(#Áåçûìÿííûé_ãðàäèåíò_346-12)"></path><path class="cls-9" d="M232.21 85.67l-15.41-8.89a4.89 4.89 0 00-4.44 0L197 85.69a1.35 1.35 0 000 2.56l15.4 8.9a4.89 4.89 0 004.44 0l15.33-8.91a1.36 1.36 0 00.04-2.57z"></path><path class="cls-8" d="M244.81 88.38l-26.31 15.29a8.39 8.39 0 01-7.62 0l-26.44-15.26a2.91 2.91 0 01-1.53-1.82c-.2.92.31 1.88 1.53 2.59l26.44 15.26a8.39 8.39 0 007.62 0l26.31-15.29a2.5 2.5 0 001.53-2.59 2.91 2.91 0 01-1.53 1.82zm-22.75 19.45l-1.25.72v-1.45l1.25-.72v1.45zm2.62-1.52l-1.26.73v-1.45l1.26-.72v1.44zm2.61-1.51l-1.25.73v-1.45l1.25-.72v1.44zm-2.14 4.17l-1.25.72v-1.44l1.25-.73v1.45zm2.31-1.33l-1.25.72v-1.45l1.25-.72v1.45zm8.23-7.69l-1.25.73v-1.45l1.25-.72v1.44zm7.22-4.16l-1.25.72v-1.45l1.25-.72v1.45zm-13 7.5l-1.25.72v-1.44l1.25-.72v1.44z"></path><path d="M246.38 75.94V63.26l-16 2.14-12-6.93a8.45 8.45 0 00-7.62 0l-1.87 1.19-26 3.47V76a2.7 2.7 0 001.57 2.13L210.9 93.4a8.39 8.39 0 007.62 0l26.31-15.29a2.72 2.72 0 001.54-2.11z" fill="url(#Áåçûìÿííûé_ãðàäèåíò_354-10)"></path><path d="M244.81 61l-26.45-15.3a8.39 8.39 0 00-7.62 0L184.44 61c-2.1 1.22-2.1 3.19 0 4.4l26.44 15.27a8.45 8.45 0 007.62 0l26.31-15.3c2.1-1.22 2.1-3.19 0-4.37z" fill="url(#Áåçûìÿííûé_ãðàäèåíò_346-13)"></path><path d="M244.81 61l-26.45-15.3a8.39 8.39 0 00-7.62 0L184.44 61c-2.1 1.22-2.1 3.19 0 4.4l26.44 15.27a8.45 8.45 0 007.62 0l26.31-15.3c2.1-1.22 2.1-3.19 0-4.37z" fill="url(#Áåçûìÿííûé_ãðàäèåíò_346-14)"></path><path class="cls-9" d="M214.67 75.65A5.52 5.52 0 01212 75l-17.52-10.11a1.82 1.82 0 010-3.41l17.43-10.13a5.89 5.89 0 015.33 0l17.53 10.11a2.06 2.06 0 011.23 1.71 2 2 0 01-1.18 1.7L217.34 75a5.55 5.55 0 01-2.67.65zm-.09-24.37a4.81 4.81 0 00-2.38.56L194.77 62a1.49 1.49 0 00-.9 1.21 1.52 1.52 0 00.9 1.21l17.52 10.11a5.25 5.25 0 004.76 0l17.43-10.13a1.52 1.52 0 00.9-1.21 1.49 1.49 0 00-.9-1.21L217 51.84a4.87 4.87 0 00-2.42-.56z"></path><path class="cls-8" d="M244.81 64.59l-26.31 15.3a8.45 8.45 0 01-7.62 0l-26.44-15.27a2.92 2.92 0 01-1.53-1.81c-.2.92.31 1.88 1.53 2.58l26.44 15.27a8.45 8.45 0 007.62 0l26.31-15.3a2.48 2.48 0 001.53-2.58 2.89 2.89 0 01-1.53 1.81zm-22.75 19.45l-1.25.73v-1.45l1.25-.72v1.44zm2.62-1.51l-1.26.72v-1.44l1.26-.73v1.45zm2.61-1.51l-1.25.72V80.3l1.25-.73v1.45zm-2.14 4.16l-1.25.73v-1.45l1.25-.72v1.44zm2.31-1.33l-1.25.73v-1.45l1.25-.72v1.44zm8.23-7.68l-1.25.72v-1.44l1.25-.73v1.45zm7.22-4.17l-1.25.73v-1.45l1.25-.72V72zm-13 7.51l-1.25.72v-1.45l1.25-.72v1.45z"></path><path class="cls-5" d="M138.2 244.23a8 8 0 01-3.93-.94L107.83 228a2.56 2.56 0 010-4.82l26.3-15.3a8.73 8.73 0 017.87 0l26.44 15.27a2.57 2.57 0 010 4.83l-26.3 15.29a8 8 0 01-3.94.96zm-.14-36.78a7.47 7.47 0 00-3.68.88l-26.31 15.29a2.09 2.09 0 000 4l26.45 15.26a8.11 8.11 0 007.37 0l26.3-15.29a2.08 2.08 0 000-4l-26.44-15.27a7.51 7.51 0 00-3.69-.87z"></path><path d="M170 217.24v-12.68l-16 2.14-12-6.93a8.45 8.45 0 00-7.62 0l-1.86 1.23-26 3.47v12.91a2.72 2.72 0 001.57 2.13l26.44 15.26a8.39 8.39 0 007.62 0l26.31-15.29a2.72 2.72 0 001.56-2.13z" fill="url(#Áåçûìÿííûé_ãðàäèåíò_354-11)"></path><path d="M168.45 202.27L142 187a8.39 8.39 0 00-7.62 0l-26.3 15.29c-2.1 1.22-2.1 3.19 0 4.4L134.52 222a8.45 8.45 0 007.62 0l26.31-15.3c2.1-1.25 2.1-3.22 0-4.43z" fill="url(#Áåçûìÿííûé_ãðàäèåíò_346-15)"></path><path class="cls-8" d="M168.45 205.9l-26.31 15.29a8.39 8.39 0 01-7.62 0l-26.44-15.27a2.92 2.92 0 01-1.53-1.81c-.2.92.31 1.88 1.53 2.58L134.52 222a8.45 8.45 0 007.62 0l26.31-15.3c1.22-.7 1.73-1.66 1.53-2.58a2.93 2.93 0 01-1.53 1.78zm-22.75 19.44l-1.25.73v-1.45l1.25-.72v1.44zm2.62-1.51l-1.26.72v-1.44l1.26-.72v1.44zm2.62-1.51l-1.26.72v-1.44l1.26-.73v1.45zm-2.15 4.17l-1.25.72v-1.45l1.25-.72v1.45zm2.31-1.34l-1.25.73v-1.45l1.25-.72v1.44zm8.24-7.68l-1.26.72v-1.44l1.26-.73v1.45zm7.21-4.17l-1.25.73v-1.45l1.25-.72v1.44zm-12.99 7.51l-1.26.72v-1.44l1.26-.73v1.45z"></path><path class="cls-9" d="M136.77 215.51L119 205.24c-.73-.42-.64-1.15.2-1.63l17.38-10a3.13 3.13 0 012.82-.11l17.8 10.27c.72.41.63 1.14-.21 1.63l-17.38 10a3.1 3.1 0 01-2.84.11z"></path><path class="cls-8" d="M129.77 226.63l-14.68-8.48a1.51 1.51 0 01-.64-1.21v-1.09c0-.47.29-.68.64-.48l14.68 8.48a1.5 1.5 0 01.63 1.21v1.09c0 .47-.28.68-.63.48z"></path><path d="M170 193.45v-12.67l-16 2.13-12-6.91a8.39 8.39 0 00-7.62 0l-1.86 1.18-26 3.47v12.91a2.72 2.72 0 001.57 2.13L134.52 211a8.45 8.45 0 007.62 0l26.31-15.3a2.71 2.71 0 001.56-2.12z" fill="url(#Áåçûìÿííûé_ãðàäèåíò_354-12)"></path><path d="M168.45 178.48L142 163.21a8.45 8.45 0 00-7.62 0l-26.3 15.3c-2.1 1.21-2.1 3.18 0 4.4l26.44 15.26a8.39 8.39 0 007.62 0l26.31-15.29c2.1-1.22 2.1-3.18 0-4.4z" fill="url(#Áåçûìÿííûé_ãðàäèåíò_346-16)"></path><path class="cls-9" d="M155.85 179.4l-15.41-8.89a4.89 4.89 0 00-4.44 0l-15.32 8.91c-1.23.71-1.23 1.86 0 2.56l15.4 8.9a4.89 4.89 0 004.44 0l15.33-8.88a1.36 1.36 0 000-2.6z"></path><path class="cls-8" d="M168.45 182.11l-26.31 15.3a8.45 8.45 0 01-7.62 0l-26.44-15.27a2.91 2.91 0 01-1.53-1.82c-.2.92.31 1.88 1.53 2.59l26.44 15.26a8.39 8.39 0 007.62 0l26.31-15.29c1.22-.71 1.73-1.66 1.53-2.58a2.92 2.92 0 01-1.53 1.81zm-22.75 19.45l-1.25.72v-1.44l1.25-.73v1.45zm2.62-1.51l-1.26.72v-1.45l1.26-.72v1.45zm2.62-1.52l-1.26.73v-1.45l1.26-.72v1.44zm-2.15 4.17l-1.25.72v-1.44l1.25-.73v1.45zm2.31-1.33l-1.25.72v-1.44l1.25-.73v1.45zm8.24-7.68l-1.26.72v-1.45l1.26-.72v1.45zm7.21-4.17l-1.25.72v-1.44l1.25-.73v1.45zm-12.99 7.5l-1.26.73v-1.45l1.26-.72v1.44z"></path><path d="M170 169.67V157l-16 2.14-12-6.93a8.45 8.45 0 00-7.62 0l-1.86 1.19-26 3.47v12.91a2.72 2.72 0 001.57 2.13l26.44 15.26a8.39 8.39 0 007.62 0l26.31-15.29a2.71 2.71 0 001.56-2.13z" fill="url(#Áåçûìÿííûé_ãðàäèåíò_354-13)"></path><path d="M168.45 154.7L142 139.43a8.39 8.39 0 00-7.62 0l-26.3 15.29c-2.1 1.22-2.1 3.19 0 4.4l26.44 15.27a8.45 8.45 0 007.62 0l26.31-15.3c2.1-1.21 2.1-3.18 0-4.39z" fill="url(#Áåçûìÿííûé_ãðàäèåíò_346-17)"></path><path d="M168.45 154.7L142 139.43a8.39 8.39 0 00-7.62 0l-26.3 15.29c-2.1 1.22-2.1 3.19 0 4.4l26.44 15.27a8.45 8.45 0 007.62 0l26.31-15.3c2.1-1.21 2.1-3.18 0-4.39z" fill="url(#Áåçûìÿííûé_ãðàäèåíò_346-18)"></path><path class="cls-9" d="M158.26 155.44l-17.52-10.11a5.55 5.55 0 00-5.05 0l-17.43 10.13c-1.39.81-1.39 2.11 0 2.92l17.52 10.11a5.55 5.55 0 005.05 0l17.43-10.13c1.4-.81 1.4-2.11 0-2.92z"></path><path class="cls-8" d="M168.45 158.33l-26.31 15.29a8.39 8.39 0 01-7.62 0l-26.44-15.27a2.89 2.89 0 01-1.53-1.81c-.2.92.31 1.88 1.53 2.58l26.44 15.27a8.42 8.42 0 007.62 0l26.31-15.3c1.22-.7 1.73-1.66 1.53-2.58a2.93 2.93 0 01-1.53 1.82zm-22.75 19.44l-1.25.73v-1.45l1.25-.72v1.44zm2.62-1.51l-1.26.73v-1.45l1.26-.72v1.44zm2.62-1.51l-1.26.72v-1.44l1.26-.72v1.44zm-2.15 4.16l-1.25.73v-1.45l1.25-.72v1.44zm2.31-1.33l-1.25.73v-1.45l1.25-.72v1.44zm8.24-7.68l-1.26.72v-1.44l1.26-.72v1.44zm7.21-4.16l-1.25.72v-1.45l1.25-.72v1.45zm-12.99 7.5l-1.26.72v-1.45l1.26-.72v1.45z"></path><path d="M170 146.33v-12.68l-16 2.14-12-6.93a8.45 8.45 0 00-7.62 0l-1.86 1.19-26 3.47v12.91a2.72 2.72 0 001.57 2.13l26.44 15.27a8.45 8.45 0 007.62 0l26.31-15.3a2.71 2.71 0 001.56-2.12z" fill="url(#Áåçûìÿííûé_ãðàäèåíò_354-14)"></path><path d="M168.45 131.36L142 116.09a8.45 8.45 0 00-7.62 0l-26.3 15.3c-2.1 1.21-2.1 3.18 0 4.4l26.44 15.26a8.39 8.39 0 007.62 0l26.31-15.29c2.1-1.22 2.1-3.19 0-4.4z" fill="url(#Áåçûìÿííûé_ãðàäèåíò_346-19)"></path><path class="cls-9" d="M155.85 132.28l-15.41-8.89a4.89 4.89 0 00-4.44 0l-15.32 8.91a1.35 1.35 0 000 2.56l15.4 8.9a4.89 4.89 0 004.44 0l15.33-8.91a1.36 1.36 0 000-2.57z"></path><path class="cls-8" d="M168.45 135l-26.31 15.29a8.39 8.39 0 01-7.62 0L108.08 135a2.91 2.91 0 01-1.53-1.82c-.2.92.31 1.88 1.53 2.59l26.44 15.26a8.39 8.39 0 007.62 0l26.31-15.29c1.22-.71 1.73-1.67 1.53-2.59a2.91 2.91 0 01-1.53 1.85zm-22.75 19.44l-1.25.72v-1.45l1.25-.72v1.45zm2.62-1.51l-1.26.72v-1.45l1.26-.72v1.45zm2.62-1.52l-1.26.73v-1.45l1.26-.72v1.44zm-2.15 4.17l-1.25.72v-1.44l1.25-.73v1.45zm2.31-1.33l-1.25.72v-1.45l1.25-.72v1.45zm8.24-7.69l-1.26.73v-1.45l1.26-.72v1.44zm7.21-4.16l-1.25.72v-1.44l1.25-.73v1.45zm-12.99 7.5l-1.26.72v-1.44l1.26-.72v1.44z"></path><path d="M170 122.55v-12.68L154 112l-12-6.93a8.39 8.39 0 00-7.62 0l-1.86 1.19-26 3.47v12.91a2.7 2.7 0 001.57 2.13L134.52 140a8.39 8.39 0 007.62 0l26.31-15.29a2.72 2.72 0 001.56-2.13z" fill="url(#Áåçûìÿííûé_ãðàäèåíò_354-15)"></path><path d="M168.45 107.57L142 92.31a8.39 8.39 0 00-7.62 0l-26.3 15.29c-2.1 1.22-2.1 3.19 0 4.4l26.44 15.27a8.45 8.45 0 007.62 0L168.45 112c2.1-1.24 2.1-3.21 0-4.43z" fill="url(#Áåçûìÿííûé_ãðàäèåíò_346-20)"></path><path d="M168.45 107.57L142 92.31a8.39 8.39 0 00-7.62 0l-26.3 15.29c-2.1 1.22-2.1 3.19 0 4.4l26.44 15.27a8.45 8.45 0 007.62 0L168.45 112c2.1-1.24 2.1-3.21 0-4.43z" fill="url(#Áåçûìÿííûé_ãðàäèåíò_346-21)"></path><path class="cls-9" d="M138.31 122.25a5.51 5.51 0 01-2.67-.63l-17.52-10.12a1.82 1.82 0 010-3.41L135.55 98a5.89 5.89 0 015.33 0l17.53 10.11a2.06 2.06 0 011.18 1.71 2 2 0 01-1.18 1.7L141 121.62a5.54 5.54 0 01-2.69.63zm-.09-24.37a4.84 4.84 0 00-2.38.57l-17.43 10.14a1.49 1.49 0 00-.9 1.21 1.52 1.52 0 00.9 1.21l17.52 10.11a5.25 5.25 0 004.76 0L158.12 111a1.26 1.26 0 000-2.42L140.6 98.45a4.87 4.87 0 00-2.38-.57z"></path><path class="cls-8" d="M168.45 111.2l-26.31 15.3a8.45 8.45 0 01-7.62 0l-26.44-15.27a2.92 2.92 0 01-1.53-1.81c-.2.92.31 1.88 1.53 2.58l26.44 15.27a8.45 8.45 0 007.62 0L168.45 112c1.22-.7 1.73-1.66 1.53-2.58a2.89 2.89 0 01-1.53 1.78zm-22.75 19.45l-1.25.73v-1.45l1.25-.72v1.44zm2.62-1.51l-1.26.72v-1.44l1.26-.73v1.45zm2.62-1.51l-1.26.72v-1.44l1.26-.73v1.45zm-2.15 4.16l-1.25.73v-1.45l1.25-.72v1.44zm2.31-1.33l-1.25.73v-1.45l1.25-.72v1.44zm8.24-7.68l-1.26.72v-1.44l1.26-.73v1.45zm7.21-4.17l-1.25.73v-1.45l1.25-.72v1.44zm-12.99 7.51l-1.26.72v-1.45l1.26-.72v1.45z"></path><path class="cls-5" d="M61.71 197.62a8 8 0 01-3.93-.94l-26.44-15.27a2.56 2.56 0 010-4.82l26.3-15.3a8.73 8.73 0 017.87 0L92 176.56a2.56 2.56 0 010 4.82l-26.3 15.3a8 8 0 01-3.99.94zm-.14-36.78a7.47 7.47 0 00-3.68.88L31.58 177a2.09 2.09 0 000 4L58 196.25a8.11 8.11 0 007.37 0L91.7 181a2.08 2.08 0 000-4l-26.44-15.28a7.51 7.51 0 00-3.69-.88z"></path><path d="M93.53 170.63V158l-16 2.14-12-6.93a8.45 8.45 0 00-7.62 0L56 154.35l-26 3.47v12.91a2.72 2.72 0 001.57 2.13L58 188.12a8.39 8.39 0 007.62 0L92 172.83a2.72 2.72 0 001.56-2.13z" fill="url(#Áåçûìÿííûé_ãðàäèåíò_354-16)"></path><path d="M92 155.66l-26.49-15.27a8.39 8.39 0 00-7.62 0l-26.3 15.29c-2.1 1.22-2.11 3.19 0 4.4L58 175.35a8.45 8.45 0 007.62 0L92 160.05c2.06-1.21 2.06-3.18 0-4.39z" fill="url(#Áåçûìÿííûé_ãðàäèåíò_346-22)"></path><path class="cls-8" d="M92 159.29l-26.35 15.29a8.39 8.39 0 01-7.62 0l-26.44-15.27a2.92 2.92 0 01-1.53-1.81c-.2.92.31 1.88 1.53 2.58L58 175.35a8.45 8.45 0 007.62 0L92 160.05a2.48 2.48 0 001.53-2.58 3 3 0 01-1.53 1.82zm-22.79 19.44l-1.26.73v-1.45l1.26-.72v1.44zm2.62-1.51l-1.26.72v-1.44l1.26-.72v1.44zm2.61-1.51l-1.25.72v-1.44l1.25-.73v1.45zm-2.14 4.17l-1.25.72v-1.45l1.25-.72v1.45zm2.31-1.34l-1.25.73v-1.45l1.25-.72v1.44zm8.23-7.68l-1.25.72v-1.44l1.25-.73v1.45zm7.22-4.17l-1.25.73v-1.45l1.25-.72v1.44zm-13 7.51l-1.25.72v-1.45l1.25-.72v1.45z"></path><path class="cls-9" d="M60.28 168.9l-17.79-10.27c-.73-.42-.64-1.15.2-1.63l17.38-10a3.13 3.13 0 012.82-.11l17.79 10.27c.73.41.64 1.14-.2 1.63l-17.38 10a3.1 3.1 0 01-2.82.11z"></path><path class="cls-8" d="M53.28 180l-14.68-8.46a1.51 1.51 0 01-.64-1.21v-1.09c0-.47.29-.68.64-.48l14.68 8.48a1.5 1.5 0 01.63 1.21v1.09c0 .46-.28.68-.63.46z"></path><path d="M93.53 146.84v-12.67l-16 2.13-12-6.92a8.39 8.39 0 00-7.62 0L56 130.56 30 134v12.91a2.72 2.72 0 001.57 2.13L58 164.34a8.45 8.45 0 007.62 0L92 149a2.71 2.71 0 001.56-2.12z" fill="url(#Áåçûìÿííûé_ãðàäèåíò_354-17)"></path><path d="M92 131.87L65.51 116.6a8.45 8.45 0 00-7.62 0l-26.3 15.3c-2.1 1.21-2.11 3.18 0 4.4L58 151.56a8.39 8.39 0 007.62 0L92 136.27c2.06-1.22 2.06-3.18 0-4.4z" fill="url(#Áåçûìÿííûé_ãðàäèåíò_346-23)"></path><path class="cls-9" d="M79.36 132.79L64 123.9a4.89 4.89 0 00-4.44 0l-15.32 8.91c-1.23.71-1.23 1.86 0 2.56l15.4 8.9a4.89 4.89 0 004.44 0l15.33-8.91a1.36 1.36 0 00-.05-2.57z"></path><path class="cls-8" d="M92 135.5l-26.35 15.3a8.45 8.45 0 01-7.62 0l-26.44-15.27a2.91 2.91 0 01-1.53-1.82c-.2.92.31 1.88 1.53 2.59L58 151.56a8.39 8.39 0 007.62 0L92 136.27a2.49 2.49 0 001.53-2.58A3 3 0 0192 135.5zm-22.79 19.45l-1.26.72v-1.44l1.26-.73v1.45zm2.62-1.51l-1.26.72v-1.45l1.26-.72v1.45zm2.61-1.51l-1.25.72v-1.45l1.25-.72v1.45zm-2.14 4.16l-1.25.72v-1.44l1.25-.73v1.45zm2.31-1.33l-1.25.72v-1.44l1.25-.73v1.45zm8.23-7.69l-1.25.73v-1.45l1.25-.72v1.44zm7.22-4.16l-1.25.72v-1.44l1.25-.73v1.45zm-13 7.5l-1.25.72v-1.44l1.25-.72v1.44z"></path><path d="M93.53 123.06v-12.68l-16 2.14-12-6.93a8.45 8.45 0 00-7.62 0L56 106.78l-26 3.47v12.91a2.72 2.72 0 001.57 2.13L58 140.55a8.39 8.39 0 007.62 0L92 125.26a2.72 2.72 0 001.56-2.13z" fill="url(#Áåçûìÿííûé_ãðàäèåíò_354-18)"></path><path d="M92 108.09L65.51 92.82a8.39 8.39 0 00-7.62 0l-26.3 15.29c-2.1 1.22-2.11 3.19 0 4.4L58 127.78a8.45 8.45 0 007.62 0L92 112.48c2.06-1.21 2.06-3.18 0-4.39z" fill="url(#Áåçûìÿííûé_ãðàäèåíò_346-24)"></path><path d="M92 108.09L65.51 92.82a8.39 8.39 0 00-7.62 0l-26.3 15.29c-2.1 1.22-2.11 3.19 0 4.4L58 127.78a8.45 8.45 0 007.62 0L92 112.48c2.06-1.21 2.06-3.18 0-4.39z" fill="url(#Áåçûìÿííûé_ãðàäèåíò_346-25)"></path><path class="cls-9" d="M81.77 108.83L64.25 98.72a5.55 5.55 0 00-5 0l-17.48 10.13c-1.39.81-1.39 2.11 0 2.92l17.52 10.11a5.55 5.55 0 005.05 0l17.43-10.13c1.4-.81 1.4-2.11 0-2.92z"></path><path class="cls-8" d="M92 111.72L65.65 127a8.39 8.39 0 01-7.65 0l-26.41-15.26a2.89 2.89 0 01-1.53-1.81c-.2.92.31 1.88 1.53 2.58L58 127.78a8.45 8.45 0 007.62 0L92 112.48a2.48 2.48 0 001.53-2.58 3 3 0 01-1.53 1.82zm-22.79 19.44l-1.26.73v-1.45l1.26-.72v1.44zm2.62-1.51l-1.26.73v-1.45l1.26-.72v1.44zm2.61-1.51l-1.25.72v-1.44l1.25-.73v1.45zm-2.14 4.17l-1.25.72v-1.45l1.25-.72v1.45zm2.31-1.34l-1.25.73v-1.45l1.25-.72v1.44zm8.23-7.68l-1.25.72v-1.44l1.25-.73v1.45zm7.22-4.16l-1.25.72v-1.45l1.25-.72v1.45zm-13 7.5l-1.25.72v-1.44l1.25-.73v1.45z"></path><path d="M93.53 99.72V87l-16 2.14-12-6.93a8.45 8.45 0 00-7.62 0L56 83.44l-26 3.47v12.91a2.72 2.72 0 001.59 2.18L58 117.22a8.45 8.45 0 007.62 0L92 101.92a2.71 2.71 0 001.56-2.12z" fill="url(#Áåçûìÿííûé_ãðàäèåíò_354-19)"></path><path d="M92 84.75L65.51 69.48a8.45 8.45 0 00-7.62 0l-26.3 15.3c-2.1 1.21-2.11 3.18 0 4.4L58 104.44a8.39 8.39 0 007.62 0L92 89.15c2.06-1.22 2.06-3.15 0-4.4z" fill="url(#Áåçûìÿííûé_ãðàäèåíò_346-26)"></path><path class="cls-9" d="M79.36 85.67L64 76.78a4.89 4.89 0 00-4.44 0l-15.37 8.91a1.35 1.35 0 000 2.56l15.4 8.9a4.89 4.89 0 004.44 0l15.33-8.91a1.36 1.36 0 000-2.57z"></path><path class="cls-8" d="M92 88.38l-26.35 15.29a8.39 8.39 0 01-7.62 0L31.59 88.41a2.91 2.91 0 01-1.53-1.82c-.2.92.31 1.88 1.53 2.59L58 104.44a8.39 8.39 0 007.62 0L92 89.15a2.5 2.5 0 001.53-2.59A2.94 2.94 0 0192 88.38zm-22.79 19.45l-1.26.72v-1.45l1.26-.72v1.45zm2.62-1.52l-1.26.73v-1.45l1.26-.72v1.44zm2.61-1.51l-1.25.73v-1.45l1.25-.72v1.44zm-2.14 4.17l-1.25.72v-1.44l1.25-.73v1.45zm2.31-1.33l-1.25.72v-1.45l1.25-.72v1.45zm8.23-7.69l-1.25.73v-1.45l1.25-.72v1.44zm7.22-4.16l-1.25.72v-1.45l1.25-.72v1.45zm-13 7.5l-1.25.72v-1.44l1.25-.72v1.44z"></path><path d="M93.53 75.94V63.26l-16 2.14-12-6.93a8.45 8.45 0 00-7.62 0L56 59.66l-26 3.47V76a2.7 2.7 0 001.57 2.13L58 93.43a8.39 8.39 0 007.62 0L92 78.14A2.72 2.72 0 0093.52 76z" fill="url(#Áåçûìÿííûé_ãðàäèåíò_354-20)"></path><path d="M92 61L65.51 45.7a8.39 8.39 0 00-7.62 0L31.59 61c-2.1 1.22-2.11 3.19 0 4.4L58 80.66a8.45 8.45 0 007.62 0L92 65.36c2.06-1.21 2.06-3.18 0-4.36z" fill="url(#Áåçûìÿííûé_ãðàäèåíò_346-27)"></path><path d="M92 61L65.51 45.7a8.39 8.39 0 00-7.62 0L31.59 61c-2.1 1.22-2.11 3.19 0 4.4L58 80.66a8.45 8.45 0 007.62 0L92 65.36c2.06-1.21 2.06-3.18 0-4.36z" fill="url(#Áåçûìÿííûé_ãðàäèåíò_346-28)"></path><path class="cls-8" d="M92 64.59l-26.35 15.3a8.45 8.45 0 01-7.62 0L31.59 64.62a2.92 2.92 0 01-1.53-1.81c-.2.92.31 1.88 1.53 2.58L58 80.66a8.45 8.45 0 007.62 0L92 65.36a2.48 2.48 0 001.53-2.58A2.93 2.93 0 0192 64.59zM69.21 84.04l-1.26.73v-1.45l1.26-.72v1.44zm2.62-1.51l-1.26.72v-1.44l1.26-.73v1.45zm2.61-1.51l-1.25.72V80.3l1.25-.73v1.45zm-2.14 4.16l-1.25.73v-1.45l1.25-.72v1.44zm2.31-1.33l-1.25.73v-1.45l1.25-.72v1.44zm8.23-7.68l-1.25.72v-1.44l1.25-.73v1.45zM90.06 72l-1.25.73v-1.45l1.25-.72V72zm-13 7.51l-1.25.72v-1.45l1.25-.72v1.45z"></path><path d="M7.92 195.57a4 4 0 11-4-3.92 4 4 0 014 3.92zM5.56 169.9a1.88 1.88 0 11-1.9-1.85 1.88 1.88 0 011.9 1.85zm113.82 48.78a2.29 2.29 0 11-2.31-2.27 2.29 2.29 0 012.31 2.27z" fill="#01c8ef" opacity=".8"></path><path class="cls-8" d="M81.77 61.71L64.25 51.6a5.55 5.55 0 00-5 0L41.77 61.73c-1.39.8-1.39 2.11 0 2.91l17.52 10.12a5.61 5.61 0 005.05 0l17.43-10.13c1.4-.81 1.4-2.11 0-2.92z"></path><path style="mix-blend-mode:lighten" fill="url(#Áåçûìÿííûé_ãðàäèåíò_57)" opacity=".3" d="M165.37 142.52l77.21 44.66.75-1.3-76.9-44.48-1.06 1.12z"></path><path d="M82.85 24v-2.41L72.21 23l-8-4.6a5.55 5.55 0 00-5 0l-1.21.8-17.3 2.3V24a1.79 1.79 0 001 1.41l17.59 10.17a5.57 5.57 0 005.06 0L81.8 25.43a1.8 1.8 0 001-1.41z" fill="url(#Áåçûìÿííûé_ãðàäèåíò_354-21)"></path><path d="M81.8 20.07L64.25 9.94a5.55 5.55 0 00-5 0l-17.5 10.14c-1.4.81-1.4 2.12 0 2.92l17.54 10.13a5.57 5.57 0 005.06 0L81.8 23c1.39-.82 1.39-2.13 0-2.93z" fill="url(#Áåçûìÿííûé_ãðàäèåíò_346-29)"></path><path class="cls-8" d="M81.8 22.47L64.35 32.62a5.57 5.57 0 01-5.06 0L41.75 22.49a1.91 1.91 0 01-1-1.2c-.13.61.21 1.24 1 1.71l17.54 10.13a5.57 5.57 0 005.06 0L81.8 23a1.62 1.62 0 001-1.71 1.9 1.9 0 01-1 1.18z"></path></g></g></svg> 