<svg xmlns="http://www.w3.org/2000/svg" id="Capa_1" data-name="Capa 1" viewBox="0 0 150 150"><defs><style>      .cls-1 {        fill: #fff;        stroke-width: 0px;      }    </style></defs><path class="cls-1" d="M81.09,35.52c2.66.02,5.3,1.06,7.31,3.1l44.04,44.79c4.02,4.09,3.96,10.66-.12,14.67l-44.79,44.03c-4.09,4.02-10.66,3.96-14.68-.13-4.02-4.09-3.96-10.66.13-14.67l37.39-36.75-36.76-37.39c-4.02-4.09-3.96-10.66.12-14.67,2.04-2.01,4.71-3,7.36-2.98"></path><path class="cls-1" d="M110.61,61.21h0c3.72,3.79,6,9,5.95,14.73-.05,5.73-2.42,10.9-6.2,14.62l-37.39,36.76c-4.09,4.02-4.14,10.59-.12,14.67,4.02,4.09,10.59,4.14,14.68.12l44.79-44.03c4.09-4.02,4.14-10.59.13-14.67l-21.83-22.2Z"></path><path class="cls-1" d="M70.21,115.32c-2.66,0-5.31-1.01-7.34-3.04l-44.42-44.41c-4.05-4.05-4.05-10.62,0-14.68L62.88,8.79c4.05-4.05,10.62-4.05,14.68,0,4.05,4.05,4.05,10.62,0,14.68l-37.08,37.07,37.08,37.07c4.05,4.05,4.05,10.62,0,14.68-2.03,2.03-4.68,3.04-7.34,3.04"></path><path class="cls-1" d="M39.31,85.96h0c-3.58-3.58-5.8-8.53-5.8-13.99s2.22-10.41,5.8-13.99l35.35-35.34c3.86-3.86,3.86-10.13,0-13.99-3.86-3.86-10.13-3.86-13.99,0L18.32,50.98c-3.86,3.86-3.86,10.13,0,13.99l20.99,20.99Z"></path></svg>