<svg xmlns="http://www.w3.org/2000/svg" width="551" height="323" viewBox="0 0 551 323" fill="none"><path d="M151.89 100.14C151.896 97.5693 152.381 95.0227 153.32 92.6297C154.28 90.1698 155.706 87.9186 157.52 85.9997C159.422 84.0041 161.69 82.3917 164.2 81.2497C167.298 79.949 170.641 79.3362 173.999 79.4536C177.357 79.571 180.65 80.4158 183.65 81.9297C186.447 83.4347 188.739 85.7302 190.24 88.5297L181.5 94.7397C181.159 93.8036 180.631 92.9463 179.95 92.2197C179.331 91.576 178.607 91.0418 177.81 90.6397C177.043 90.251 176.225 89.9748 175.38 89.8197C174.576 89.664 173.759 89.5837 172.94 89.5797C171.549 89.5334 170.169 89.8271 168.917 90.4352C167.666 91.0434 166.582 91.9477 165.76 93.0697C164.983 94.1293 164.406 95.3223 164.06 96.5897C163.689 97.8566 163.501 99.1697 163.5 100.49C163.49 101.902 163.71 103.307 164.15 104.65C164.545 105.931 165.18 107.125 166.02 108.17C166.836 109.186 167.858 110.018 169.02 110.61C170.263 111.224 171.633 111.535 173.02 111.52C173.827 111.517 174.632 111.426 175.42 111.25C176.251 111.073 177.053 110.777 177.8 110.37C178.562 109.955 179.254 109.421 179.85 108.79C180.484 108.101 180.974 107.291 181.29 106.41L190.61 111.98C189.969 113.538 189 114.939 187.77 116.09C186.477 117.296 185.015 118.307 183.43 119.09C181.772 119.925 180.019 120.556 178.21 120.97C176.43 121.389 174.608 121.603 172.78 121.61C169.852 121.648 166.955 121.015 164.31 119.76C161.806 118.571 159.555 116.911 157.68 114.87C155.835 112.844 154.374 110.499 153.37 107.95C152.393 105.462 151.891 102.813 151.89 100.14Z" fill="white"></path><path d="M212.56 121.66C209.587 121.703 206.641 121.082 203.94 119.84C201.443 118.692 199.194 117.069 197.32 115.06C195.481 113.09 194.026 110.794 193.03 108.29C192.026 105.791 191.51 103.123 191.51 100.43C191.509 97.7112 192.046 95.0195 193.09 92.5095C194.12 90.0084 195.625 87.73 197.52 85.7995C199.449 83.8387 201.737 82.2668 204.26 81.1695C206.952 79.9944 209.863 79.4047 212.8 79.4395C215.772 79.3972 218.716 80.0154 221.42 81.2495C223.92 82.4097 226.171 84.0431 228.05 86.0595C229.874 88.048 231.315 90.3569 232.3 92.8695C233.281 95.3532 233.786 97.9991 233.79 100.67C233.798 103.376 233.261 106.056 232.21 108.55C231.178 111.037 229.685 113.307 227.81 115.24C225.888 117.204 223.611 118.785 221.1 119.9C218.413 121.094 215.5 121.694 212.56 121.66ZM203.12 100.55C203.117 101.928 203.315 103.299 203.71 104.62C204.071 105.883 204.669 107.067 205.47 108.11C206.274 109.146 207.299 109.989 208.47 110.58C209.804 111.208 211.26 111.535 212.735 111.535C214.209 111.535 215.666 111.208 217 110.58C218.177 109.976 219.202 109.115 220 108.06C220.781 106.991 221.357 105.788 221.7 104.51C222.066 103.208 222.254 101.862 222.26 100.51C222.262 99.1314 222.063 97.7603 221.67 96.4395C221.309 95.1808 220.704 94.0052 219.89 92.9795C218.506 91.3864 216.637 90.2911 214.571 89.8612C212.505 89.4313 210.355 89.6907 208.45 90.5995C207.277 91.1962 206.252 92.0468 205.45 93.0895C204.66 94.1453 204.073 95.339 203.72 96.6095C203.342 97.8896 203.14 99.2151 203.12 100.55Z" fill="white"></path><path d="M236.29 100.14C236.303 94.8831 238.316 89.8278 241.92 86.0004C243.821 84.0026 246.089 82.3898 248.6 81.2504C251.696 79.9499 255.038 79.3372 258.395 79.4546C261.751 79.572 265.042 80.4167 268.04 81.9304C270.838 83.4376 273.133 85.7323 274.64 88.5304L265.9 94.7404C265.555 93.8061 265.028 92.9495 264.35 92.2204C263.729 91.5788 263.006 91.0449 262.21 90.6404C261.44 90.2516 260.618 89.9754 259.77 89.8204C258.969 89.6643 258.156 89.584 257.34 89.5804C255.95 89.5341 254.569 89.8278 253.318 90.4359C252.066 91.0441 250.983 91.9484 250.16 93.0704C249.384 94.1321 248.805 95.3243 248.45 96.5904C248.088 97.8588 247.902 99.1713 247.9 100.49C247.892 101.902 248.108 103.306 248.54 104.65C248.943 105.93 249.581 107.124 250.42 108.17C251.236 109.187 252.259 110.019 253.42 110.61C254.663 111.224 256.034 111.536 257.42 111.52C258.227 111.517 259.032 111.427 259.82 111.25C260.651 111.072 261.453 110.776 262.2 110.37C262.963 109.955 263.655 109.422 264.25 108.79C264.881 108.099 265.37 107.29 265.69 106.41L275.01 111.98C274.369 113.538 273.401 114.94 272.17 116.09C270.878 117.297 269.415 118.307 267.83 119.09C266.171 119.923 264.419 120.554 262.61 120.97C260.83 121.389 259.008 121.604 257.18 121.61C254.252 121.649 251.355 121.016 248.71 119.76C246.206 118.572 243.955 116.912 242.08 114.87C240.232 112.847 238.771 110.502 237.77 107.95C236.789 105.464 236.287 102.814 236.29 100.14Z" fill="white"></path><path d="M289.48 79.6699H299.92L314.35 121.31H302.74L300.22 113.16H289.13L286.67 121.31H275L289.48 79.6699ZM298.4 105.53L294.7 92.6299L290.83 105.53H298.4Z" fill="white"></path><path d="M316.92 110.11V100.11H335.28V110.11H316.92Z" fill="white"></path><path d="M341.13 100.14C341.155 94.8855 343.166 89.8343 346.76 86.0004C348.666 84.0046 350.937 82.3922 353.45 81.2504C356.546 79.9499 359.888 79.3372 363.245 79.4546C366.601 79.572 369.892 80.4167 372.89 81.9304C375.688 83.4376 377.983 85.7323 379.49 88.5304L370.75 94.7404C370.406 93.8036 369.875 92.9463 369.19 92.2204C368.573 91.5745 367.849 91.04 367.05 90.6404C366.283 90.2517 365.465 89.9755 364.62 89.8204C363.819 89.6643 363.006 89.584 362.19 89.5804C360.798 89.535 359.416 89.8291 358.164 90.4371C356.911 91.0451 355.825 91.9489 355 93.0704C354.228 94.1328 353.652 95.325 353.3 96.5904C352.934 97.8583 352.746 99.1708 352.74 100.49C352.735 101.903 352.955 103.307 353.39 104.65C353.793 105.93 354.43 107.124 355.27 108.17C356.084 109.189 357.107 110.021 358.27 110.61C359.513 111.225 360.883 111.536 362.27 111.52C363.081 111.518 363.889 111.427 364.68 111.25C365.508 111.074 366.307 110.777 367.05 110.37C367.817 109.958 368.513 109.425 369.11 108.79C369.738 108.098 370.224 107.29 370.54 106.41L379.9 112C379.252 113.557 378.28 114.958 377.05 116.11C375.759 117.319 374.297 118.33 372.71 119.11C371.052 119.945 369.299 120.577 367.49 120.99C365.714 121.41 363.895 121.625 362.07 121.63C359.142 121.67 356.244 121.037 353.6 119.78C351.093 118.597 348.841 116.936 346.97 114.89C345.118 112.87 343.657 110.523 342.66 107.97C341.659 105.481 341.14 102.824 341.13 100.14Z" fill="white"></path><path d="M401.81 121.66C398.837 121.705 395.891 121.083 393.19 119.84C390.692 118.69 388.44 117.067 386.56 115.06C384.724 113.089 383.273 110.793 382.28 108.29C381.268 105.793 380.749 103.124 380.75 100.43C380.748 97.7103 381.288 95.0177 382.34 92.5098C383.366 90.0064 384.871 87.7272 386.77 85.7998C388.698 83.8368 390.986 82.2646 393.51 81.1698C396.198 79.9945 399.106 79.4048 402.04 79.4398C405.012 79.395 407.957 80.0134 410.66 81.2498C415.66 83.561 419.562 87.7291 421.54 92.8698C422.529 95.3515 423.038 97.9983 423.04 100.67C423.043 103.375 422.506 106.055 421.46 108.55C419.359 113.628 415.374 117.695 410.34 119.9C407.657 121.094 404.747 121.695 401.81 121.66ZM392.37 100.55C392.363 101.927 392.559 103.299 392.95 104.62C393.316 105.882 393.912 107.065 394.71 108.11C395.516 109.144 396.541 109.987 397.71 110.58C399.045 111.21 400.503 111.537 401.98 111.537C403.457 111.537 404.915 111.21 406.25 110.58C407.427 109.976 408.453 109.115 409.25 108.06C410.027 106.989 410.603 105.786 410.95 104.51C411.316 103.208 411.505 101.862 411.51 100.51C411.512 99.1316 411.314 97.7605 410.92 96.4398C410.556 95.1802 409.948 94.0046 409.13 92.9798C407.747 91.3875 405.881 90.2925 403.816 89.8626C401.752 89.4327 399.603 89.6917 397.7 90.5998C396.528 91.1976 395.503 92.048 394.7 93.0898C393.91 94.1455 393.323 95.3392 392.97 96.6098C392.592 97.8898 392.39 99.2153 392.37 100.55Z" fill="white"></path><path d="M428 121.31V79.6699H439.44V111.34H458.33V121.34L428 121.31Z" fill="white"></path><path d="M474.28 79.6699H484.72L499.14 121.31H487.53L485 113.16H473.93L471.46 121.31H459.79L474.28 79.6699ZM483.19 105.53L479.5 92.6299L475.63 105.53H483.19Z" fill="white"></path><path d="M155.29 184.65V143H161.86V184.64L155.29 184.65Z" fill="white"></path><path d="M205.86 184.65V154.65L193.48 177.35H189.85L177.42 154.65V184.65H170.85V143H177.85L191.63 168.45L205.45 143H212.45V184.64L205.86 184.65Z" fill="white"></path><path d="M221.5 184.65V143H239C240.797 142.983 242.574 143.383 244.19 144.17C245.734 144.922 247.116 145.969 248.26 147.25C249.402 148.525 250.307 149.995 250.93 151.59C251.584 153.176 251.924 154.874 251.93 156.59C251.934 160.038 250.707 163.375 248.47 166C247.357 167.277 245.996 168.314 244.47 169.05C242.872 169.823 241.115 170.213 239.34 170.19H228.07V184.68L221.5 184.65ZM228.07 164.36H238.92C239.805 164.371 240.68 164.168 241.47 163.77C242.251 163.38 242.935 162.819 243.47 162.13C244.038 161.386 244.475 160.551 244.76 159.66C245.087 158.659 245.246 157.612 245.23 156.56C245.248 155.48 245.072 154.406 244.71 153.39C244.361 152.505 243.849 151.695 243.2 151C242.601 150.331 241.873 149.79 241.06 149.41C240.28 149.046 239.43 148.858 238.57 148.86H228.07V164.36Z" fill="white"></path><path d="M274.45 179C276.35 179.072 278.234 178.626 279.9 177.71C281.317 176.88 282.517 175.725 283.4 174.34C284.3 172.88 284.933 171.272 285.27 169.59C285.644 167.784 285.832 165.944 285.83 164.1V143H292.46V164.11C292.473 166.832 292.137 169.544 291.46 172.18C290.854 174.575 289.776 176.826 288.29 178.8C286.812 180.726 284.891 182.266 282.69 183.29C280.1 184.445 277.285 185.005 274.45 184.93C271.55 185.023 268.668 184.431 266.04 183.2C263.844 182.126 261.94 180.537 260.49 178.57C259.058 176.565 258.023 174.304 257.44 171.91C256.814 169.358 256.501 166.738 256.51 164.11V143H263.07V164.11C263.065 165.971 263.253 167.828 263.63 169.65C263.962 171.335 264.599 172.944 265.51 174.4C266.388 175.791 267.597 176.942 269.03 177.75C270.695 178.636 272.565 179.067 274.45 179Z" fill="white"></path><path d="M300.92 184.65V143H307.49V178.83H329.83V184.64L300.92 184.65Z" fill="white"></path><path d="M360.66 152.8C360.151 152.273 359.58 151.81 358.96 151.42C358.13 150.891 357.257 150.432 356.35 150.05C355.29 149.602 354.192 149.247 353.07 148.99C351.866 148.718 350.635 148.58 349.4 148.58C346.63 148.58 344.58 149.09 343.27 150.11C342.619 150.597 342.096 151.237 341.747 151.972C341.399 152.708 341.235 153.517 341.27 154.33C341.231 155.201 341.442 156.066 341.88 156.82C342.367 157.535 343.023 158.119 343.79 158.52C344.813 159.075 345.897 159.508 347.02 159.81C348.31 160.18 349.81 160.58 351.53 161.01C353.467 161.469 355.377 162.037 357.25 162.71C358.807 163.25 360.274 164.022 361.6 165C362.754 165.882 363.688 167.018 364.33 168.32C365.023 169.813 365.365 171.444 365.33 173.09C365.381 174.981 364.969 176.855 364.13 178.55C363.361 180.042 362.234 181.32 360.85 182.27C359.382 183.268 357.741 183.984 356.01 184.38C354.071 184.843 352.084 185.072 350.09 185.06C346.973 185.068 343.875 184.582 340.91 183.62C338.023 182.693 335.316 181.276 332.91 179.43L335.91 173.8C336.588 174.435 337.325 175.004 338.11 175.5C339.174 176.174 340.295 176.753 341.46 177.23C342.801 177.784 344.181 178.235 345.59 178.58C347.105 178.955 348.66 179.143 350.22 179.14C352.307 179.262 354.386 178.794 356.22 177.79C356.897 177.373 357.45 176.781 357.821 176.078C358.192 175.374 358.368 174.584 358.33 173.79C358.363 172.847 358.085 171.92 357.54 171.15C356.925 170.381 356.155 169.751 355.28 169.3C354.135 168.707 352.937 168.225 351.7 167.86C350.293 167.44 348.69 166.993 346.89 166.52C345.053 166.044 343.244 165.466 341.47 164.79C340.078 164.273 338.78 163.53 337.63 162.59C336.645 161.774 335.852 160.749 335.31 159.59C334.747 158.263 334.478 156.831 334.52 155.39C334.485 153.517 334.886 151.662 335.69 149.97C336.444 148.414 337.538 147.047 338.89 145.97C340.31 144.856 341.934 144.03 343.67 143.54C345.619 142.974 347.641 142.698 349.67 142.72C352.329 142.695 354.972 143.149 357.47 144.06C359.704 144.883 361.814 146.011 363.74 147.41L360.66 152.8Z" fill="white"></path><path d="M383.27 143H389L405.42 184.64H398.5L394.1 173.32H378.05L373.71 184.64H366.71L383.27 143ZM392.83 168.45L386.14 150.56L379.22 168.45H392.83Z" fill="white"></path><path d="M185.84 212.15H172V248H165.38V212.15H151.48V206.35H185.84V212.15Z" fill="white"></path><path d="M208.12 242.36C210.02 242.431 211.904 241.986 213.57 241.07C214.987 240.238 216.184 239.079 217.06 237.69C217.971 236.234 218.608 234.624 218.94 232.94C219.315 231.137 219.502 229.301 219.5 227.46V206.35H226.12V227.46C226.134 230.178 225.798 232.887 225.12 235.52C224.51 237.917 223.433 240.17 221.95 242.15C220.47 244.073 218.55 245.613 216.35 246.64C213.761 247.794 210.945 248.355 208.11 248.28C205.207 248.368 202.323 247.776 199.69 246.55C197.498 245.475 195.597 243.887 194.15 241.92C192.715 239.917 191.679 237.655 191.1 235.26C190.466 232.708 190.15 230.088 190.16 227.46V206.35H196.73V227.46C196.726 229.321 196.914 231.177 197.29 233C197.619 234.684 198.253 236.293 199.16 237.75C200.044 239.136 201.252 240.286 202.68 241.1C204.352 241.989 206.228 242.424 208.12 242.36Z" fill="white"></path><path d="M257.09 218.66V248H250.52V206.35H255.68L279.49 236.35V206.35H286.12V248H280.66L257.09 218.66Z" fill="white"></path><path d="M323.72 242.18V248H295.16V206.35H323.16V212.15H301.73V224H320.32V229.45H301.73V242.18H323.72Z" fill="white"></path><path d="M358 242.83C356.467 244.534 354.596 245.899 352.505 246.837C350.415 247.776 348.151 248.267 345.86 248.28C343.182 248.299 340.535 247.707 338.12 246.55C335.763 245.416 333.65 243.833 331.9 241.89C328.269 237.776 326.267 232.477 326.27 226.99C326.261 224.252 326.77 221.538 327.77 218.99C328.722 216.524 330.122 214.256 331.9 212.3C333.669 210.382 335.804 208.838 338.18 207.76C341.038 206.526 344.139 205.958 347.249 206.1C350.359 206.243 353.396 207.09 356.13 208.58C358.744 210.154 360.856 212.44 362.22 215.17L357.22 218.81C356.21 216.673 354.574 214.895 352.53 213.71C350.529 212.571 348.262 211.985 345.96 212.01C344.103 211.987 342.27 212.42 340.62 213.27C339.039 214.09 337.643 215.227 336.52 216.61C335.358 218.048 334.473 219.689 333.91 221.45C333.298 223.305 332.991 225.247 333 227.2C332.973 229.217 333.312 231.223 334 233.12C334.636 234.881 335.588 236.511 336.81 237.93C337.991 239.29 339.437 240.396 341.06 241.18C342.722 241.992 344.55 242.406 346.4 242.39C348.511 242.389 350.592 241.885 352.47 240.92C354.613 239.771 356.498 238.195 358.01 236.29V231.8H349.27V226.93H363.53V248H358V242.83Z" fill="white"></path><path d="M388.09 248.28C385.281 248.314 382.503 247.702 379.97 246.49C377.576 245.334 375.432 243.72 373.66 241.74C371.895 239.755 370.515 237.459 369.59 234.97C368.639 232.479 368.151 229.836 368.15 227.17C368.138 224.429 368.658 221.713 369.68 219.17C370.655 216.687 372.075 214.403 373.87 212.43C375.652 210.471 377.803 208.884 380.2 207.76C382.705 206.597 385.438 206.006 388.2 206.03C391.015 205.995 393.797 206.629 396.32 207.88C398.709 209.067 400.842 210.712 402.6 212.72C404.326 214.72 405.68 217.013 406.6 219.49C408.54 224.544 408.519 230.141 406.54 235.18C405.582 237.665 404.16 239.946 402.35 241.9C400.546 243.836 398.386 245.408 395.99 246.53C393.518 247.689 390.82 248.287 388.09 248.28ZM374.84 227.17C374.835 229.105 375.153 231.028 375.78 232.86C376.364 234.627 377.266 236.274 378.44 237.72C379.594 239.122 381.023 240.272 382.64 241.1C384.349 241.955 386.238 242.387 388.15 242.36C390.098 242.399 392.024 241.945 393.75 241.04C395.353 240.17 396.762 238.983 397.89 237.55C399.026 236.089 399.899 234.441 400.47 232.68C401.049 230.9 401.346 229.041 401.35 227.17C401.355 225.224 401.037 223.291 400.41 221.45C399.817 219.698 398.912 218.069 397.74 216.64C396.592 215.253 395.173 214.117 393.57 213.3C391.892 212.446 390.032 212.014 388.15 212.04C386.192 212.003 384.257 212.457 382.52 213.36C380.914 214.208 379.499 215.375 378.36 216.79C377.202 218.227 376.318 219.864 375.75 221.62C375.146 223.408 374.839 225.282 374.84 227.17Z" fill="white"></path><path d="M412 226.87C412.009 224.32 412.466 221.792 413.35 219.4C414.247 216.937 415.605 214.666 417.35 212.71C419.127 210.705 421.29 209.079 423.71 207.93C426.368 206.685 429.275 206.062 432.21 206.11C435.63 206.012 439.007 206.885 441.95 208.63C444.553 210.212 446.665 212.487 448.05 215.2L442.89 218.66C442.361 217.498 441.645 216.43 440.77 215.5C439.992 214.671 439.083 213.975 438.08 213.44C437.118 212.942 436.091 212.579 435.03 212.36C434.043 212.153 433.038 212.046 432.03 212.04C430.033 211.995 428.057 212.448 426.28 213.36C424.671 214.212 423.263 215.399 422.15 216.84C421.025 218.301 420.169 219.95 419.62 221.71C419.065 223.457 418.778 225.277 418.77 227.11C418.764 229.087 419.102 231.05 419.77 232.91C420.396 234.69 421.342 236.34 422.56 237.78C423.737 239.177 425.182 240.323 426.81 241.15C428.479 241.997 430.328 242.429 432.2 242.41C433.258 242.409 434.312 242.281 435.34 242.03C436.431 241.774 437.479 241.36 438.45 240.8C439.466 240.22 440.395 239.5 441.21 238.66C442.081 237.754 442.786 236.701 443.29 235.55L448.74 238.66C448.087 240.213 447.132 241.62 445.93 242.8C444.706 243.986 443.322 244.995 441.82 245.8C440.29 246.621 438.664 247.249 436.98 247.67C435.347 248.093 433.667 248.311 431.98 248.32C429.201 248.344 426.457 247.699 423.98 246.44C421.597 245.221 419.469 243.558 417.71 241.54C415.943 239.516 414.551 237.193 413.6 234.68C412.594 232.196 412.052 229.549 412 226.87Z" fill="white"></path><path d="M454.18 248V206.35H460.75V248H454.18Z" fill="white"></path><path d="M487.19 248.28C484.382 248.314 481.604 247.702 479.07 246.49C476.675 245.336 474.531 243.722 472.76 241.74C470.996 239.755 469.615 237.459 468.69 234.97C467.739 232.479 467.251 229.836 467.25 227.17C467.239 224.429 467.758 221.713 468.78 219.17C469.755 216.687 471.175 214.403 472.97 212.43C474.752 210.471 476.903 208.884 479.3 207.76C481.805 206.595 484.538 206.004 487.3 206.03C490.115 205.995 492.898 206.629 495.42 207.88C497.808 209.07 499.941 210.714 501.7 212.72C503.426 214.72 504.781 217.013 505.7 219.49C507.641 224.544 507.619 230.141 505.64 235.18C504.682 237.665 503.26 239.946 501.45 241.9C499.646 243.836 497.487 245.408 495.09 246.53C492.618 247.689 489.92 248.287 487.19 248.28ZM473.94 227.17C473.936 229.105 474.254 231.028 474.88 232.86C475.465 234.627 476.366 236.274 477.54 237.72C478.694 239.122 480.124 240.272 481.74 241.1C483.449 241.955 485.339 242.387 487.25 242.36C489.198 242.399 491.125 241.945 492.85 241.04C494.452 240.173 495.858 238.985 496.98 237.55C498.124 236.092 499 234.443 499.57 232.68C500.15 230.9 500.447 229.041 500.45 227.17C500.455 225.224 500.138 223.291 499.51 221.45C498.918 219.698 498.013 218.069 496.84 216.64C495.693 215.253 494.274 214.117 492.67 213.3C490.992 212.446 489.132 212.014 487.25 212.04C485.293 212.003 483.357 212.457 481.62 213.36C480.015 214.208 478.599 215.375 477.46 216.79C476.303 218.227 475.418 219.864 474.85 221.62C474.247 223.408 473.94 225.282 473.94 227.17Z" fill="white"></path><path d="M29.7398 63.8199C29.4974 63.8592 29.2595 63.9229 29.0298 64.0099C28.8199 64.1159 28.6304 64.2581 28.4698 64.4299C24.0998 68.4899 3.84985 101.5 2.99985 102.77C2.92604 102.863 2.89199 102.981 2.9051 103.099C2.91821 103.217 2.97743 103.325 3.06985 103.4L5.06985 105.11C5.26985 105.27 5.51985 105.06 5.60985 105C9.77985 102.37 26.9198 87.4599 30.1498 86.7299C30.9998 86.5399 37.3198 87.6099 45.1498 90.7299C46.0198 89.8299 46.9498 88.8099 47.9298 87.6399C51.3598 83.5499 56.5398 75.7799 63.3398 64.5699C50.5198 63.8199 33.8698 63.0999 29.7398 63.8199Z" fill="white"></path><path d="M111 133.67C111.139 133.478 111.247 133.265 111.32 133.04C111.366 132.8 111.386 132.555 111.38 132.31C111.38 128.11 107.77 111.84 104.86 99.3701C94.99 108.01 88.24 114.47 84.81 118.55C83.81 119.73 82.98 120.81 82.25 121.83C86.63 128.97 88.79 135.01 88.75 135.83C88.59 139.14 76.88 158.61 75.02 163.17C74.97 163.28 74.8 163.56 75.02 163.72L77.02 165.43C77.0651 165.469 77.1175 165.499 77.1743 165.518C77.231 165.537 77.2909 165.544 77.3505 165.539C77.4101 165.535 77.4681 165.518 77.5213 165.491C77.5744 165.464 77.6216 165.426 77.66 165.38C78.74 164.35 107.74 138.67 111 133.67Z" fill="white"></path><path d="M80.3701 114.83C86.8701 107.1 101.95 94.2602 102.84 93.4302C104.33 92.0402 106 90.8202 105.45 89.7602C107.13 89.8602 122.31 70.0902 121.12 67.8402C122.03 68.6002 123.5 66.2002 124.54 64.5702C126.46 61.5702 129.42 53.2102 133.16 44.5702C134.83 40.7202 137.3 34.8702 139.72 31.0402C141.942 27.7824 144.374 24.6725 147 21.7302C147.461 21.761 147.921 21.67 148.335 21.4663C148.75 21.2627 149.103 20.9537 149.36 20.5702C150.17 19.5702 150.94 16.0502 151.23 15.7002C151.395 15.4658 151.611 15.2725 151.863 15.1355C152.114 14.9985 152.394 14.9214 152.68 14.9102C153.56 14.9102 154.19 14.0602 154.52 13.2402C154.91 12.2402 154.14 11.1802 153.7 10.5902C152.034 8.7387 150.236 7.0108 148.32 5.42021C146.435 3.80287 144.429 2.33192 142.32 1.02021C141.66 0.680212 140.49 0.11021 139.57 0.67021C139.173 0.861654 138.837 1.16107 138.602 1.5342C138.367 1.90734 138.241 2.33913 138.24 2.78021C138.28 3.06273 138.253 3.35054 138.163 3.62116C138.073 3.89178 137.921 4.13788 137.72 4.34021C137.42 4.69021 134.11 6.05021 133.25 7.03021C132.916 7.34781 132.672 7.74856 132.544 8.19138C132.416 8.6342 132.407 9.10317 132.52 9.55021C130.061 12.6318 127.412 15.5574 124.59 18.3102C121.23 21.3102 115.9 24.8002 112.4 27.1202C104.56 32.3002 96.8401 36.6702 94.2201 39.0702C92.8001 40.3802 90.6801 42.2502 91.6001 43.0102C89.1701 42.2302 72.3401 60.6102 72.7301 62.2502C71.5901 61.8902 70.7301 63.7502 69.5701 65.4602C68.9001 66.4602 58.8801 83.5602 52.3901 91.3102C48.8793 95.7477 44.5599 99.4802 39.6601 102.31C36.3201 104.43 29.1701 110.96 30.9201 115.64C31.9201 118.43 37.7601 124.94 43.8301 130.03C49.9001 135.12 57.3001 139.69 60.2401 140.24C65.1401 141.14 70.3401 132.97 71.8401 129.31C73.7541 123.993 76.6473 119.082 80.3701 114.83Z" fill="white"></path><path d="M549.38 306.27C474.7 274.05 382 286.9 292.38 299.27C226.11 308.45 163.51 317.12 113.67 306.52C74.5103 298.18 43.5703 274.87 28.7603 242.52C14.2603 210.85 16.7603 174.26 35.9003 139.52C36.0428 139.257 36.1322 138.969 36.1633 138.672C36.1944 138.374 36.1667 138.074 36.0818 137.788C35.9968 137.501 35.8562 137.234 35.6681 137.002C35.48 136.77 35.248 136.577 34.9853 136.435C34.7227 136.292 34.4345 136.203 34.1374 136.172C33.8402 136.14 33.5398 136.168 33.2533 136.253C32.9669 136.338 32.6999 136.479 32.4678 136.667C32.2356 136.855 32.0428 137.087 31.9003 137.35C12.0903 173.41 9.50033 211.44 24.6103 244.44C40.0103 278.07 72.1103 302.31 112.68 310.94C129.33 314.49 147.32 315.94 166.33 315.94C205.13 315.94 248.21 309.94 292.95 303.77C381.95 291.44 474.06 278.69 547.58 310.4C547.852 310.516 548.144 310.579 548.44 310.583C548.736 310.586 549.03 310.532 549.305 310.423C549.58 310.313 549.83 310.15 550.042 309.944C550.254 309.738 550.423 309.491 550.54 309.22C550.657 308.948 550.719 308.656 550.723 308.36C550.727 308.064 550.673 307.77 550.563 307.495C550.454 307.22 550.291 306.97 550.085 306.758C549.878 306.546 549.632 306.376 549.36 306.26L549.38 306.27Z" fill="white"></path><path d="M151.64 295.43C153.34 295.43 155.05 295.49 156.78 295.49C170.041 295.434 183.285 294.489 196.42 292.66C196.984 292.547 197.484 292.223 197.818 291.755C198.151 291.286 198.294 290.708 198.216 290.138C198.138 289.568 197.846 289.049 197.399 288.687C196.952 288.325 196.383 288.147 195.81 288.19C181.213 290.242 166.478 291.155 151.74 290.92C151.432 290.894 151.122 290.931 150.83 291.029C150.537 291.127 150.267 291.284 150.038 291.49C149.808 291.697 149.623 291.948 149.494 292.228C149.365 292.509 149.295 292.813 149.289 293.122C149.282 293.43 149.338 293.737 149.455 294.023C149.571 294.309 149.744 294.568 149.965 294.784C150.185 295.001 150.447 295.169 150.735 295.28C151.024 295.391 151.331 295.442 151.64 295.43Z" fill="white"></path><path d="M43.0005 238.21C29.8805 215.37 27.1205 186.21 36.0005 163.88C36.1095 163.605 36.1632 163.311 36.1586 163.015C36.154 162.72 36.0912 162.427 35.9737 162.156C35.8563 161.884 35.6865 161.638 35.474 161.432C35.2615 161.226 35.0106 161.064 34.7355 160.955C34.4603 160.846 34.1664 160.793 33.8706 160.797C33.5747 160.802 33.2826 160.865 33.011 160.982C32.7394 161.099 32.4935 161.269 32.2876 161.482C32.0816 161.694 31.9195 161.945 31.8105 162.22C22.4705 185.75 25.3405 216.47 39.1205 240.46C50.5105 260.3 74.6805 285.56 125.12 293.22C125.234 293.23 125.347 293.23 125.46 293.22C126.035 293.232 126.592 293.022 127.018 292.636C127.443 292.249 127.704 291.714 127.748 291.141C127.791 290.568 127.614 290 127.252 289.553C126.89 289.107 126.37 288.816 125.8 288.74C77.1205 281.37 53.9205 257.19 43.0005 238.21Z" fill="white"></path><path d="M506.7 317.66C463.58 301 392.65 301.27 366.92 304C366.347 304.089 365.83 304.395 365.476 304.854C365.122 305.314 364.958 305.892 365.018 306.469C365.079 307.046 365.359 307.577 365.8 307.954C366.242 308.33 366.811 308.522 367.39 308.49C380.04 307.16 404.08 306.49 429.27 308.06C451.02 309.4 481.81 312.88 505.07 321.89C505.331 321.996 505.609 322.05 505.89 322.05C506.418 322.05 506.93 321.865 507.336 321.528C507.742 321.19 508.017 320.721 508.113 320.202C508.209 319.683 508.12 319.146 507.862 318.686C507.604 318.225 507.193 317.869 506.7 317.68V317.66Z" fill="white"></path><path d="M23.7203 135.24C23.901 135.294 24.0847 135.337 24.2703 135.37C25.9544 135.679 27.6924 135.308 29.1024 134.336C30.5125 133.365 31.4793 131.874 31.7903 130.19C31.984 129.145 31.9169 128.068 31.5949 127.056C31.2729 126.043 30.706 125.125 29.9444 124.384C29.1829 123.642 28.2502 123.1 27.2291 122.806C26.2079 122.511 25.1299 122.473 24.0905 122.695C23.0511 122.917 22.0825 123.391 21.2705 124.077C20.4586 124.763 19.8283 125.638 19.4356 126.626C19.043 127.613 18.9 128.683 19.0194 129.739C19.1389 130.795 19.517 131.805 20.1203 132.68C20.9753 133.937 22.2526 134.845 23.7203 135.24ZM23.1803 128.6C23.2921 128.001 23.6371 127.47 24.1396 127.125C24.6421 126.78 25.261 126.649 25.8603 126.76L26.0503 126.81C26.596 126.986 27.0562 127.36 27.3407 127.857C27.6252 128.355 27.7135 128.941 27.5884 129.501C27.4632 130.06 27.1335 130.553 26.664 130.882C26.1945 131.211 25.619 131.353 25.0503 131.28C24.4524 131.166 23.9237 130.82 23.5791 130.318C23.2346 129.817 23.102 129.199 23.2103 128.6H23.1803Z" fill="white"></path><path d="M40.8102 164C40.5189 165.589 40.8325 167.229 41.6892 168.598C42.546 169.968 43.884 170.967 45.4402 171.4C45.6211 171.45 45.8047 171.49 45.9902 171.52C47.6728 171.829 49.4095 171.459 50.8193 170.49C52.2291 169.521 53.1968 168.032 53.5102 166.35C53.6892 165.506 53.6975 164.635 53.5345 163.788C53.3715 162.941 53.0405 162.135 52.561 161.418C52.0816 160.701 51.4634 160.087 50.743 159.613C50.0226 159.139 49.2144 158.814 48.3663 158.657C47.5181 158.5 46.6471 158.514 45.8047 158.699C44.9622 158.884 44.1654 159.236 43.4611 159.734C42.7569 160.232 42.1595 160.866 41.7042 161.599C41.2489 162.331 40.9449 163.148 40.8102 164ZM44.9002 164.76C44.9543 164.462 45.0667 164.178 45.2308 163.924C45.3949 163.67 45.6075 163.451 45.8564 163.279C46.1053 163.107 46.3857 162.986 46.6815 162.923C46.9773 162.859 47.2827 162.855 47.5802 162.91H47.7702C48.3629 163.042 48.8787 163.405 49.2041 163.918C49.5295 164.431 49.6378 165.052 49.5052 165.645C49.3726 166.238 49.0099 166.753 48.497 167.079C47.9841 167.404 47.3629 167.512 46.7702 167.38C46.1712 167.27 45.6401 166.928 45.2933 166.427C44.9465 165.927 44.8123 165.309 44.9202 164.71L44.9002 164.76Z" fill="white"></path><path d="M36.76 153.75C37.2931 154.511 38.0745 155.062 38.97 155.31L39.34 155.39C39.8574 155.482 40.3879 155.471 40.9012 155.358C41.4145 155.245 41.9005 155.032 42.3314 154.732C42.7623 154.431 43.1297 154.048 43.4126 153.605C43.6955 153.162 43.8883 152.667 43.98 152.15C44.1656 151.105 43.9286 150.029 43.321 149.159C42.7133 148.289 41.7849 147.696 40.74 147.51C39.695 147.324 38.6191 147.561 37.749 148.169C36.8788 148.777 36.2856 149.705 36.1 150.75C36.0069 151.269 36.0173 151.801 36.1305 152.316C36.2438 152.831 36.4577 153.318 36.76 153.75Z" fill="white"></path><path d="M14.4603 147.83L14.8304 147.91C15.8738 148.094 16.9474 147.855 17.8154 147.248C18.6834 146.64 19.275 145.713 19.4603 144.67C19.5954 143.907 19.5057 143.121 19.2021 142.407C18.8986 141.694 18.3943 141.084 17.7507 140.652C17.107 140.22 16.3516 139.985 15.5765 139.974C14.8013 139.963 14.0398 140.178 13.3845 140.592C12.7292 141.006 12.2083 141.602 11.8853 142.307C11.5623 143.012 11.451 143.795 11.565 144.562C11.6789 145.329 12.0133 146.046 12.5273 146.626C13.0413 147.206 13.7129 147.625 14.4603 147.83Z" fill="white"></path><path d="M52.84 151.51L53.21 151.59C53.7274 151.682 54.258 151.671 54.7712 151.558C55.2845 151.445 55.7705 151.232 56.2014 150.932C56.6323 150.631 56.9997 150.248 57.2826 149.805C57.5655 149.362 57.7583 148.868 57.85 148.35C57.985 147.587 57.8953 146.8 57.5918 146.087C57.2882 145.374 56.784 144.764 56.1403 144.332C55.4966 143.9 54.7413 143.664 53.9661 143.654C53.191 143.643 52.4295 143.858 51.7742 144.272C51.1188 144.686 50.598 145.282 50.275 145.987C49.9519 146.691 49.8406 147.475 49.9546 148.241C50.0686 149.008 50.4029 149.725 50.9169 150.306C51.431 150.886 52.1026 151.304 52.85 151.51H52.84Z" fill="white"></path><path d="M138.16 296.35L138.52 296.43C139.037 296.522 139.568 296.511 140.081 296.398C140.594 296.285 141.08 296.072 141.511 295.772C141.942 295.471 142.309 295.088 142.592 294.645C142.875 294.202 143.068 293.708 143.16 293.19C143.252 292.673 143.241 292.142 143.128 291.629C143.015 291.116 142.802 290.63 142.501 290.199C142.2 289.768 141.817 289.401 141.374 289.118C140.931 288.835 140.437 288.642 139.92 288.55C139.402 288.458 138.872 288.469 138.359 288.582C137.845 288.695 137.36 288.908 136.929 289.209C136.498 289.51 136.13 289.893 135.847 290.336C135.565 290.778 135.372 291.273 135.28 291.79C135.187 292.309 135.197 292.841 135.31 293.356C135.423 293.871 135.637 294.358 135.94 294.79C136.475 295.553 137.261 296.105 138.16 296.35Z" fill="white"></path><path d="M16.5601 157.45C16.6987 157.181 16.7818 156.886 16.8045 156.584C16.8271 156.282 16.7888 155.979 16.6919 155.692C16.595 155.405 16.4415 155.141 16.2404 154.914C16.0393 154.688 15.7947 154.504 15.5213 154.374C15.2478 154.244 14.951 154.17 14.6485 154.157C14.346 154.144 14.0439 154.192 13.7603 154.298C13.4766 154.404 13.2171 154.566 12.9972 154.774C12.7773 154.982 12.6015 155.232 12.4801 155.51C-1.89987 185.73 -1.12987 225.17 2.48013 238.62C2.60784 239.101 2.89073 239.526 3.2849 239.83C3.67908 240.134 4.16249 240.299 4.66013 240.3C4.85607 240.298 5.05095 240.271 5.24013 240.22C5.81808 240.065 6.31147 239.688 6.61298 239.171C6.91448 238.654 6.99971 238.039 6.85013 237.46C4.21013 227.67 1.57013 189 16.5601 157.45Z" fill="white"></path></svg>